<svg xmlns="http://www.w3.org/2000/svg" fill-rule="evenodd" clip-rule="evenodd" image-rendering="optimizeQuality" shape-rendering="geometricPrecision" text-rendering="geometricPrecision" viewBox="0 0 128 103"><path fill="#d3dfd4" d="M15.5-.5h56v1a392.501 392.501 0 01-56 0v-1z" opacity=".918"/><path fill="#c7d7c7" d="M14.5.5c-.553 2.052-1.553 2.385-3 1 .709-.904 1.709-1.237 3-1z" opacity=".847"/><path fill="#becebe" d="M75.5.5c13.451.57 25.118 5.237 35 14 0 .667-.333 1-1 1-10.318-7.718-21.65-12.718-34-15z" opacity=".075"/><path fill="#669566" d="M112.5 19.5a205.502 205.502 0 019 21c-1.112.765-1.779 1.765-2 3h-4c.611-5.118-.556-9.785-3.5-14-10.15-13.286-23.65-20.286-40.5-21v3h-1v-3c-1.291-.237-2.291.096-3 1a324.338 324.338 0 00-30-1c-7.48-1.802-15.146-2.136-23-1a30.958 30.958 0 00-2 2c-2.148.11-2.481-.556-1-2 1.928-2.078 4.095-2.745 6.5-2A1160.456 1160.456 0 0179.5 4a36.518 36.518 0 0010 3l-1 1a535.97 535.97 0 0113.5 5.5l1-1c2.477 3.316 5.644 5.65 9.5 7z"/><path fill="#70a171" d="M37.5 8.5c-3.07-.132-6.07.201-9 1a44.358 44.358 0 01-2-1c-1.451 2.059-3.451 3.059-6 3a21.445 21.445 0 01-7-1c0-.667-.333-1-1-1a30.958 30.958 0 012-2c7.854-1.136 15.52-.802 23 1z"/><path fill="#5a815a" d="M14.5.5h1a392.501 392.501 0 0056 0h4c12.35 2.282 23.682 7.282 34 15l3 4c-3.856-1.35-7.023-3.684-9.5-7l-1 1A535.97 535.97 0 0088.5 8l1-1a36.518 36.518 0 01-10-3c-20.566-.042-41.066.458-61.5 1.5-2.405-.745-4.572-.078-6.5 2-1.481 1.444-1.148 2.11 1 2 .667 0 1 .333 1 1a51.647 51.647 0 01-7-1 693.472 693.472 0 004-7c0-.667.333-1 1-1 1.447 1.385 2.447 1.052 3-1z"/><path fill="#465a46" d="M37.5 8.5c10.021-.13 20.021.204 30 1v2h-1c-12.47-2.244-25.136-2.577-38-1v-1a29.223 29.223 0 019-1z"/><path fill="#4e4f4e" d="M6.5 9.5c2.306.493 4.639.826 7 1a21.445 21.445 0 007 1c2.107.968 4.44 1.302 7 1 1.051.722 1.718 1.722 2 3v1c-.667 0-1 .333-1 1-8.994-.466-17.994-.8-27-1a18.436 18.436 0 01.5-6c1.356-.88 2.856-1.214 4.5-1z"/><path fill="#71776a" d="M28.5 9.5v1l-1 2c-2.56.302-4.893-.032-7-1 2.549.059 4.549-.941 6-3 .683.363 1.35.696 2 1z"/><path fill="#74796a" d="M70.5 11.5c-1 1.333-2 1.333-3 0v-2c.709-.904 1.709-1.237 3-1v3z"/><path fill="#7db080" d="M66.5 11.5h-6v4h-31c-.282-1.278-.949-2.278-2-3l1-2c12.864-1.577 25.53-1.244 38 1z"/><path fill="#9cc79d" d="M66.5 11.5h1c1 1.333 2 1.333 3 0h1a153.526 153.526 0 0120 4.5c9.117 4.455 16.283 10.955 21.5 19.5a58.045 58.045 0 012.5 19c-1.644.214-3.144-.12-4.5-1-.575-18.25-9.741-29.75-27.5-34.5a108.543 108.543 0 00-22-1.5c.172-.992-.162-1.658-1-2v-4h6z"/><path fill="#666766" d="M1.5 16.5c9.006.2 18.006.534 27 1-.11.617-.444 1.117-1 1.5a90.547 90.547 0 01-13 2.5c-1.791-.134-3.458.2-5 1h-1c-5.431 1.406-7.765-.594-7-6z"/><path fill="#b6cec7" d="M29.5 15.5h31c.838.342 1.172 1.008 1 2h-32v-2z"/><path fill="#859e86" d="M110.5 14.5c2 1.333 3.667 3 5 5v2l-3-2-3-4c.667 0 1-.333 1-1z" opacity=".5"/><path fill="#c2d2c1" d="M115.5 19.5c1.762.762 2.762 2.096 3 4-1.527.073-2.527-.594-3-2v-2z" opacity=".145"/><path fill="#b3b5b3" d="M10.5 2.5a693.472 693.472 0 01-4 7c-1.644-.214-3.144.12-4.5 1a18.436 18.436 0 00-.5 6c-.765 5.406 1.569 7.406 7 6v2a24.939 24.939 0 01-7-.5c-.566-.995-1.233-1.828-2-2.5v-11c4.225-1.954 7.892-4.62 11-8z" opacity=".333"/><path fill="#638f63" d="M29.5 16.5v4c-4.82.226-4.987.559-.5 1a339.22 339.22 0 0120.5 0c-.11.617-.444 1.117-1 1.5a306.485 306.485 0 01-35 0c.556-.383.89-.883 1-1.5a90.547 90.547 0 0013-2.5c.556-.383.89-.883 1-1.5 0-.667.333-1 1-1z"/><path fill="#568056" d="M14.5 21.5c-.11.617-.444 1.117-1 1.5 11.667.667 23.333.667 35 0 .556-.383.89-.883 1-1.5.667 0 1 .333 1 1v4h-17c-6.675.166-13.342 0-20-.5-1.824-.66-3.157-1.827-4-3.5 1.542-.8 3.209-1.134 5-1z"/><path fill="#bca38f" d="M64.5 21.5v59h-13c.285-1.915-.049-3.581-1-5v-53a53.788 53.788 0 0114-1z"/><path fill="#608b60" d="M101.5 61.5c3.39-8.889 2.39-17.222-3-25-5.815-6.007-12.815-9.007-21-9a46.797 46.797 0 01-13-1v-5c19.465-2.69 33.299 4.643 41.5 22 1.783 5.123 1.616 10.123-.5 15-1.069 1.41-2.403 2.41-4 3z"/><path fill="#afc0b0" d="M8.5 22.5h1c.843 1.673 2.176 2.84 4 3.5 6.658.5 13.325.666 20 .5v2h-2c-6.01.166-12.01 0-18-.5-2.084-.697-3.751-1.864-5-3.5v-2z" opacity=".082"/><path fill="#bccbbc" d="M119.5 24.5c3.686 5.048 6.02 10.715 7 17l-8-16c.124-.607.457-.94 1-1z" opacity=".094"/><path fill="#817878" d="M33.5 26.5h2v49h-2v-49z"/><path fill="#504745" d="M35.5 26.5h15v49h-15v-49z"/><path fill="#584e4d" d="M37.5 32.5h11v37h-11v-37z"/><path fill="#e5e5e2" d="M31.5 28.5h2v46h-19c5.475-.989 11.142-1.322 17-1v-45z" opacity=".639"/><path fill="#4c4441" d="M64.5 26.5a46.797 46.797 0 0013 1c5.61 1.635 10.943 4.135 16 7.5 10.007 12.01 9.341 23.177-2 33.5-8.21 4.98-17.21 7.314-27 7v-1c.934-1.068 1.268-2.401 1-4 11.42.365 20.92-3.635 28.5-12 2.377-6.608 1.544-12.775-2.5-18.5a94.135 94.135 0 00-9-6 163.44 163.44 0 01-9.5-1.5c-2.923.295-5.257 1.629-7 4-.183-2.865-.683-5.531-1.5-8v-2z"/><path fill="#594f4e" d="M64.5 28.5c.817 2.469 1.317 5.135 1.5 8 1.743-2.371 4.077-3.705 7-4a163.44 163.44 0 009.5 1.5 94.135 94.135 0 019 6c4.044 5.725 4.877 11.892 2.5 18.5-7.58 8.365-17.08 12.365-28.5 12 .268 1.599-.066 2.932-1 4v-46z"/><path fill="#605655" d="M83.5 41.5c7.27-.464 10.104 2.87 8.5 10-.739 1.074-1.739 1.74-3 2-2.428-.76-4.26-2.26-5.5-4.5-.832-.688-1.498-.521-2 .5 1.893 2.452 3.226 5.12 4 8-6.376-.905-8.876-4.572-7.5-11a37.852 37.852 0 015.5-5z"/><path fill="#7aac7a" d="M119.5 43.5c1.058 9.863-.609 19.196-5 28a87.658 87.658 0 00-10 12c-10.075 7.201-21.075 10.201-33 9 9.574-1.244 18.907-4.077 28-8.5 1.641-1.129 2.641-2.629 3-4.5 1.871-.359 3.371-1.359 4.5-3 .552-2.547 1.886-4.547 4-6 .986-2.425.319-4.091-2-5a37.688 37.688 0 00-9.5 9.5 31.904 31.904 0 01-6 3.5c-2.18-.216-3.847.617-5 2.5-3.67.548-7.337 1.048-11 1.5.12-1.086.787-1.753 2-2a100.719 100.719 0 018-1.5 25.56 25.56 0 019-5.5 16.066 16.066 0 002-5 19.507 19.507 0 003-7c1.597-.59 2.931-1.59 4-3 2.116-4.877 2.283-9.877.5-15-8.201-17.357-22.035-24.69-41.5-22a53.788 53.788 0 00-14 1c0-.667-.333-1-1-1a339.22 339.22 0 00-20.5 0c-4.487-.441-4.32-.774.5-1v-3h32c7.388-.247 14.721.253 22 1.5 17.759 4.75 26.925 16.25 27.5 34.5 1.356.88 2.856 1.214 4.5 1a58.045 58.045 0 00-2.5-19c-5.217-8.545-12.383-15.045-21.5-19.5a153.526 153.526 0 00-20-4.5v-3c16.85.714 30.35 7.714 40.5 21 2.944 4.215 4.111 8.882 3.5 14h4z"/><path fill="#59825a" d="M77.5 27.5c8.185-.007 15.185 2.993 21 9 5.39 7.778 6.39 16.111 3 25a19.507 19.507 0 01-3 7c-9.625 8.463-20.959 12.463-34 12v-4c10.09 1.709 19.423-.124 28-5.5-.752-.67-1.086-1.504-1-2.5 11.341-10.323 12.007-21.49 2-33.5-5.057-3.365-10.39-5.865-16-7.5z"/><path fill="#c0cfbf" d="M126.5 42.5h1v17c-1.529 8.392-5.196 15.726-11 22h-2c9.017-11.388 13.017-24.388 12-39z" opacity=".075"/><path fill="#598159" d="M112.5 19.5l3 2c.473 1.406 1.473 2.073 3 2 .667 0 1 .333 1 1-.543.06-.876.393-1 1l8 16v1c1.017 14.612-2.983 27.612-12 39-1.333 2-3 3.667-5 5a66.1 66.1 0 01-13 8.5 330.427 330.427 0 00-19 6.5h-2c-2.448-.973-5.115-1.306-8-1h-51c-4.82-.821-8.153-3.488-10-8 1.419-.951 3.085-1.284 5-1a30.943 30.943 0 01-2 2 14.974 14.974 0 013 3.5 738.09 738.09 0 0071-1 113.343 113.343 0 0014-5 140.139 140.139 0 0112-7.5c.886-.825 1.219-1.825 1-3h3a78.855 78.855 0 017.5-15 131.505 131.505 0 001.5-22h-3c.221-1.235.888-2.235 2-3a205.502 205.502 0 00-9-21z"/><path fill="#517951" d="M91.5 68.5c-.086.996.248 1.83 1 2.5-8.577 5.376-17.91 7.209-28 5.5v-1c9.79.314 18.79-2.02 27-7z"/><path fill="#ced9ce" d="M14.5 74.5h19v1a180.95 180.95 0 00-19 .5c-1.952.366-3.618 1.2-5 2.5-.667 0-1-.333-1-1 1.411-2.039 3.411-3.039 6-3z" opacity=".847"/><path fill="#e8e7ec" d="M3.5 77.5c1-1.333 2-1.333 3 0-.667 0-1 .333-1 1h-1c0-.667-.333-1-1-1z" opacity=".021"/><path fill="#9dc79d" d="M102.5 79.5a3682.958 3682.958 0 01-9 5.5 8.434 8.434 0 01-4 .5c-.313-3.337 1.02-5.67 4-7a31.904 31.904 0 006-3.5 37.688 37.688 0 019.5-9.5c2.319.909 2.986 2.575 2 5-2.114 1.453-3.448 3.453-4 6-1.129 1.641-2.629 2.641-4.5 3z"/><path fill="#909191" d="M5.5 78.5c0-.667.333-1 1-1h2c0 .667.333 1 1 1v1c-1.459.067-2.792-.266-4-1z" opacity=".918"/><path fill="#5a835a" d="M33.5 75.5h17v4c-10.514-.328-20.847.006-31 1a76.94 76.94 0 01-10-1v-1c1.382-1.3 3.048-2.134 5-2.5a180.95 180.95 0 0119-.5z"/><path fill="#4e4f4e" d="M4.5 78.5h1c1.208.734 2.541 1.067 4 1 3.307.55 6.64.884 10 1 3.439.52 6.772 1.52 10 3v3h-1c-8.994-.466-17.994-.8-27-1-.592-3.13.408-5.464 3-7z"/><path fill="#6d9c6d" d="M98.5 68.5a16.066 16.066 0 01-2 5 25.56 25.56 0 00-9 5.5c-2.688.392-5.355.892-8 1.5-1.213.247-1.88.914-2 2a576.578 576.578 0 00-48 1 37.206 37.206 0 00-10-3c10.153-.994 20.486-1.328 31-1v-4c.951 1.419 1.285 3.085 1 5h13c13.041.463 24.375-3.537 34-12z"/><path fill="#80b481" d="M93.5 78.5c-2.98 1.33-4.313 3.663-4 7a8.434 8.434 0 004-.5c3.028-1.844 6.028-3.678 9-5.5-.359 1.871-1.359 3.371-3 4.5-9.093 4.423-18.426 7.256-28 8.5 0-.667-.333-1-1-1-13.333.237-27 .237-41 0 1.062-1.6 1.062-3.266 0-5 42.667-.667 42.667-1.333 0-2v-1a576.578 576.578 0 0148-1c3.663-.452 7.33-.952 11-1.5 1.153-1.883 2.82-2.716 5-2.5z"/><path fill="#649164" d="M119.5 43.5h3a131.505 131.505 0 01-1.5 22 78.855 78.855 0 00-7.5 15h-3c.219 1.175-.114 2.175-1 3a140.139 140.139 0 00-12 7.5 113.343 113.343 0 01-14 5 738.09 738.09 0 01-71 1 14.974 14.974 0 00-3-3.5 30.943 30.943 0 002-2h1c-.363 2.412.637 3.912 3 4.5l7.5.5c12.872-.165 25.372-1.165 37.5-3 3.38-.04 6.714.293 10 1v-3c.667 0 1 .333 1 1 11.925 1.201 22.925-1.799 33-9a87.658 87.658 0 0110-12c4.391-8.804 6.058-18.137 5-28z"/><path fill="#a6a6a6" d="M3.5 77.5c.667 0 1 .333 1 1-2.592 1.536-3.592 3.87-3 7v2h-2v-8c1.105-1.1 2.438-1.767 4-2z" opacity=".918"/><path fill="#b5cbca" d="M29.5 84.5c42.667.667 42.667 1.333 0 2v-2z"/><path fill="#e0eae0" d="M114.5 81.5h2c-1.333 3.333-3.667 5.667-7 7v-2c2-1.333 3.667-3 5-5z" opacity=".145"/><path fill="#676767" d="M1.5 85.5c9.006.2 18.006.534 27 1 .086.996-.248 1.83-1 2.5a92.494 92.494 0 00-15 2.5h-1c-1.915-.284-3.581.049-5 1-4 .667-5.667-1-5-5v-2z"/><path fill="#516550" d="M29.5 91.5c14 .237 27.667.237 41 0v3a44.834 44.834 0 00-10-1h-36v-3c1.716.129 3.383.462 5 1z"/><path fill="#bdcdbd" d="M109.5 86.5v2c-9.125 7.827-19.791 12.16-32 13a330.427 330.427 0 0119-6.5 66.1 66.1 0 0013-8.5z" opacity=".075"/><path fill="#6d9d6e" d="M28.5 86.5h1c1.062 1.734 1.062 3.4 0 5a20.677 20.677 0 00-5-1v3h36c-12.128 1.835-24.628 2.835-37.5 3l-7.5-.5c-2.363-.588-3.363-2.088-3-4.5a92.494 92.494 0 0115-2.5c.752-.67 1.086-1.504 1-2.5z"/><path fill="#c2cbc3" d="M-.5 87.5h2c-.667 4 1 5.667 5 5 1.847 4.512 5.18 7.179 10 8v2h-3c-4.673-3.675-9.34-7.341-14-11v-4z" opacity=".075"/><path fill="#a9bfaa" d="M16.5 100.5h51v2h-51v-2z" opacity=".082"/><path fill="#ccd7ce" d="M67.5 100.5c2.885-.306 5.552.027 8 1v1h-8v-2z" opacity=".082"/></svg>
