<?xml version="1.0" encoding="UTF-8"?>
<!DOCTYPE svg PUBLIC "-//W3C//DTD SVG 1.1//EN" "http://www.w3.org/Graphics/SVG/1.1/DTD/svg11.dtd">
<svg xmlns="http://www.w3.org/2000/svg" version="1.1" width="98px" height="100px" style="shape-rendering:geometricPrecision; text-rendering:geometricPrecision; image-rendering:optimizeQuality; fill-rule:evenodd; clip-rule:evenodd" xmlns:xlink="http://www.w3.org/1999/xlink">
<g><path style="opacity:0.918" fill="#a2a5a4" d="M -0.5,-0.5 C 12.1667,-0.5 24.8333,-0.5 37.5,-0.5C 37.8333,0.166667 38.1667,0.833333 38.5,1.5C 25.5,1.5 12.5,1.5 -0.5,1.5C -0.5,0.833333 -0.5,0.166667 -0.5,-0.5 Z"/></g>
<g><path style="opacity:0.867" fill="#d4d4d5" d="M 37.5,-0.5 C 39.5,-0.5 41.5,-0.5 43.5,-0.5C 43.5,-0.166667 43.5,0.166667 43.5,0.5C 42.0813,1.45115 40.4147,1.78448 38.5,1.5C 38.1667,0.833333 37.8333,0.166667 37.5,-0.5 Z"/></g>
<g><path style="opacity:0.918" fill="#b4b3b4" d="M 46.5,0.5 C 48.4147,0.215521 50.0813,0.548855 51.5,1.5C 50.9032,2.13863 50.0698,2.47196 49,2.5C 47.6244,2.31577 46.7911,1.64911 46.5,0.5 Z"/></g>
<g><path style="opacity:1" fill="#ccccd9" d="M -0.5,4.5 C 7.16667,4.5 14.8333,4.5 22.5,4.5C 22.5,6.83333 22.5,9.16667 22.5,11.5C 14.8333,11.5 7.16667,11.5 -0.5,11.5C -0.5,9.16667 -0.5,6.83333 -0.5,4.5 Z"/></g>
<g><path style="opacity:1" fill="#6d6d71" d="M 43.5,0.5 C 44.5,0.5 45.5,0.5 46.5,0.5C 46.7911,1.64911 47.6244,2.31577 49,2.5C 50.0698,2.47196 50.9032,2.13863 51.5,1.5C 51.8333,1.5 52.1667,1.5 52.5,1.5C 52.7911,2.64911 53.6244,3.31577 55,3.5C 65.8602,5.50623 76.3602,8.67289 86.5,13C 90.2748,14.6114 93.2748,17.1114 95.5,20.5C 95.1667,20.5 94.8333,20.5 94.5,20.5C 94.1667,20.5 93.8333,20.5 93.5,20.5C 86.9537,15.3914 79.6204,11.558 71.5,9C 47.8665,3.04095 23.8665,0.874283 -0.5,2.5C -0.5,2.16667 -0.5,1.83333 -0.5,1.5C 12.5,1.5 25.5,1.5 38.5,1.5C 40.4147,1.78448 42.0813,1.45115 43.5,0.5 Z"/></g>
<g><path style="opacity:1" fill="#b0aeb8" d="M 22.5,4.5 C 28.358,4.1778 34.0247,4.51114 39.5,5.5C 34.1667,5.5 28.8333,5.5 23.5,5.5C 23.5,7.83333 23.5,10.1667 23.5,12.5C 15.5,12.5 7.5,12.5 -0.5,12.5C -0.5,12.1667 -0.5,11.8333 -0.5,11.5C 7.16667,11.5 14.8333,11.5 22.5,11.5C 22.5,9.16667 22.5,6.83333 22.5,4.5 Z"/></g>
<g><path style="opacity:1" fill="#8a848a" d="M 91.5,21.5 C 92.4916,21.6716 93.1583,21.3382 93.5,20.5C 93.8333,20.5 94.1667,20.5 94.5,20.5C 94.5,21.5 94.5,22.5 94.5,23.5C 93.5269,25.9479 93.1936,28.6146 93.5,31.5C 92.3951,30.3995 91.0618,29.7329 89.5,29.5C 86.5,29.5 83.5,29.5 80.5,29.5C 80.5,27.8333 80.5,26.1667 80.5,24.5C 72.5174,20.7108 63.5174,17.8775 53.5,16C 43.0326,14.9939 32.6992,14.1606 22.5,13.5C 23.8734,13.6567 25.2068,13.49 26.5,13C 24.8078,11.5993 24.1412,9.76595 24.5,7.5C 47.8174,6.59328 69.6508,11.5933 90,22.5C 90.3826,21.944 90.8826,21.6107 91.5,21.5 Z"/></g>
<g><path style="opacity:1" fill="#c3d0dc" d="M -0.5,2.5 C 23.8665,0.874283 47.8665,3.04095 71.5,9C 79.6204,11.558 86.9537,15.3914 93.5,20.5C 93.1583,21.3382 92.4916,21.6716 91.5,21.5C 89.4223,18.9493 86.7556,17.116 83.5,16C 69.4792,9.76277 54.8125,6.26277 39.5,5.5C 34.0247,4.51114 28.358,4.1778 22.5,4.5C 14.8333,4.5 7.16667,4.5 -0.5,4.5C -0.5,3.83333 -0.5,3.16667 -0.5,2.5 Z"/></g>
<g><path style="opacity:1" fill="#979196" d="M -0.5,13.5 C 7.16667,13.5 14.8333,13.5 22.5,13.5C 32.6992,14.1606 43.0326,14.9939 53.5,16C 63.5174,17.8775 72.5174,20.7108 80.5,24.5C 79.5312,34.6008 79.1979,44.2674 79.5,53.5C 77.8049,54.8264 76.4716,54.4931 75.5,52.5C 69.8333,52.5 64.1667,52.5 58.5,52.5C 56.3926,51.5318 54.0593,51.1984 51.5,51.5C 51.5,48.5 51.5,45.5 51.5,42.5C 64.447,42.7543 64.7804,41.0877 52.5,37.5C 54.9716,34.8852 56.6382,31.8852 57.5,28.5C 63.5368,28.8293 69.5368,28.4959 75.5,27.5C 50.1754,26.5002 24.8421,26.1669 -0.5,26.5C -0.5,22.1667 -0.5,17.8333 -0.5,13.5 Z"/></g>
<g><path style="opacity:1" fill="#827c84" d="M 39.5,5.5 C 54.8125,6.26277 69.4792,9.76277 83.5,16C 86.7556,17.116 89.4223,18.9493 91.5,21.5C 90.8826,21.6107 90.3826,21.944 90,22.5C 69.6508,11.5933 47.8174,6.59328 24.5,7.5C 24.1412,9.76595 24.8078,11.5993 26.5,13C 25.2068,13.49 23.8734,13.6567 22.5,13.5C 14.8333,13.5 7.16667,13.5 -0.5,13.5C -0.5,13.1667 -0.5,12.8333 -0.5,12.5C 7.5,12.5 15.5,12.5 23.5,12.5C 23.5,10.1667 23.5,7.83333 23.5,5.5C 28.8333,5.5 34.1667,5.5 39.5,5.5 Z"/></g>
<g><path style="opacity:0.918" fill="#c0bfc0" d="M 52.5,1.5 C 67.1441,3.10366 80.8107,7.60366 93.5,15C 95.0703,16.3968 96.4036,17.8968 97.5,19.5C 97.5,39.5 97.5,59.5 97.5,79.5C 96.1149,81.8835 94.1149,83.5501 91.5,84.5C 91.5,83.8333 91.5,83.1667 91.5,82.5C 92.7942,81.7101 93.9609,80.7101 95,79.5C 95.5,59.8362 95.6666,40.1695 95.5,20.5C 93.2748,17.1114 90.2748,14.6114 86.5,13C 76.3602,8.67289 65.8602,5.50623 55,3.5C 53.6244,3.31577 52.7911,2.64911 52.5,1.5 Z"/></g>
<g><path style="opacity:1" fill="#b5a58a" d="M -0.5,26.5 C 24.8421,26.1669 50.1754,26.5002 75.5,27.5C 69.5368,28.4959 63.5368,28.8293 57.5,28.5C 38.1667,28.5 18.8333,28.5 -0.5,28.5C -0.5,27.8333 -0.5,27.1667 -0.5,26.5 Z"/></g>
<g><path style="opacity:1" fill="#626164" d="M 94.5,20.5 C 94.8333,20.5 95.1667,20.5 95.5,20.5C 95.6666,40.1695 95.5,59.8362 95,79.5C 93.9609,80.7101 92.7942,81.7101 91.5,82.5C 90.609,83.1098 89.609,83.4431 88.5,83.5C 90.3603,82.0613 92.027,80.3947 93.5,78.5C 94.4968,60.3409 94.8302,42.0076 94.5,23.5C 94.5,22.5 94.5,21.5 94.5,20.5 Z"/></g>
<g><path style="opacity:1" fill="#969195" d="M 89.5,29.5 C 91.0618,29.7329 92.3951,30.3995 93.5,31.5C 93.5,44.1667 93.5,56.8333 93.5,69.5C 91.9731,69.427 90.9731,70.0937 90.5,71.5C 89.5042,57.6766 89.1709,43.6766 89.5,29.5 Z"/></g>
<g><path style="opacity:1" fill="#979296" d="M -0.5,28.5 C 18.8333,28.5 38.1667,28.5 57.5,28.5C 56.6382,31.8852 54.9716,34.8852 52.5,37.5C 64.7804,41.0877 64.447,42.7543 51.5,42.5C 51.5,45.5 51.5,48.5 51.5,51.5C 54.0593,51.1984 56.3926,51.5318 58.5,52.5C 38.8333,52.5 19.1667,52.5 -0.5,52.5C -0.5,44.5 -0.5,36.5 -0.5,28.5 Z"/></g>
<g><path style="opacity:1" fill="#8a8689" d="M 80.5,24.5 C 80.5,26.1667 80.5,27.8333 80.5,29.5C 83.5,29.5 86.5,29.5 89.5,29.5C 89.1709,43.6766 89.5042,57.6766 90.5,71.5C 89.3646,73.2132 87.698,73.8799 85.5,73.5C 83.5,73.5 81.5,73.5 79.5,73.5C 79.5,71.8333 79.5,70.1667 79.5,68.5C 79.5,63.5 79.5,58.5 79.5,53.5C 79.1979,44.2674 79.5312,34.6008 80.5,24.5 Z"/></g>
<g><path style="opacity:1" fill="#b4a488" d="M -0.5,52.5 C 19.1667,52.5 38.8333,52.5 58.5,52.5C 64.1667,52.5 69.8333,52.5 75.5,52.5C 50.522,54.4907 25.1887,55.1574 -0.5,54.5C -0.5,53.8333 -0.5,53.1667 -0.5,52.5 Z"/></g>
<g><path style="opacity:1" fill="#979295" d="M 75.5,52.5 C 76.4716,54.4931 77.8049,54.8264 79.5,53.5C 79.5,58.5 79.5,63.5 79.5,68.5C 77.4086,68.3184 75.4086,68.6518 73.5,69.5C 72.6919,69.1924 72.0253,68.6924 71.5,68C 78.1667,67.3333 78.1667,66.6667 71.5,66C 47.5023,65.5 23.5023,65.3334 -0.5,65.5C -0.5,61.8333 -0.5,58.1667 -0.5,54.5C 25.1887,55.1574 50.522,54.4907 75.5,52.5 Z"/></g>
<g><path style="opacity:1" fill="#979196" d="M -0.5,65.5 C 23.5023,65.3334 47.5023,65.5 71.5,66C 78.1667,66.6667 78.1667,67.3333 71.5,68C 72.0253,68.6924 72.6919,69.1924 73.5,69.5C 75.4086,68.6518 77.4086,68.3184 79.5,68.5C 79.5,70.1667 79.5,71.8333 79.5,73.5C 81.5,73.5 83.5,73.5 85.5,73.5C 73.6181,79.1485 60.9515,82.9818 47.5,85C 31.5035,85.4999 15.5035,85.6666 -0.5,85.5C -0.5,81.1667 -0.5,76.8333 -0.5,72.5C 24.8355,72.6666 50.1689,72.5 75.5,72C 50.3157,70.51 24.9823,70.01 -0.5,70.5C -0.5,68.8333 -0.5,67.1667 -0.5,65.5 Z"/></g>
<g><path style="opacity:1" fill="#bda984" d="M -0.5,70.5 C 24.9823,70.01 50.3157,70.51 75.5,72C 50.1689,72.5 24.8355,72.6666 -0.5,72.5C -0.5,71.8333 -0.5,71.1667 -0.5,70.5 Z"/></g>
<g><path style="opacity:1" fill="#8b848b" d="M 93.5,69.5 C 93.7394,71.4672 93.4061,73.3005 92.5,75C 79.5447,82.6067 65.5447,87.6067 50.5,90C 33.53,91.3367 16.53,91.8367 -0.5,91.5C -0.5,89.5 -0.5,87.5 -0.5,85.5C 15.5035,85.6666 31.5035,85.4999 47.5,85C 60.9515,82.9818 73.6181,79.1485 85.5,73.5C 87.698,73.8799 89.3646,73.2132 90.5,71.5C 90.9731,70.0937 91.9731,69.427 93.5,69.5 Z"/></g>
<g><path style="opacity:1" fill="#c7d5e1" d="M 93.5,78.5 C 92.027,80.3947 90.3603,82.0613 88.5,83.5C 59.9789,94.9423 30.3122,99.2756 -0.5,96.5C -0.5,95.8333 -0.5,95.1667 -0.5,94.5C 27.6765,97.0615 55.0099,93.5615 81.5,84C 85.5766,82.2131 89.41,80.0464 93,77.5C 93.3988,77.7284 93.5654,78.0618 93.5,78.5 Z"/></g>
<g><path style="opacity:1" fill="#847e85" d="M 94.5,23.5 C 94.8302,42.0076 94.4968,60.3409 93.5,78.5C 93.5654,78.0618 93.3988,77.7284 93,77.5C 89.41,80.0464 85.5766,82.2131 81.5,84C 55.0099,93.5615 27.6765,97.0615 -0.5,94.5C -0.5,93.5 -0.5,92.5 -0.5,91.5C 16.53,91.8367 33.53,91.3367 50.5,90C 65.5447,87.6067 79.5447,82.6067 92.5,75C 93.4061,73.3005 93.7394,71.4672 93.5,69.5C 93.5,56.8333 93.5,44.1667 93.5,31.5C 93.1936,28.6146 93.5269,25.9479 94.5,23.5 Z"/></g>
<g><path style="opacity:0.075" fill="#c9c9c9" d="M 90.5,85.5 C 79.3262,91.6691 67.3262,95.6691 54.5,97.5C 54.62,96.4138 55.2867,95.7472 56.5,95.5C 67.8518,93.3272 78.6852,89.6606 89,84.5C 89.7648,84.5699 90.2648,84.9033 90.5,85.5 Z"/></g>
<g><path style="opacity:0.925" fill="#6e6f73" d="M 91.5,82.5 C 91.5,83.1667 91.5,83.8333 91.5,84.5C 91.5,85.1667 91.1667,85.5 90.5,85.5C 90.2648,84.9033 89.7648,84.5699 89,84.5C 78.6852,89.6606 67.8518,93.3272 56.5,95.5C 55.2867,95.7472 54.62,96.4138 54.5,97.5C 53.8333,97.5 53.1667,97.5 52.5,97.5C 50.2736,95.82 48.6069,96.1534 47.5,98.5C 46.5,98.5 45.5,98.5 44.5,98.5C 43.0813,97.5489 41.4147,97.2155 39.5,97.5C 26.1667,97.5 12.8333,97.5 -0.5,97.5C -0.5,97.1667 -0.5,96.8333 -0.5,96.5C 30.3122,99.2756 59.9789,94.9423 88.5,83.5C 89.609,83.4431 90.609,83.1098 91.5,82.5 Z"/></g>
<g><path style="opacity:0.024" fill="#d4d4d4" d="M 52.5,97.5 C 51.0813,98.4511 49.4147,98.7845 47.5,98.5C 48.6069,96.1534 50.2736,95.82 52.5,97.5 Z"/></g>
<g><path style="opacity:0.082" fill="#969597" d="M -0.5,97.5 C 12.8333,97.5 26.1667,97.5 39.5,97.5C 39.5,98.1667 39.5,98.8333 39.5,99.5C 26.1667,99.5 12.8333,99.5 -0.5,99.5C -0.5,98.8333 -0.5,98.1667 -0.5,97.5 Z"/></g>
<g><path style="opacity:0.082" fill="#d0d0d0" d="M 39.5,97.5 C 41.4147,97.2155 43.0813,97.5489 44.5,98.5C 44.5,98.8333 44.5,99.1667 44.5,99.5C 42.8333,99.5 41.1667,99.5 39.5,99.5C 39.5,98.8333 39.5,98.1667 39.5,97.5 Z"/></g>
</svg>
