<?xml version="1.0" encoding="UTF-8"?>
<!DOCTYPE svg PUBLIC "-//W3C//DTD SVG 1.1//EN" "http://www.w3.org/Graphics/SVG/1.1/DTD/svg11.dtd">
<svg xmlns="http://www.w3.org/2000/svg" version="1.1" width="100px" height="100px" style="shape-rendering:geometricPrecision; text-rendering:geometricPrecision; image-rendering:optimizeQuality; fill-rule:evenodd; clip-rule:evenodd" xmlns:xlink="http://www.w3.org/1999/xlink">
<g><path style="opacity:0.145" fill="#e1e6ea" d="M 95.5,3.5 C 94.8166,5.17649 93.4832,5.84316 91.5,5.5C 91.5,5.16667 91.5,4.83333 91.5,4.5C 92.5676,3.56552 93.901,3.23219 95.5,3.5 Z"/></g>
<g><path style="opacity:0.5" fill="#c9d0d8" d="M 95.5,3.5 C 96.8333,3.5 98.1667,3.5 99.5,3.5C 99.5,4.83333 99.5,6.16667 99.5,7.5C 96.8333,7.5 94.1667,7.5 91.5,7.5C 91.5,6.83333 91.5,6.16667 91.5,5.5C 93.4832,5.84316 94.8166,5.17649 95.5,3.5 Z"/></g>
<g><path style="opacity:0.055" fill="#b6c0ca" d="M 74.5,5.5 C 76.1667,5.5 77.8333,5.5 79.5,5.5C 79.5,6.5 79.5,7.5 79.5,8.5C 78.8333,8.5 78.5,8.83333 78.5,9.5C 74.8455,9.94225 71.1788,10.2756 67.5,10.5C 67.5,9.16667 67.5,7.83333 67.5,6.5C 68.5,6.5 69.5,6.5 70.5,6.5C 70.281,7.67504 70.6143,8.67504 71.5,9.5C 73.5499,8.9234 74.5499,7.59007 74.5,5.5 Z"/></g>
<g><path style="opacity:0.388" fill="#d2d7df" d="M 85.5,4.5 C 85.2671,6.06181 84.6005,7.39514 83.5,8.5C 82.1667,8.5 80.8333,8.5 79.5,8.5C 79.5,7.5 79.5,6.5 79.5,5.5C 81.2646,4.53862 83.2646,4.20528 85.5,4.5 Z"/></g>
<g><path style="opacity:0.024" fill="#d0d7e0" d="M 67.5,6.5 C 67.5,7.83333 67.5,9.16667 67.5,10.5C 67.1667,10.5 66.8333,10.5 66.5,10.5C 64.8212,10.7148 63.8212,10.0481 63.5,8.5C 64.287,6.89578 65.6203,6.22911 67.5,6.5 Z"/></g>
<g><path style="opacity:0.192" fill="#dce2e8" d="M 74.5,5.5 C 74.5499,7.59007 73.5499,8.9234 71.5,9.5C 70.6143,8.67504 70.281,7.67504 70.5,6.5C 71.5676,5.56552 72.901,5.23219 74.5,5.5 Z"/></g>
<g><path style="opacity:0.933" fill="#acb6c2" d="M 85.5,4.5 C 87.5,4.5 89.5,4.5 91.5,4.5C 91.5,4.83333 91.5,5.16667 91.5,5.5C 91.5,6.16667 91.5,6.83333 91.5,7.5C 88.9039,8.26535 86.2372,8.59868 83.5,8.5C 84.6005,7.39514 85.2671,6.06181 85.5,4.5 Z"/></g>
<g><path style="opacity:0.11" fill="#cbd2d8" d="M 61.5,8.5 C 61.5,9.5 61.5,10.5 61.5,11.5C 57.9849,12.239 54.6515,12.239 51.5,11.5C 51.6107,10.8826 51.944,10.3826 52.5,10C 55.4781,9.30404 58.4781,8.80404 61.5,8.5 Z"/></g>
<g><path style="opacity:0.655" fill="#abb6c2" d="M 61.5,8.5 C 62.1667,8.5 62.8333,8.5 63.5,8.5C 63.8212,10.0481 64.8212,10.7148 66.5,10.5C 65.0813,11.4511 63.4147,11.7845 61.5,11.5C 61.5,10.5 61.5,9.5 61.5,8.5 Z"/></g>
<g><path style="opacity:0.369" fill="#d6dce4" d="M 49.5,11.5 C 49.5,12.5 49.5,13.5 49.5,14.5C 48.1667,14.5 47.5,13.8333 47.5,12.5C 47.8417,11.6618 48.5084,11.3284 49.5,11.5 Z"/></g>
<g><path style="opacity:0.937" fill="#aab5c0" d="M 49.5,11.5 C 50.1667,11.5 50.8333,11.5 51.5,11.5C 54.6515,12.239 57.9849,12.239 61.5,11.5C 57.6754,12.8644 53.6754,13.8644 49.5,14.5C 49.5,13.5 49.5,12.5 49.5,11.5 Z"/></g>
<g><path style="opacity:0.945" fill="#a7b3bf" d="M 45.5,12.5 C 46.1667,12.5 46.8333,12.5 47.5,12.5C 47.5,13.8333 48.1667,14.5 49.5,14.5C 49.5,14.8333 49.5,15.1667 49.5,15.5C 48.1667,15.5 46.8333,15.5 45.5,15.5C 45.5,14.5 45.5,13.5 45.5,12.5 Z"/></g>
<g><path style="opacity:1" fill="#7d90a3" d="M 78.5,9.5 C 72.2524,12.335 65.5858,13.6684 58.5,13.5C 57.8413,16.4552 57.5079,19.4552 57.5,22.5C 55.6096,22.2965 54.1096,22.9632 53,24.5C 52.0797,27.1013 51.413,29.7679 51,32.5C 48.6236,29.9864 47.957,26.9864 49,23.5C 50.3563,21.1024 51.5229,18.6024 52.5,16C 51.552,15.5172 50.552,15.3505 49.5,15.5C 49.5,15.1667 49.5,14.8333 49.5,14.5C 53.6754,13.8644 57.6754,12.8644 61.5,11.5C 63.4147,11.7845 65.0813,11.4511 66.5,10.5C 66.8333,10.5 67.1667,10.5 67.5,10.5C 71.1788,10.2756 74.8455,9.94225 78.5,9.5 Z"/></g>
<g><path style="opacity:0.506" fill="#cad1d9" d="M 45.5,12.5 C 45.5,13.5 45.5,14.5 45.5,15.5C 44.8333,15.5 44.5,15.8333 44.5,16.5C 42.4727,16.3379 40.4727,16.5045 38.5,17C 37.944,17.3826 37.6107,17.8826 37.5,18.5C 35.5,18.8333 33.5,19.1667 31.5,19.5C 29.602,20.0965 27.9354,20.0965 26.5,19.5C 32.4367,16.3771 38.77,14.0438 45.5,12.5 Z"/></g>
<g><path style="opacity:0.91" fill="#98a5b4" d="M 44.5,16.5 C 42.3432,17.4067 40.0098,18.0733 37.5,18.5C 37.6107,17.8826 37.944,17.3826 38.5,17C 40.4727,16.5045 42.4727,16.3379 44.5,16.5 Z"/></g>
<g><path style="opacity:0.98" fill="#8f9dac" d="M 37.5,18.5 C 35.6051,20.2413 33.2718,21.2413 30.5,21.5C 30.8333,20.8333 31.1667,20.1667 31.5,19.5C 33.5,19.1667 35.5,18.8333 37.5,18.5 Z"/></g>
<g><path style="opacity:0.639" fill="#bdc6d0" d="M 26.5,19.5 C 27.9354,20.0965 29.602,20.0965 31.5,19.5C 31.1667,20.1667 30.8333,20.8333 30.5,21.5C 26.3038,22.785 22.3038,24.4517 18.5,26.5C 20.3742,24.8853 21.7075,22.8853 22.5,20.5C 23.7079,19.7659 25.0413,19.4326 26.5,19.5 Z"/></g>
<g><path style="opacity:1" fill="#758a9e" d="M 91.5,7.5 C 94.1667,7.5 96.8333,7.5 99.5,7.5C 99.5,12.1667 99.5,16.8333 99.5,21.5C 92.4307,21.4457 85.4307,22.1124 78.5,23.5C 75.4584,28.9277 72.4584,34.261 69.5,39.5C 67.5648,38.8505 65.5648,38.5172 63.5,38.5C 63.9225,34.2879 63.2558,30.2879 61.5,26.5C 57.9036,24.7209 55.4036,25.7209 54,29.5C 53.3333,33.1667 53.3333,36.8333 54,40.5C 56.0371,43.2258 58.5371,44.2258 61.5,43.5C 60.1336,47.613 60.467,51.613 62.5,55.5C 63.325,56.3857 64.325,56.719 65.5,56.5C 65.4519,53.6872 64.7853,51.0205 63.5,48.5C 63.9355,46.0034 65.2688,44.8367 67.5,45C 69.1742,46.5059 70.1742,48.3393 70.5,50.5C 70.5,51.5 70.5,52.5 70.5,53.5C 69.209,53.2627 68.209,53.596 67.5,54.5C 66.596,55.209 66.2627,56.209 66.5,57.5C 67.8333,57.5 69.1667,57.5 70.5,57.5C 70.9843,61.8274 70.3177,65.8274 68.5,69.5C 67.156,71.1849 67.3227,72.8516 69,74.5C 70.1882,73.4366 70.6882,72.1033 70.5,70.5C 70.81,69.2617 71.31,69.2617 72,70.5C 72.1922,68.4233 72.6922,66.4233 73.5,64.5C 75.1667,67.1667 76.8333,69.8333 78.5,72.5C 85.3942,74.1594 92.3942,74.826 99.5,74.5C 99.5,79.1667 99.5,83.8333 99.5,88.5C 94.5,88.5 89.5,88.5 84.5,88.5C 75.7927,87.4466 67.1261,86.1132 58.5,84.5C 55.7491,82.0255 52.4158,81.0255 48.5,81.5C 45.4021,81.2444 42.4021,80.5778 39.5,79.5C 33.1509,77.1045 26.8175,74.6045 20.5,72C 18.6763,71.34 17.343,70.1733 16.5,68.5C 16.4894,66.9826 15.8228,65.8159 14.5,65C 11.4177,63.5485 8.41767,62.0485 5.5,60.5C 3.08377,58.0922 1.08377,55.4256 -0.5,52.5C -0.5,49.5 -0.5,46.5 -0.5,43.5C 1.26321,40.9804 3.26321,38.6471 5.5,36.5C 7.90949,35.2993 9.90949,33.6326 11.5,31.5C 11.5,30.8333 11.8333,30.5 12.5,30.5C 14.2303,29.9744 15.5637,28.9744 16.5,27.5C 16.8417,26.6618 17.5084,26.3284 18.5,26.5C 22.3038,24.4517 26.3038,22.785 30.5,21.5C 33.2718,21.2413 35.6051,20.2413 37.5,18.5C 40.0098,18.0733 42.3432,17.4067 44.5,16.5C 44.5,15.8333 44.8333,15.5 45.5,15.5C 46.8333,15.5 48.1667,15.5 49.5,15.5C 50.552,15.3505 51.552,15.5172 52.5,16C 51.5229,18.6024 50.3563,21.1024 49,23.5C 47.957,26.9864 48.6236,29.9864 51,32.5C 51.413,29.7679 52.0797,27.1013 53,24.5C 54.1096,22.9632 55.6096,22.2965 57.5,22.5C 57.5079,19.4552 57.8413,16.4552 58.5,13.5C 65.5858,13.6684 72.2524,12.335 78.5,9.5C 78.5,8.83333 78.8333,8.5 79.5,8.5C 80.8333,8.5 82.1667,8.5 83.5,8.5C 86.2372,8.59868 88.9039,8.26535 91.5,7.5 Z"/></g>
<g><path style="opacity:1" fill="#91a4b5" d="M 67.5,22.5 C 68.5,22.5 69.5,22.5 70.5,22.5C 69.5,30.5 68.5,30.5 67.5,22.5 Z"/></g>
<g><path style="opacity:0.361" fill="#d1d7df" d="M 22.5,20.5 C 21.7075,22.8853 20.3742,24.8853 18.5,26.5C 17.5084,26.3284 16.8417,26.6618 16.5,27.5C 14.368,27.5544 13.0347,28.5544 12.5,30.5C 11.8333,30.5 11.5,30.8333 11.5,31.5C 9.68545,32.6298 7.68545,33.2964 5.5,33.5C 5.5,34.5 5.5,35.5 5.5,36.5C 3.26321,38.6471 1.26321,40.9804 -0.5,43.5C -0.5,41.8333 -0.5,40.1667 -0.5,38.5C 5.8194,30.833 13.4861,24.833 22.5,20.5 Z"/></g>
<g><path style="opacity:1" fill="#7c91a2" d="M 99.5,21.5 C 99.5,39.1667 99.5,56.8333 99.5,74.5C 92.3942,74.826 85.3942,74.1594 78.5,72.5C 76.8333,69.8333 75.1667,67.1667 73.5,64.5C 72.6922,66.4233 72.1922,68.4233 72,70.5C 71.31,69.2617 70.81,69.2617 70.5,70.5C 69.8333,70.1667 69.1667,69.8333 68.5,69.5C 70.3177,65.8274 70.9843,61.8274 70.5,57.5C 71.8333,57.5 73.1667,57.5 74.5,57.5C 74.5,56.5 74.5,55.5 74.5,54.5C 72.1667,54.5 69.8333,54.5 67.5,54.5C 68.209,53.596 69.209,53.2627 70.5,53.5C 70.5,52.5 70.5,51.5 70.5,50.5C 71.8009,49.1155 71.8009,47.6155 70.5,46C 71.3279,45.0853 72.3279,44.4186 73.5,44C 72.2625,43.7679 71.2625,43.2679 70.5,42.5C 71.9778,42.762 73.3112,42.4287 74.5,41.5C 72.9547,40.5481 71.288,40.2148 69.5,40.5C 69.5,40.1667 69.5,39.8333 69.5,39.5C 72.4584,34.261 75.4584,28.9277 78.5,23.5C 85.4307,22.1124 92.4307,21.4457 99.5,21.5 Z"/></g>
<g><path style="opacity:0.784" fill="#adb7c2" d="M 16.5,27.5 C 15.5637,28.9744 14.2303,29.9744 12.5,30.5C 13.0347,28.5544 14.368,27.5544 16.5,27.5 Z"/></g>
<g><path style="opacity:1" fill="#667a90" d="M 25.5,24.5 C 29.2253,24.7796 30.392,26.7796 29,30.5C 26.3729,33.2074 24.2062,33.0407 22.5,30C 23.3393,28.016 24.3393,26.1826 25.5,24.5 Z"/></g>
<g><path style="opacity:0.482" fill="#a2acbc" d="M 11.5,31.5 C 9.90949,33.6326 7.90949,35.2993 5.5,36.5C 5.5,35.5 5.5,34.5 5.5,33.5C 7.68545,33.2964 9.68545,32.6298 11.5,31.5 Z"/></g>
<g><path style="opacity:1" fill="#7b90a3" d="M 80.5,43.5 C 81.8333,42.1667 81.8333,40.8333 80.5,39.5C 79.6016,38.8423 78.6016,38.1757 77.5,37.5C 81.4283,34.3544 85.7616,33.8544 90.5,36C 92.0368,37.1096 92.7035,38.6096 92.5,40.5C 91.5,40.5 90.5,40.5 89.5,40.5C 89.5,45.8333 89.5,51.1667 89.5,56.5C 90.5,56.5 91.5,56.5 92.5,56.5C 91.7675,60.7868 89.1008,62.7868 84.5,62.5C 82.4878,62.1604 80.4878,61.8271 78.5,61.5C 78.5,60.5 78.5,59.5 78.5,58.5C 79.5,58.5 80.5,58.5 81.5,58.5C 81.4301,54.8107 80.4301,51.4774 78.5,48.5C 78.7245,46.5453 79.3911,44.8787 80.5,43.5 Z"/></g>
<g><path style="opacity:1" fill="#7a8fa2" d="M 69.5,39.5 C 69.5,39.8333 69.5,40.1667 69.5,40.5C 68.325,40.281 67.325,40.6143 66.5,41.5C 67.6888,42.4287 69.0222,42.762 70.5,42.5C 71.2625,43.2679 72.2625,43.7679 73.5,44C 72.3279,44.4186 71.3279,45.0853 70.5,46C 71.8009,47.6155 71.8009,49.1155 70.5,50.5C 70.1742,48.3393 69.1742,46.5059 67.5,45C 65.2688,44.8367 63.9355,46.0034 63.5,48.5C 64.7853,51.0205 65.4519,53.6872 65.5,56.5C 64.325,56.719 63.325,56.3857 62.5,55.5C 60.467,51.613 60.1336,47.613 61.5,43.5C 58.5371,44.2258 56.0371,43.2258 54,40.5C 53.3333,36.8333 53.3333,33.1667 54,29.5C 55.4036,25.7209 57.9036,24.7209 61.5,26.5C 63.2558,30.2879 63.9225,34.2879 63.5,38.5C 65.5648,38.5172 67.5648,38.8505 69.5,39.5 Z"/></g>
<g><path style="opacity:1" fill="#5d7388" d="M 76.5,39.5 C 77.8333,39.5 79.1667,39.5 80.5,39.5C 81.8333,40.8333 81.8333,42.1667 80.5,43.5C 79.1667,43.5 77.8333,43.5 76.5,43.5C 75.3143,42.0387 75.3143,40.7054 76.5,39.5 Z"/></g>
<g><path style="opacity:1" fill="#91a1b1" d="M 69.5,40.5 C 71.288,40.2148 72.9547,40.5481 74.5,41.5C 73.3112,42.4287 71.9778,42.762 70.5,42.5C 69.0222,42.762 67.6888,42.4287 66.5,41.5C 67.325,40.6143 68.325,40.281 69.5,40.5 Z"/></g>
<g><path style="opacity:1" fill="#909fb0" d="M 67.5,54.5 C 69.8333,54.5 72.1667,54.5 74.5,54.5C 74.5,55.5 74.5,56.5 74.5,57.5C 73.1667,57.5 71.8333,57.5 70.5,57.5C 69.1667,57.5 67.8333,57.5 66.5,57.5C 66.2627,56.209 66.596,55.209 67.5,54.5 Z"/></g>
<g><path style="opacity:0.173" fill="#c2cbd4" d="M -0.5,52.5 C 1.08377,55.4256 3.08377,58.0922 5.5,60.5C 5.83333,61.1667 6.16667,61.8333 6.5,62.5C 5.5,62.5 4.5,62.5 3.5,62.5C 1.92635,61.0158 0.593015,59.3492 -0.5,57.5C -0.5,55.8333 -0.5,54.1667 -0.5,52.5 Z"/></g>
<g><path style="opacity:1" fill="#6b8093" d="M 76.5,43.5 C 77.8333,43.5 79.1667,43.5 80.5,43.5C 79.3911,44.8787 78.7245,46.5453 78.5,48.5C 80.4301,51.4774 81.4301,54.8107 81.5,58.5C 80.5,58.5 79.5,58.5 78.5,58.5C 78.5,59.5 78.5,60.5 78.5,61.5C 80.4878,61.8271 82.4878,62.1604 84.5,62.5C 89.1008,62.7868 91.7675,60.7868 92.5,56.5C 91.5,56.5 90.5,56.5 89.5,56.5C 89.5,51.1667 89.5,45.8333 89.5,40.5C 90.5,40.5 91.5,40.5 92.5,40.5C 92.7035,38.6096 92.0368,37.1096 90.5,36C 85.7616,33.8544 81.4283,34.3544 77.5,37.5C 78.6016,38.1757 79.6016,38.8423 80.5,39.5C 79.1667,39.5 77.8333,39.5 76.5,39.5C 76.178,37.2776 76.8446,35.4443 78.5,34C 86.4126,30.3265 91.9126,32.4931 95,40.5C 98.2687,50.1239 96.102,58.2905 88.5,65C 80.405,66.6426 76.0717,63.4759 75.5,55.5C 76.3619,51.5474 76.6952,47.5474 76.5,43.5 Z"/></g>
<g><path style="opacity:1" fill="#7b90a4" d="M 90.5,42.5 C 91.8333,42.5 93.1667,42.5 94.5,42.5C 95.8333,46.5 95.8333,50.5 94.5,54.5C 93.1667,54.5 91.8333,54.5 90.5,54.5C 90.5,50.5 90.5,46.5 90.5,42.5 Z"/></g>
<g><path style="opacity:1" fill="#8192a4" d="M 5.5,60.5 C 8.41767,62.0485 11.4177,63.5485 14.5,65C 15.8228,65.8159 16.4894,66.9826 16.5,68.5C 12.827,66.9998 9.4937,64.9998 6.5,62.5C 6.16667,61.8333 5.83333,61.1667 5.5,60.5 Z"/></g>
<g><path style="opacity:1" fill="#95a8b8" d="M 68.5,69.5 C 69.1667,69.8333 69.8333,70.1667 70.5,70.5C 70.6882,72.1033 70.1882,73.4366 69,74.5C 67.3227,72.8516 67.156,71.1849 68.5,69.5 Z"/></g>
<g><path style="opacity:1" fill="#65798e" d="M 22.5,65.5 C 27.9313,64.0936 30.2647,66.0936 29.5,71.5C 25.1401,71.7145 22.8068,69.7145 22.5,65.5 Z"/></g>
<g><path style="opacity:0.004" fill="#c9d0d9" d="M 3.5,62.5 C 4.5,62.5 5.5,62.5 6.5,62.5C 9.4937,64.9998 12.827,66.9998 16.5,68.5C 17.343,70.1733 18.6763,71.34 20.5,72C 26.8175,74.6045 33.1509,77.1045 39.5,79.5C 40.2341,80.7079 40.5674,82.0413 40.5,83.5C 32.8921,81.396 25.5588,78.5626 18.5,75C 13.0597,71.2913 8.05969,67.1247 3.5,62.5 Z"/></g>
<g><path style="opacity:0.282" fill="#b5bec9" d="M 39.5,79.5 C 42.4021,80.5778 45.4021,81.2444 48.5,81.5C 49.9133,82.9348 51.58,83.9348 53.5,84.5C 52.209,84.2627 51.209,84.596 50.5,85.5C 49.8333,85.5 49.1667,85.5 48.5,85.5C 47.9473,83.4482 46.9473,83.1148 45.5,84.5C 44.8333,84.5 44.1667,84.5 43.5,84.5C 43.6547,81.1469 42.9881,80.8136 41.5,83.5C 41.1667,83.5 40.8333,83.5 40.5,83.5C 40.5674,82.0413 40.2341,80.7079 39.5,79.5 Z"/></g>
<g><path style="opacity:1" fill="#8b99aa" d="M 48.5,81.5 C 52.4158,81.0255 55.7491,82.0255 58.5,84.5C 57.1667,84.5 55.8333,84.5 54.5,84.5C 54.1667,84.5 53.8333,84.5 53.5,84.5C 51.58,83.9348 49.9133,82.9348 48.5,81.5 Z"/></g>
<g><path style="opacity:0.024" fill="#dfe3ec" d="M 43.5,84.5 C 42.5084,84.6716 41.8417,84.3382 41.5,83.5C 42.9881,80.8136 43.6547,81.1469 43.5,84.5 Z"/></g>
<g><path style="opacity:0.035" fill="#d8dee5" d="M 48.5,85.5 C 47.209,85.7373 46.209,85.404 45.5,84.5C 46.9473,83.1148 47.9473,83.4482 48.5,85.5 Z"/></g>
<g><path style="opacity:0.022" fill="#ccd1da" d="M 53.5,84.5 C 53.8333,84.5 54.1667,84.5 54.5,84.5C 54.5,85.5 54.5,86.5 54.5,87.5C 52.6203,87.7709 51.287,87.1042 50.5,85.5C 51.209,84.596 52.209,84.2627 53.5,84.5 Z"/></g>
<g><path style="opacity:0.047" fill="#d5dce3" d="M 58.5,88.5 C 57.391,88.4431 56.391,88.1098 55.5,87.5C 55.8212,85.9519 56.8212,85.2852 58.5,85.5C 58.5,86.5 58.5,87.5 58.5,88.5 Z"/></g>
<g><path style="opacity:0.02" fill="#dee2e7" d="M 64.5,89.5 C 63.209,89.7373 62.209,89.404 61.5,88.5C 61.8212,86.9519 62.8212,86.2852 64.5,86.5C 64.5,87.5 64.5,88.5 64.5,89.5 Z"/></g>
<g><path style="opacity:0.255" fill="#dbe1e9" d="M 70.5,87.5 C 71.1098,88.391 71.4431,89.391 71.5,90.5C 70.209,90.7373 69.209,90.404 68.5,89.5C 68.5,88.1667 69.1667,87.5 70.5,87.5 Z"/></g>
<g><path style="opacity:0.984" fill="#95a3b2" d="M 84.5,88.5 C 89.5,88.5 94.5,88.5 99.5,88.5C 99.5,89.8333 99.5,91.1667 99.5,92.5C 98.8333,92.5 98.1667,92.5 97.5,92.5C 97.1193,91.0689 96.1193,90.2355 94.5,90C 92.1902,89.5034 89.8568,89.3367 87.5,89.5C 86.209,89.7373 85.209,89.404 84.5,88.5 Z"/></g>
<g><path style="opacity:0.027" fill="#b9c3cd" d="M 70.5,87.5 C 72.5786,87.9707 74.5786,88.6373 76.5,89.5C 76.5,89.8333 76.5,90.1667 76.5,90.5C 74.8333,90.5 73.1667,90.5 71.5,90.5C 71.4431,89.391 71.1098,88.391 70.5,87.5 Z"/></g>
<g><path style="opacity:0.778" fill="#bec6cf" d="M 87.5,90.5 C 87.5,90.1667 87.5,89.8333 87.5,89.5C 89.8568,89.3367 92.1902,89.5034 94.5,90C 96.1193,90.2355 97.1193,91.0689 97.5,92.5C 95.8333,92.5 94.1667,92.5 92.5,92.5C 91.4479,90.744 89.7812,90.0773 87.5,90.5 Z"/></g>
<g><path style="opacity:0.039" fill="#d3d8e0" d="M 81.5,91.5 C 79.5853,91.7845 77.9187,91.4511 76.5,90.5C 76.5,90.1667 76.5,89.8333 76.5,89.5C 77.6009,88.4017 78.9343,88.235 80.5,89C 81.2524,89.6708 81.5858,90.5041 81.5,91.5 Z"/></g>
<g><path style="opacity:0.039" fill="#acb7c4" d="M 54.5,84.5 C 55.8333,84.5 57.1667,84.5 58.5,84.5C 67.1261,86.1132 75.7927,87.4466 84.5,88.5C 85.209,89.404 86.209,89.7373 87.5,89.5C 87.5,89.8333 87.5,90.1667 87.5,90.5C 87.5,91.1667 87.1667,91.5 86.5,91.5C 84.8333,91.5 83.1667,91.5 81.5,91.5C 81.5858,90.5041 81.2524,89.6708 80.5,89C 78.9343,88.235 77.6009,88.4017 76.5,89.5C 74.5786,88.6373 72.5786,87.9707 70.5,87.5C 69.1667,87.5 68.5,88.1667 68.5,89.5C 67.1667,89.5 65.8333,89.5 64.5,89.5C 64.5,88.5 64.5,87.5 64.5,86.5C 62.8212,86.2852 61.8212,86.9519 61.5,88.5C 60.5,88.5 59.5,88.5 58.5,88.5C 58.5,87.5 58.5,86.5 58.5,85.5C 56.8212,85.2852 55.8212,85.9519 55.5,87.5C 55.1667,87.5 54.8333,87.5 54.5,87.5C 54.5,86.5 54.5,85.5 54.5,84.5 Z"/></g>
<g><path style="opacity:0.38" fill="#dfe3e6" d="M 87.5,90.5 C 89.7812,90.0773 91.4479,90.744 92.5,92.5C 90.2646,92.7947 88.2646,92.4614 86.5,91.5C 87.1667,91.5 87.5,91.1667 87.5,90.5 Z"/></g>
</svg>
