<?xml version="1.0" encoding="UTF-8"?>
<!DOCTYPE svg PUBLIC "-//W3C//DTD SVG 1.1//EN" "http://www.w3.org/Graphics/SVG/1.1/DTD/svg11.dtd">
<svg xmlns="http://www.w3.org/2000/svg" version="1.1" width="100px" height="100px" style="shape-rendering:geometricPrecision; text-rendering:geometricPrecision; image-rendering:optimizeQuality; fill-rule:evenodd; clip-rule:evenodd" xmlns:xlink="http://www.w3.org/1999/xlink">
<g><path style="opacity:0.263" fill="#cdd1d6" d="M 74.5,6.5 C 74.5,7.5 74.5,8.5 74.5,9.5C 73.1667,9.5 71.8333,9.5 70.5,9.5C 70.5,8.83333 70.5,8.16667 70.5,7.5C 71.5676,6.56552 72.901,6.23219 74.5,6.5 Z"/></g>
<g><path style="opacity:0.263" fill="#9ca9b6" d="M 74.5,6.5 C 76.1667,6.5 77.8333,6.5 79.5,6.5C 78.9517,9.08382 77.285,10.0838 74.5,9.5C 74.5,8.5 74.5,7.5 74.5,6.5 Z"/></g>
<g><path style="opacity:0.318" fill="#b0bcc4" d="M 64.5,7.5 C 62.9275,8.68729 61.2608,9.68729 59.5,10.5C 57.8212,10.7148 56.8212,10.0481 56.5,8.5C 58.9479,7.52693 61.6146,7.1936 64.5,7.5 Z"/></g>
<g><path style="opacity:0.573" fill="#8b9aa7" d="M 48.5,8.5 C 49.8333,8.5 51.1667,8.5 52.5,8.5C 51.2318,10.047 49.5652,11.047 47.5,11.5C 47.5569,10.391 47.8902,9.39105 48.5,8.5 Z"/></g>
<g><path style="opacity:0.965" fill="#748596" d="M 64.5,7.5 C 66.5,7.5 68.5,7.5 70.5,7.5C 70.5,8.16667 70.5,8.83333 70.5,9.5C 66.8815,10.2436 63.2148,10.577 59.5,10.5C 61.2608,9.68729 62.9275,8.68729 64.5,7.5 Z"/></g>
<g><path style="opacity:0.176" fill="#d4dce3" d="M 48.5,8.5 C 47.8902,9.39105 47.5569,10.391 47.5,11.5C 47.1667,11.5 46.8333,11.5 46.5,11.5C 45.1667,11.8333 43.8333,12.1667 42.5,12.5C 44.1475,10.6736 46.1475,9.34026 48.5,8.5 Z"/></g>
<g><path style="opacity:0.033" fill="#c1c1c1" d="M 37.5,14.5 C 35.8333,14.5 34.1667,14.5 32.5,14.5C 34.0378,11.9521 35.7044,11.9521 37.5,14.5 Z"/></g>
<g><path style="opacity:0.161" fill="#c4ced6" d="M 46.5,11.5 C 44.8525,13.3264 42.8525,14.6597 40.5,15.5C 39.5041,15.4142 38.6708,15.7476 38,16.5C 37.5357,15.9056 37.369,15.2389 37.5,14.5C 39.1667,13.8333 40.8333,13.1667 42.5,12.5C 43.8333,12.1667 45.1667,11.8333 46.5,11.5 Z"/></g>
<g><path style="opacity:0.193" fill="#cfcfd0" d="M 5.5,15.5 C 5.5,16.8333 5.5,18.1667 5.5,19.5C 2.97805,18.3351 2.97805,17.0018 5.5,15.5 Z"/></g>
<g><path style="opacity:1" fill="#768a9f" d="M 99.5,14.5 C 99.5,17.8333 99.5,21.1667 99.5,24.5C 80.7615,25.5871 62.0948,27.0871 43.5,29C 45.9378,26.7051 47.4378,23.8717 48,20.5C 49.4095,19.2125 50.9095,18.0458 52.5,17C 68.141,15.683 83.8077,14.8497 99.5,14.5 Z"/></g>
<g><path style="opacity:0.459" fill="#b0b5ba" d="M 32.5,14.5 C 34.1667,14.5 35.8333,14.5 37.5,14.5C 37.369,15.2389 37.5357,15.9056 38,16.5C 38.6708,15.7476 39.5041,15.4142 40.5,15.5C 38.5398,17.1563 36.5398,18.823 34.5,20.5C 33.391,20.4431 32.391,20.1098 31.5,19.5C 31.9175,18.7784 32.5842,18.2784 33.5,18C 32.6634,16.9887 32.33,15.8221 32.5,14.5 Z"/></g>
<g><path style="opacity:0.537" fill="#c2c3c4" d="M 6.5,15.5 C 8.02694,15.427 9.02694,16.0937 9.5,17.5C 7.40171,18.9143 6.40171,18.2476 6.5,15.5 Z"/></g>
<g><path style="opacity:0.729" fill="#a0a0a0" d="M 5.5,15.5 C 5.83333,15.5 6.16667,15.5 6.5,15.5C 6.40171,18.2476 7.40171,18.9143 9.5,17.5C 11.0269,17.427 12.0269,18.0937 12.5,19.5C 11.5,20.1667 10.5,20.8333 9.5,21.5C 8.71304,19.8958 7.3797,19.2291 5.5,19.5C 5.5,18.1667 5.5,16.8333 5.5,15.5 Z"/></g>
<g><path style="opacity:0.999" fill="#5c7084" d="M 99.5,5.5 C 99.5,7.83333 99.5,10.1667 99.5,12.5C 83.8276,13.1572 68.1609,13.9905 52.5,15C 50,16.8333 47.5,18.6667 45,20.5C 44.7638,22.764 44.2638,24.9307 43.5,27C 30.9931,27.8265 18.6597,27.6599 6.5,26.5C 7.24848,24.6675 8.24848,23.0009 9.5,21.5C 10.5,20.8333 11.5,20.1667 12.5,19.5C 12.8333,19.5 13.1667,19.5 13.5,19.5C 14.4054,20.9643 14.4054,22.2976 13.5,23.5C 15.7561,26.3053 17.4228,25.972 18.5,22.5C 23.8333,21.8333 29.1667,21.1667 34.5,20.5C 36.5398,18.823 38.5398,17.1563 40.5,15.5C 42.8525,14.6597 44.8525,13.3264 46.5,11.5C 46.8333,11.5 47.1667,11.5 47.5,11.5C 49.5652,11.047 51.2318,10.047 52.5,8.5C 53.8333,8.5 55.1667,8.5 56.5,8.5C 56.8212,10.0481 57.8212,10.7148 59.5,10.5C 63.2148,10.577 66.8815,10.2436 70.5,9.5C 71.8333,9.5 73.1667,9.5 74.5,9.5C 77.285,10.0838 78.9517,9.08382 79.5,6.5C 81.1667,6.5 82.8333,6.5 84.5,6.5C 85.1834,8.17649 86.5168,8.84316 88.5,8.5C 90.8984,8.74061 92.8984,8.07394 94.5,6.5C 96.2915,6.63404 97.9582,6.30071 99.5,5.5 Z"/></g>
<g><path style="opacity:0.627" fill="#6e8291" d="M 13.5,19.5 C 19.5,19.5 25.5,19.5 31.5,19.5C 32.391,20.1098 33.391,20.4431 34.5,20.5C 29.1667,21.1667 23.8333,21.8333 18.5,22.5C 16.7839,22.6287 15.1172,22.962 13.5,23.5C 14.4054,22.2976 14.4054,20.9643 13.5,19.5 Z"/></g>
<g><path style="opacity:0.62" fill="#8e9ca8" d="M 90.5,6.5 C 91.8333,6.5 93.1667,6.5 94.5,6.5C 92.8984,8.07394 90.8984,8.74061 88.5,8.5C 89.1667,7.83333 89.8333,7.16667 90.5,6.5 Z"/></g>
<g><path style="opacity:0.592" fill="#b9bfc5" d="M 84.5,6.5 C 86.5,6.5 88.5,6.5 90.5,6.5C 89.8333,7.16667 89.1667,7.83333 88.5,8.5C 86.5168,8.84316 85.1834,8.17649 84.5,6.5 Z"/></g>
<g><path style="opacity:1" fill="#a1adbb" d="M 38.5,21.5 C 40.0481,21.8212 40.7148,22.8212 40.5,24.5C 36.6266,24.666 35.9599,23.666 38.5,21.5 Z"/></g>
<g><path style="opacity:1" fill="#9daab7" d="M 18.5,22.5 C 17.4228,25.972 15.7561,26.3053 13.5,23.5C 15.1172,22.962 16.7839,22.6287 18.5,22.5 Z"/></g>
<g><path style="opacity:1" fill="#8c9cad" d="M 99.5,12.5 C 99.5,13.1667 99.5,13.8333 99.5,14.5C 83.8077,14.8497 68.141,15.683 52.5,17C 50.9095,18.0458 49.4095,19.2125 48,20.5C 47.4378,23.8717 45.9378,26.7051 43.5,29C 62.0948,27.0871 80.7615,25.5871 99.5,24.5C 99.5,25.8333 99.5,27.1667 99.5,28.5C 97.1667,28.5 94.8333,28.5 92.5,28.5C 88.3537,27.353 84.0204,27.1864 79.5,28C 54.482,30.3759 29.482,32.8759 4.5,35.5C 3.07437,32.7008 3.4077,30.0342 5.5,27.5C 5.5,26.8333 5.83333,26.5 6.5,26.5C 18.6597,27.6599 30.9931,27.8265 43.5,27C 44.2638,24.9307 44.7638,22.764 45,20.5C 47.5,18.6667 50,16.8333 52.5,15C 68.1609,13.9905 83.8276,13.1572 99.5,12.5 Z"/></g>
<g><path style="opacity:1" fill="#a9b4c0" d="M 92.5,28.5 C 63.1707,31.2176 33.8374,33.8843 4.5,36.5C 4.5,36.1667 4.5,35.8333 4.5,35.5C 29.482,32.8759 54.482,30.3759 79.5,28C 84.0204,27.1864 88.3537,27.353 92.5,28.5 Z"/></g>
<g><path style="opacity:1" fill="#bec7ce" d="M 5.5,19.5 C 7.3797,19.2291 8.71304,19.8958 9.5,21.5C 8.24848,23.0009 7.24848,24.6675 6.5,26.5C 5.83333,26.5 5.5,26.8333 5.5,27.5C 4.5,27.5 3.5,27.5 2.5,27.5C 2.12518,43.643 2.12518,59.643 2.5,75.5C 1.5,75.5 0.5,75.5 -0.5,75.5C -0.5,58.8333 -0.5,42.1667 -0.5,25.5C 4.7379,26.2667 6.7379,24.2667 5.5,19.5 Z"/></g>
<g><path style="opacity:1" fill="#778aa0" d="M 5.5,29.5 C 41.3622,29.2146 41.3622,30.2146 5.5,32.5C 5.5,31.5 5.5,30.5 5.5,29.5 Z"/></g>
<g><path style="opacity:1" fill="#778ca0" d="M 92.5,28.5 C 94.8333,28.5 97.1667,28.5 99.5,28.5C 99.5,34.1667 99.5,39.8333 99.5,45.5C 85.7503,46.3597 72.0836,47.693 58.5,49.5C 50.9367,49.2279 43.6034,49.8945 36.5,51.5C 25.8257,52.323 15.159,53.323 4.5,54.5C 4.5,48.5 4.5,42.5 4.5,36.5C 33.8374,33.8843 63.1707,31.2176 92.5,28.5 Z"/></g>
<g><path style="opacity:1" fill="#acb7c2" d="M 91.5,35.5 C 93.288,35.2148 94.9547,35.5481 96.5,36.5C 95.6667,36.8333 94.8333,37.1667 94,37.5C 92.6244,37.3158 91.7911,36.6491 91.5,35.5 Z"/></g>
<g><path style="opacity:1" fill="#afbdc7" d="M 71.5,37.5 C 72.9778,37.238 74.3112,37.5713 75.5,38.5C 73.9255,39.6309 72.2588,39.7975 70.5,39C 71.056,38.6174 71.3893,38.1174 71.5,37.5 Z"/></g>
<g><path style="opacity:1" fill="#a7b3bf" d="M 50.5,39.5 C 51.9778,39.238 53.3112,39.5713 54.5,40.5C 53.8333,40.8333 53.1667,41.1667 52.5,41.5C 51.2867,41.2528 50.62,40.5862 50.5,39.5 Z"/></g>
<g><path style="opacity:1" fill="#a3b1bd" d="M 39.5,40.5 C 41.288,40.2148 42.9547,40.5481 44.5,41.5C 43.6667,41.8333 42.8333,42.1667 42,42.5C 40.6244,42.3158 39.7911,41.6491 39.5,40.5 Z"/></g>
<g><path style="opacity:1" fill="#a6b3be" d="M 18.5,42.5 C 20.288,42.2148 21.9547,42.5481 23.5,43.5C 22.6667,43.8333 21.8333,44.1667 21,44.5C 19.6244,44.3158 18.7911,43.6491 18.5,42.5 Z"/></g>
<g><path style="opacity:1" fill="#aeb9c5" d="M 29.5,41.5 C 30.9778,41.238 32.3112,41.5713 33.5,42.5C 32.8333,42.8333 32.1667,43.1667 31.5,43.5C 30.2867,43.2528 29.62,42.5862 29.5,41.5 Z"/></g>
<g><path style="opacity:1" fill="#a6b1be" d="M 99.5,45.5 C 99.5,46.1667 99.5,46.8333 99.5,47.5C 87.5079,48.4987 75.5079,49.4987 63.5,50.5C 61.6307,50.4932 59.964,50.1599 58.5,49.5C 72.0836,47.693 85.7503,46.3597 99.5,45.5 Z"/></g>
<g><path style="opacity:1" fill="#768a9f" d="M 99.5,49.5 C 99.5,61.1667 99.5,72.8333 99.5,84.5C 72.5,84.5 45.5,84.5 18.5,84.5C 14.3236,81.1513 9.8236,78.1513 5,75.5C 4.50046,69.1754 4.33379,62.8421 4.5,56.5C 5.5,56.5 6.5,56.5 7.5,56.5C 9.57796,57.1009 11.7446,57.4343 14,57.5C 42.4884,54.6223 70.9884,51.9556 99.5,49.5 Z"/></g>
<g><path style="opacity:1" fill="#8a9bac" d="M 99.5,47.5 C 99.5,48.1667 99.5,48.8333 99.5,49.5C 70.9884,51.9556 42.4884,54.6223 14,57.5C 11.7446,57.4343 9.57796,57.1009 7.5,56.5C 24.0002,54.4952 40.6668,52.6618 57.5,51C 50.4952,50.6666 43.4952,50.8333 36.5,51.5C 43.6034,49.8945 50.9367,49.2279 58.5,49.5C 59.964,50.1599 61.6307,50.4932 63.5,50.5C 75.5079,49.4987 87.5079,48.4987 99.5,47.5 Z"/></g>
<g><path style="opacity:1" fill="#9facba" d="M 5.5,27.5 C 3.4077,30.0342 3.07437,32.7008 4.5,35.5C 4.5,35.8333 4.5,36.1667 4.5,36.5C 4.5,42.5 4.5,48.5 4.5,54.5C 15.159,53.323 25.8257,52.323 36.5,51.5C 43.4952,50.8333 50.4952,50.6666 57.5,51C 40.6668,52.6618 24.0002,54.4952 7.5,56.5C 6.5,56.5 5.5,56.5 4.5,56.5C 4.33379,62.8421 4.50046,69.1754 5,75.5C 9.8236,78.1513 14.3236,81.1513 18.5,84.5C 18.5,84.8333 18.5,85.1667 18.5,85.5C 12.5304,83.182 7.19703,79.8487 2.5,75.5C 2.12518,59.643 2.12518,43.643 2.5,27.5C 3.5,27.5 4.5,27.5 5.5,27.5 Z"/></g>
<g><path style="opacity:0.004" fill="#d6dce2" d="M -0.5,75.5 C 0.5,75.5 1.5,75.5 2.5,75.5C 7.19703,79.8487 12.5304,83.182 18.5,85.5C 21.3915,86.4025 24.3915,86.7359 27.5,86.5C 23.6888,87.6453 19.6888,87.8119 15.5,87C 10.9924,84.2467 6.65908,81.2467 2.5,78C 1.55198,77.5172 0.551975,77.3505 -0.5,77.5C -0.5,76.8333 -0.5,76.1667 -0.5,75.5 Z"/></g>
<g><path style="opacity:0.318" fill="#98a3b7" d="M 18.5,85.5 C 18.5,85.1667 18.5,84.8333 18.5,84.5C 45.5,84.5 72.5,84.5 99.5,84.5C 99.5,85.1667 99.5,85.8333 99.5,86.5C 75.5,86.5 51.5,86.5 27.5,86.5C 24.3915,86.7359 21.3915,86.4025 18.5,85.5 Z"/></g>
</svg>
