<?xml version="1.0" encoding="UTF-8"?>
<!DOCTYPE svg PUBLIC "-//W3C//DTD SVG 1.1//EN" "http://www.w3.org/Graphics/SVG/1.1/DTD/svg11.dtd">
<svg xmlns="http://www.w3.org/2000/svg" version="1.1" width="100px" height="100px" style="shape-rendering:geometricPrecision; text-rendering:geometricPrecision; image-rendering:optimizeQuality; fill-rule:evenodd; clip-rule:evenodd" xmlns:xlink="http://www.w3.org/1999/xlink">
<g><path style="opacity:0.271" fill="#cbcfd4" d="M 99.5,0.5 C 99.5,1.5 99.5,2.5 99.5,3.5C 98.1667,3.5 97.5,2.83333 97.5,1.5C 97.8417,0.661754 98.5084,0.32842 99.5,0.5 Z"/></g>
<g><path style="opacity:0.173" fill="#d2dbdf" d="M 73.5,1.5 C 72.713,3.10422 71.3797,3.77089 69.5,3.5C 68.8333,3.5 68.5,3.16667 68.5,2.5C 70.0418,1.69929 71.7085,1.36596 73.5,1.5 Z"/></g>
<g><path style="opacity:0.29" fill="#cad0d7" d="M 60.5,2.5 C 59.8333,3.5 59.1667,4.5 58.5,5.5C 57.5,5.5 56.5,5.5 55.5,5.5C 55.5,4.83333 55.5,4.16667 55.5,3.5C 56.9187,2.54885 58.5853,2.21552 60.5,2.5 Z"/></g>
<g><path style="opacity:0.71" fill="#aab7c0" d="M 73.5,1.5 C 74.8333,1.5 76.1667,1.5 77.5,1.5C 76.9002,2.89992 75.9002,3.89992 74.5,4.5C 72.5853,4.78448 70.9187,4.45115 69.5,3.5C 71.3797,3.77089 72.713,3.10422 73.5,1.5 Z"/></g>
<g><path style="opacity:0.976" fill="#7a8b9b" d="M 77.5,1.5 C 79.1667,1.5 80.8333,1.5 82.5,1.5C 83.3121,2.99309 84.6455,3.65976 86.5,3.5C 88.5566,3.5643 90.2233,2.89763 91.5,1.5C 92.8333,1.5 94.1667,1.5 95.5,1.5C 94.3998,2.55847 93.0664,3.3918 91.5,4C 85.8431,4.49942 80.1764,4.66609 74.5,4.5C 75.9002,3.89992 76.9002,2.89992 77.5,1.5 Z"/></g>
<g><path style="opacity:0.392" fill="#b5bdc5" d="M 82.5,1.5 C 85.5,1.5 88.5,1.5 91.5,1.5C 90.2233,2.89763 88.5566,3.5643 86.5,3.5C 84.6455,3.65976 83.3121,2.99309 82.5,1.5 Z"/></g>
<g><path style="opacity:0.153" fill="#bdc5cc" d="M 33.5,3.5 C 32.8902,4.39105 32.5569,5.39105 32.5,6.5C 29.9899,6.94649 27.9899,6.27983 26.5,4.5C 28.8056,4.00745 31.139,3.67412 33.5,3.5 Z"/></g>
<g><path style="opacity:0.945" fill="#9ba5af" d="M 60.5,2.5 C 62.1667,2.5 63.8333,2.5 65.5,2.5C 63.9639,5.09219 61.6305,6.09219 58.5,5.5C 59.1667,4.5 59.8333,3.5 60.5,2.5 Z"/></g>
<g><path style="opacity:1" fill="#5a7084" d="M 95.5,1.5 C 96.1667,1.5 96.8333,1.5 97.5,1.5C 97.5,2.83333 98.1667,3.5 99.5,3.5C 99.5,4.83333 99.5,6.16667 99.5,7.5C 66.1665,8.85803 32.8332,10.1914 -0.5,11.5C -0.5,10.5 -0.5,9.5 -0.5,8.5C 4.03187,9.11442 8.03187,8.11442 11.5,5.5C 12.1667,5.5 12.8333,5.5 13.5,5.5C 13.8212,7.04814 14.8212,7.71481 16.5,7.5C 19.3933,7.96892 21.3933,6.96892 22.5,4.5C 23.8333,4.5 25.1667,4.5 26.5,4.5C 27.9899,6.27983 29.9899,6.94649 32.5,6.5C 34.5273,6.66212 36.5273,6.49546 38.5,6C 39.2524,5.32924 39.5858,4.4959 39.5,3.5C 39.8333,3.5 40.1667,3.5 40.5,3.5C 40.8333,4.16667 41.1667,4.83333 41.5,5.5C 46.0126,6.59736 50.6792,6.59736 55.5,5.5C 56.5,5.5 57.5,5.5 58.5,5.5C 61.6305,6.09219 63.9639,5.09219 65.5,2.5C 66.5,2.5 67.5,2.5 68.5,2.5C 68.5,3.16667 68.8333,3.5 69.5,3.5C 70.9187,4.45115 72.5853,4.78448 74.5,4.5C 80.1764,4.66609 85.8431,4.49942 91.5,4C 93.0664,3.3918 94.3998,2.55847 95.5,1.5 Z"/></g>
<g><path style="opacity:0.373" fill="#788a99" d="M 47.5,3.5 C 50.1667,3.5 52.8333,3.5 55.5,3.5C 55.5,4.16667 55.5,4.83333 55.5,5.5C 50.6792,6.59736 46.0126,6.59736 41.5,5.5C 44.0821,5.97461 46.0821,5.30794 47.5,3.5 Z"/></g>
<g><path style="opacity:0.373" fill="#b5bdc3" d="M 40.5,3.5 C 42.8333,3.5 45.1667,3.5 47.5,3.5C 46.0821,5.30794 44.0821,5.97461 41.5,5.5C 41.1667,4.83333 40.8333,4.16667 40.5,3.5 Z"/></g>
<g><path style="opacity:0.024" fill="#b4bfc5" d="M -0.5,5.5 C 2.16667,5.5 4.83333,5.5 7.5,5.5C 5.16175,7.03954 2.49508,7.70621 -0.5,7.5C -0.5,6.83333 -0.5,6.16667 -0.5,5.5 Z"/></g>
<g><path style="opacity:0.282" fill="#c7d0d7" d="M 18.5,4.5 C 18.2178,5.77765 17.5511,6.77765 16.5,7.5C 14.8212,7.71481 13.8212,7.04814 13.5,5.5C 14.9187,4.54885 16.5853,4.21552 18.5,4.5 Z"/></g>
<g><path style="opacity:0.663" fill="#8495a1" d="M 33.5,3.5 C 35.5,3.5 37.5,3.5 39.5,3.5C 39.5858,4.4959 39.2524,5.32924 38.5,6C 36.5273,6.49546 34.5273,6.66212 32.5,6.5C 32.5569,5.39105 32.8902,4.39105 33.5,3.5 Z"/></g>
<g><path style="opacity:0.941" fill="#9daab7" d="M 18.5,4.5 C 19.8333,4.5 21.1667,4.5 22.5,4.5C 21.3933,6.96892 19.3933,7.96892 16.5,7.5C 17.5511,6.77765 18.2178,5.77765 18.5,4.5 Z"/></g>
<g><path style="opacity:0.969" fill="#8392a0" d="M 7.5,5.5 C 8.83333,5.5 10.1667,5.5 11.5,5.5C 8.03187,8.11442 4.03187,9.11442 -0.5,8.5C -0.5,8.16667 -0.5,7.83333 -0.5,7.5C 2.49508,7.70621 5.16175,7.03954 7.5,5.5 Z"/></g>
<g><path style="opacity:1" fill="#8696a8" d="M 99.5,7.5 C 99.5,8.16667 99.5,8.83333 99.5,9.5C 66.1366,10.5757 32.8032,12.2424 -0.5,14.5C -0.5,13.5 -0.5,12.5 -0.5,11.5C 32.8332,10.1914 66.1665,8.85803 99.5,7.5 Z"/></g>
<g><path style="opacity:1" fill="#758a9f" d="M 99.5,9.5 C 99.5,11.1667 99.5,12.8333 99.5,14.5C 66.2072,17.3514 32.8738,20.3514 -0.5,23.5C -0.5,20.5 -0.5,17.5 -0.5,14.5C 32.8032,12.2424 66.1366,10.5757 99.5,9.5 Z"/></g>
<g><path style="opacity:1" fill="#768ba0" d="M 99.5,18.5 C 99.5,20.8333 99.5,23.1667 99.5,25.5C 96.8333,26.1667 96.8333,26.8333 99.5,27.5C 99.5,30.5 99.5,33.5 99.5,36.5C 66.5619,38.2376 33.8952,41.2376 1.5,45.5C 0.833333,45.5 0.166667,45.5 -0.5,45.5C -0.5,39.5 -0.5,33.5 -0.5,27.5C 3.85665,27.4135 8.18998,27.0802 12.5,26.5C 14.4147,26.7845 16.0813,26.4511 17.5,25.5C 44.829,23.1673 72.1624,20.8339 99.5,18.5 Z"/></g>
<g><path style="opacity:1" fill="#8c9cad" d="M 99.5,14.5 C 99.5,15.1667 99.5,15.8333 99.5,16.5C 70.7518,18.9142 43.4184,21.9142 17.5,25.5C 16.0813,26.4511 14.4147,26.7845 12.5,26.5C 8.3131,25.3376 3.97977,25.3376 -0.5,26.5C -0.5,25.5 -0.5,24.5 -0.5,23.5C 32.8738,20.3514 66.2072,17.3514 99.5,14.5 Z"/></g>
<g><path style="opacity:1" fill="#a8b4c0" d="M 99.5,16.5 C 99.5,17.1667 99.5,17.8333 99.5,18.5C 72.1624,20.8339 44.829,23.1673 17.5,25.5C 43.4184,21.9142 70.7518,18.9142 99.5,16.5 Z"/></g>
<g><path style="opacity:1" fill="#abb6c1" d="M 12.5,26.5 C 8.18998,27.0802 3.85665,27.4135 -0.5,27.5C -0.5,27.1667 -0.5,26.8333 -0.5,26.5C 3.97977,25.3376 8.3131,25.3376 12.5,26.5 Z"/></g>
<g><path style="opacity:1" fill="#b4bec6" d="M 99.5,25.5 C 99.5,26.1667 99.5,26.8333 99.5,27.5C 96.8333,26.8333 96.8333,26.1667 99.5,25.5 Z"/></g>
<g><path style="opacity:1" fill="#a9b7c3" d="M 86.5,26.5 C 88.288,26.2148 89.9547,26.5481 91.5,27.5C 90.6667,27.8333 89.8333,28.1667 89,28.5C 87.6244,28.3158 86.7911,27.6491 86.5,26.5 Z"/></g>
<g><path style="opacity:1" fill="#a2adbc" d="M 65.5,28.5 C 67.288,28.2148 68.9547,28.5481 70.5,29.5C 69.6667,29.8333 68.8333,30.1667 68,30.5C 66.6244,30.3158 65.7911,29.6491 65.5,28.5 Z"/></g>
<g><path style="opacity:1" fill="#b6c0c9" d="M 76.5,27.5 C 77.9778,27.238 79.3112,27.5713 80.5,28.5C 79.8333,28.8333 79.1667,29.1667 78.5,29.5C 77.2867,29.2528 76.62,28.5862 76.5,27.5 Z"/></g>
<g><path style="opacity:1" fill="#b7c1c9" d="M 55.5,29.5 C 57.288,29.2148 58.9547,29.5481 60.5,30.5C 59.6667,30.8333 58.8333,31.1667 58,31.5C 56.6244,31.3158 55.7911,30.6491 55.5,29.5 Z"/></g>
<g><path style="opacity:1" fill="#a7b4c0" d="M 45.5,30.5 C 46.9778,30.238 48.3112,30.5713 49.5,31.5C 47.9255,32.6309 46.2588,32.7975 44.5,32C 45.056,31.6174 45.3893,31.1174 45.5,30.5 Z"/></g>
<g><path style="opacity:1" fill="#b9c4cd" d="M 34.5,31.5 C 36.288,31.2148 37.9547,31.5481 39.5,32.5C 38.6667,32.8333 37.8333,33.1667 37,33.5C 35.6244,33.3158 34.7911,32.6491 34.5,31.5 Z"/></g>
<g><path style="opacity:1" fill="#acb9c5" d="M 13.5,33.5 C 15.288,33.2148 16.9547,33.5481 18.5,34.5C 17.6667,34.8333 16.8333,35.1667 16,35.5C 14.6244,35.3158 13.7911,34.6491 13.5,33.5 Z"/></g>
<g><path style="opacity:1" fill="#a8b3c0" d="M 24.5,32.5 C 25.9778,32.238 27.3112,32.5713 28.5,33.5C 27.8333,33.8333 27.1667,34.1667 26.5,34.5C 25.2867,34.2528 24.62,33.5862 24.5,32.5 Z"/></g>
<g><path style="opacity:1" fill="#758a9e" d="M 99.5,39.5 C 99.5,49.1667 99.5,58.8333 99.5,68.5C 82.8333,68.5 66.1667,68.5 49.5,68.5C 49.5,66.5 49.5,64.5 49.5,62.5C 46.1501,62.335 42.8168,62.5017 39.5,63C 35.8333,65.5 32.1667,68 28.5,70.5C 27.2254,75.2164 27.2254,79.883 28.5,84.5C 18.8333,84.5 9.16667,84.5 -0.5,84.5C -0.5,72.8333 -0.5,61.1667 -0.5,49.5C 8.32051,48.6201 16.9872,47.6201 25.5,46.5C 27.5,46.5 29.5,46.5 31.5,46.5C 54.1759,44.4081 76.8426,42.0747 99.5,39.5 Z"/></g>
<g><path style="opacity:1" fill="#a3afbc" d="M 99.5,36.5 C 99.5,36.8333 99.5,37.1667 99.5,37.5C 74.8177,39.8016 50.151,42.3016 25.5,45C 27.7078,45.1909 29.7078,45.6909 31.5,46.5C 29.5,46.5 27.5,46.5 25.5,46.5C 17.3987,45.9822 9.39865,45.6489 1.5,45.5C 33.8952,41.2376 66.5619,38.2376 99.5,36.5 Z"/></g>
<g><path style="opacity:1" fill="#889aab" d="M 99.5,37.5 C 99.5,38.1667 99.5,38.8333 99.5,39.5C 76.8426,42.0747 54.1759,44.4081 31.5,46.5C 29.7078,45.6909 27.7078,45.1909 25.5,45C 50.151,42.3016 74.8177,39.8016 99.5,37.5 Z"/></g>
<g><path style="opacity:1" fill="#8c9cac" d="M -0.5,45.5 C 0.166667,45.5 0.833333,45.5 1.5,45.5C 9.39865,45.6489 17.3987,45.9822 25.5,46.5C 16.9872,47.6201 8.32051,48.6201 -0.5,49.5C -0.5,48.1667 -0.5,46.8333 -0.5,45.5 Z"/></g>
<g><path style="opacity:1" fill="#5a6f84" d="M 99.5,68.5 C 99.5,69.5 99.5,70.5 99.5,71.5C 90.5,71.5 81.5,71.5 72.5,71.5C 72.1667,71.5 71.8333,71.5 71.5,71.5C 70.0813,70.5489 68.4147,70.2155 66.5,70.5C 55.5,70.5 44.5,70.5 33.5,70.5C 33.5,75.1667 33.5,79.8333 33.5,84.5C 44.5,84.5 55.5,84.5 66.5,84.5C 65.4324,85.4345 64.099,85.7678 62.5,85.5C 58.1667,85.5 53.8333,85.5 49.5,85.5C 49.5,87.8333 49.5,90.1667 49.5,92.5C 46.5,92.5 43.5,92.5 40.5,92.5C 40.0269,91.0937 39.0269,90.427 37.5,90.5C 37.0269,89.0937 36.0269,88.427 34.5,88.5C 34.0269,87.0937 33.0269,86.427 31.5,86.5C 30.5,85.8333 29.5,85.1667 28.5,84.5C 27.2254,79.883 27.2254,75.2164 28.5,70.5C 32.1667,68 35.8333,65.5 39.5,63C 42.8168,62.5017 46.1501,62.335 49.5,62.5C 49.5,64.5 49.5,66.5 49.5,68.5C 66.1667,68.5 82.8333,68.5 99.5,68.5 Z"/></g>
<g><path style="opacity:1" fill="#baccd9" d="M 71.5,71.5 C 71.8333,71.5 72.1667,71.5 72.5,71.5C 73.8333,72.1667 75.1667,72.8333 76.5,73.5C 74.6796,75.4484 72.3462,76.4484 69.5,76.5C 69.0773,74.2188 69.744,72.5521 71.5,71.5 Z"/></g>
<g><path style="opacity:1" fill="#758a9e" d="M 72.5,71.5 C 81.5,71.5 90.5,71.5 99.5,71.5C 99.5,72.1667 99.5,72.8333 99.5,73.5C 97.4727,73.3379 95.4727,73.5045 93.5,74C 89.9626,75.8265 89.6293,78.1598 92.5,81C 94.8098,81.4966 97.1432,81.6633 99.5,81.5C 99.5,82.5 99.5,83.5 99.5,84.5C 90.1667,84.5 80.8333,84.5 71.5,84.5C 72.6715,83.6554 74.0048,82.9887 75.5,82.5C 77.8837,81.5749 78.8837,79.7415 78.5,77C 78.3917,75.3189 77.7251,74.1522 76.5,73.5C 75.1667,72.8333 73.8333,72.1667 72.5,71.5 Z"/></g>
<g><path style="opacity:1" fill="#778ba0" d="M 64.5,71.5 C 63.2196,72.9313 61.5529,73.5979 59.5,73.5C 58.8578,77.4749 59.8578,80.8082 62.5,83.5C 53.1667,83.5 43.8333,83.5 34.5,83.5C 34.5,79.5 34.5,75.5 34.5,71.5C 44.5,71.5 54.5,71.5 64.5,71.5 Z"/></g>
<g><path style="opacity:1" fill="#92a6b5" d="M 66.5,70.5 C 68.4147,70.2155 70.0813,70.5489 71.5,71.5C 69.744,72.5521 69.0773,74.2188 69.5,76.5C 72.3462,76.4484 74.6796,75.4484 76.5,73.5C 77.7251,74.1522 78.3917,75.3189 78.5,77C 78.8837,79.7415 77.8837,81.5749 75.5,82.5C 74.6521,80.9069 73.3187,79.7403 71.5,79C 70.552,78.5172 69.552,78.3505 68.5,78.5C 68.0254,81.0821 68.6921,83.0821 70.5,84.5C 69.2946,85.6857 67.9613,85.6857 66.5,84.5C 65.4324,83.5655 64.099,83.2322 62.5,83.5C 59.8578,80.8082 58.8578,77.4749 59.5,73.5C 61.5529,73.5979 63.2196,72.9313 64.5,71.5C 65.4916,71.6716 66.1583,71.3382 66.5,70.5 Z"/></g>
<g><path style="opacity:1" fill="#98acbb" d="M 99.5,73.5 C 99.5,76.1667 99.5,78.8333 99.5,81.5C 97.1432,81.6633 94.8098,81.4966 92.5,81C 89.6293,78.1598 89.9626,75.8265 93.5,74C 95.4727,73.5045 97.4727,73.3379 99.5,73.5 Z"/></g>
<g><path style="opacity:1" fill="#b8cad7" d="M 75.5,82.5 C 74.0048,82.9887 72.6715,83.6554 71.5,84.5C 71.1667,84.5 70.8333,84.5 70.5,84.5C 68.6921,83.0821 68.0254,81.0821 68.5,78.5C 69.552,78.3505 70.552,78.5172 71.5,79C 73.3187,79.7403 74.6521,80.9069 75.5,82.5 Z"/></g>
<g><path style="opacity:1" fill="#697e92" d="M 66.5,70.5 C 66.1583,71.3382 65.4916,71.6716 64.5,71.5C 54.5,71.5 44.5,71.5 34.5,71.5C 34.5,75.5 34.5,79.5 34.5,83.5C 43.8333,83.5 53.1667,83.5 62.5,83.5C 64.099,83.2322 65.4324,83.5655 66.5,84.5C 55.5,84.5 44.5,84.5 33.5,84.5C 33.5,79.8333 33.5,75.1667 33.5,70.5C 44.5,70.5 55.5,70.5 66.5,70.5 Z"/></g>
<g><path style="opacity:0.821" fill="#9aa5b8" d="M -0.5,84.5 C 9.16667,84.5 18.8333,84.5 28.5,84.5C 29.5,85.1667 30.5,85.8333 31.5,86.5C 29.1667,86.5 26.8333,86.5 24.5,86.5C 16.1667,86.5 7.83333,86.5 -0.5,86.5C -0.5,85.8333 -0.5,85.1667 -0.5,84.5 Z"/></g>
<g><path style="opacity:0.714" fill="#6d7e8f" d="M 66.5,84.5 C 67.9613,85.6857 69.2946,85.6857 70.5,84.5C 70.8333,84.5 71.1667,84.5 71.5,84.5C 80.8333,84.5 90.1667,84.5 99.5,84.5C 99.5,84.8333 99.5,85.1667 99.5,85.5C 96.8333,85.8333 94.1667,86.1667 91.5,86.5C 81.6522,86.8271 71.9856,86.4938 62.5,85.5C 64.099,85.7678 65.4324,85.4345 66.5,84.5 Z"/></g>
<g><path style="opacity:0.059" fill="#8794a0" d="M 62.5,85.5 C 71.9856,86.4938 81.6522,86.8271 91.5,86.5C 91.5,86.8333 91.5,87.1667 91.5,87.5C 78.5,87.5 65.5,87.5 52.5,87.5C 50.6921,88.9179 50.0254,90.9179 50.5,93.5C 49.8333,93.5 49.5,93.1667 49.5,92.5C 49.5,90.1667 49.5,87.8333 49.5,85.5C 53.8333,85.5 58.1667,85.5 62.5,85.5 Z"/></g>
<g><path style="opacity:0.843" fill="#95a0ac" d="M 31.5,86.5 C 33.0269,86.427 34.0269,87.0937 34.5,88.5C 32.9731,88.573 31.9731,87.9063 31.5,86.5 Z"/></g>
<g><path style="opacity:0.494" fill="#c6ced3" d="M 99.5,85.5 C 99.5,87.5 99.5,89.5 99.5,91.5C 96.5663,90.5332 93.8996,89.1999 91.5,87.5C 91.5,87.1667 91.5,86.8333 91.5,86.5C 94.1667,86.1667 96.8333,85.8333 99.5,85.5 Z"/></g>
<g><path style="opacity:0.871" fill="#96a2ad" d="M 34.5,88.5 C 36.0269,88.427 37.0269,89.0937 37.5,90.5C 35.9731,90.573 34.9731,89.9063 34.5,88.5 Z"/></g>
<g><path style="opacity:0.878" fill="#919da9" d="M 37.5,90.5 C 39.0269,90.427 40.0269,91.0937 40.5,92.5C 38.9731,92.573 37.9731,91.9063 37.5,90.5 Z"/></g>
<g><path style="opacity:0.075" fill="#dadedf" d="M 52.5,87.5 C 52.9465,90.0101 52.2798,92.0101 50.5,93.5C 50.0254,90.9179 50.6921,88.9179 52.5,87.5 Z"/></g>
<g><path style="opacity:0.012" fill="#dfe7ee" d="M 24.5,86.5 C 26.8333,86.5 29.1667,86.5 31.5,86.5C 31.9731,87.9063 32.9731,88.573 34.5,88.5C 34.9731,89.9063 35.9731,90.573 37.5,90.5C 37.9731,91.9063 38.9731,92.573 40.5,92.5C 40.5,93.1667 40.5,93.8333 40.5,94.5C 36.7978,92.9764 33.4645,90.8097 30.5,88C 28.2922,87.8091 26.2922,87.3091 24.5,86.5 Z"/></g>
<g><path style="opacity:0.043" fill="#6d8191" d="M 40.5,92.5 C 43.5,92.5 46.5,92.5 49.5,92.5C 49.5,93.1667 49.8333,93.5 50.5,93.5C 47.3752,94.4794 44.0419,94.8128 40.5,94.5C 40.5,93.8333 40.5,93.1667 40.5,92.5 Z"/></g>
</svg>
