<?xml version="1.0" encoding="UTF-8"?>
<!DOCTYPE svg PUBLIC "-//W3C//DTD SVG 1.1//EN" "http://www.w3.org/Graphics/SVG/1.1/DTD/svg11.dtd">
<svg xmlns="http://www.w3.org/2000/svg" version="1.1" width="100px" height="100px" style="shape-rendering:geometricPrecision; text-rendering:geometricPrecision; image-rendering:optimizeQuality; fill-rule:evenodd; clip-rule:evenodd" xmlns:xlink="http://www.w3.org/1999/xlink">
<g><path style="opacity:0.871" fill="#d6d3d4" d="M 17.5,-0.5 C 18.8333,-0.5 20.1667,-0.5 21.5,-0.5C 21.5,0.166667 21.5,0.833333 21.5,1.5C 19.5168,1.84316 18.1834,1.17649 17.5,-0.5 Z"/></g>
<g><path style="opacity:0.918" fill="#a19fa0" d="M 21.5,-0.5 C 47.5,-0.5 73.5,-0.5 99.5,-0.5C 99.5,0.166667 99.5,0.833333 99.5,1.5C 73.5,1.5 47.5,1.5 21.5,1.5C 21.5,0.833333 21.5,0.166667 21.5,-0.5 Z"/></g>
<g><path style="opacity:1" fill="#77767d" d="M 15.5,-0.5 C 16.1667,-0.5 16.8333,-0.5 17.5,-0.5C 18.1834,1.17649 19.5168,1.84316 21.5,1.5C 47.5,1.5 73.5,1.5 99.5,1.5C 99.5,1.83333 99.5,2.16667 99.5,2.5C 97.901,2.23219 96.5676,2.56552 95.5,3.5C 95.1667,3.5 94.8333,3.5 94.5,3.5C 70.1667,3.5 45.8333,3.5 21.5,3.5C 15.407,3.37851 10.407,5.71185 6.5,10.5C 9.18188,6.49339 12.1819,2.82672 15.5,-0.5 Z"/></g>
<g><path style="opacity:0.033" fill="#bcbcbc" d="M 13.5,-0.5 C 14.1667,-0.5 14.8333,-0.5 15.5,-0.5C 12.1819,2.82672 9.18188,6.49339 6.5,10.5C 5.5,10.5 4.5,10.5 3.5,10.5C 6.15172,6.18311 9.48505,2.51644 13.5,-0.5 Z"/></g>
<g><path style="opacity:1" fill="#9798a3" d="M 21.5,3.5 C 45.8333,3.5 70.1667,3.5 94.5,3.5C 94.5,4.5 94.5,5.5 94.5,6.5C 70.1667,6.5 45.8333,6.5 21.5,6.5C 21.5,5.83333 21.1667,5.5 20.5,5.5C 20.8333,4.83333 21.1667,4.16667 21.5,3.5 Z"/></g>
<g><path style="opacity:1" fill="#cdcfdc" d="M 99.5,2.5 C 99.5,5.5 99.5,8.5 99.5,11.5C 98.1667,11.5 96.8333,11.5 95.5,11.5C 95.5,8.83333 95.5,6.16667 95.5,3.5C 96.5676,2.56552 97.901,2.23219 99.5,2.5 Z"/></g>
<g><path style="opacity:1" fill="#adacb7" d="M 94.5,3.5 C 94.8333,3.5 95.1667,3.5 95.5,3.5C 95.5,6.16667 95.5,8.83333 95.5,11.5C 96.8333,11.5 98.1667,11.5 99.5,11.5C 99.5,11.8333 99.5,12.1667 99.5,12.5C 98.1667,12.5 96.8333,12.5 95.5,12.5C 96.5087,17.9987 95.1754,22.6653 91.5,26.5C 90.5,26.8333 89.8333,27.5 89.5,28.5C 88.5416,28.9528 87.7083,29.6195 87,30.5C 86.5003,38.4931 86.3336,46.4931 86.5,54.5C 86.3342,59.1785 86.5008,63.8452 87,68.5C 87.7083,69.3805 88.5416,70.0472 89.5,70.5C 89.8333,71.5 90.5,72.1667 91.5,72.5C 92.4577,73.9616 93.6244,75.2949 95,76.5C 95.4994,82.1569 95.6661,87.8236 95.5,93.5C 96.8333,93.5 98.1667,93.5 99.5,93.5C 99.5,94.5 99.5,95.5 99.5,96.5C 97.8333,96.5 96.1667,96.5 94.5,96.5C 94.5,95.1667 94.5,93.8333 94.5,92.5C 70.5,92.5 46.5,92.5 22.5,92.5C 22.7373,93.791 22.404,94.791 21.5,95.5C 20.1667,94.8333 18.8333,94.1667 17.5,93.5C 18.5,93.5 19.5,93.5 20.5,93.5C 21.3272,88.0149 21.8272,82.3482 22,76.5C 23.3756,75.2949 24.5423,73.9616 25.5,72.5C 26.5,72.1667 27.1667,71.5 27.5,70.5C 28.4584,70.0472 29.2917,69.3805 30,68.5C 30.4992,63.8452 30.6658,59.1785 30.5,54.5C 30.5,53.8333 30.5,53.1667 30.5,52.5C 30.6663,45.1591 30.4997,37.8258 30,30.5C 29.2917,29.6195 28.4584,28.9528 27.5,28.5C 27.5,27.1667 26.8333,26.5 25.5,26.5C 21.9222,23.3671 20.5889,19.3671 21.5,14.5C 21.5,11.8333 21.5,9.16667 21.5,6.5C 45.8333,6.5 70.1667,6.5 94.5,6.5C 94.5,5.5 94.5,4.5 94.5,3.5 Z"/></g>
<g><path style="opacity:1" fill="#bac4cf" d="M 21.5,3.5 C 21.1667,4.16667 20.8333,4.83333 20.5,5.5C 12.506,7.14545 6.83936,11.8121 3.5,19.5C 2.95691,19.44 2.62358,19.1067 2.5,18.5C 3.85989,15.7802 5.19322,13.1136 6.5,10.5C 10.407,5.71185 15.407,3.37851 21.5,3.5 Z"/></g>
<g><path style="opacity:1" fill="#8f898f" d="M 99.5,12.5 C 99.5,17.1667 99.5,21.8333 99.5,26.5C 96.8333,26.5 94.1667,26.5 91.5,26.5C 95.1754,22.6653 96.5087,17.9987 95.5,12.5C 96.8333,12.5 98.1667,12.5 99.5,12.5 Z"/></g>
<g><path style="opacity:1" fill="#b0a189" d="M 25.5,26.5 C 26.8333,26.5 27.5,27.1667 27.5,28.5C 20.4684,28.8303 13.4684,28.497 6.5,27.5C 12.7985,26.5037 19.1318,26.1703 25.5,26.5 Z"/></g>
<g><path style="opacity:1" fill="#b4a386" d="M 91.5,26.5 C 94.1667,26.5 96.8333,26.5 99.5,26.5C 99.5,27.1667 99.5,27.8333 99.5,28.5C 96.1667,28.5 92.8333,28.5 89.5,28.5C 89.8333,27.5 90.5,26.8333 91.5,26.5 Z"/></g>
<g><path style="opacity:1" fill="#979193" d="M 89.5,28.5 C 92.8333,28.5 96.1667,28.5 99.5,28.5C 99.5,37.1667 99.5,45.8333 99.5,54.5C 95.1667,54.5 90.8333,54.5 86.5,54.5C 86.3336,46.4931 86.5003,38.4931 87,30.5C 87.7083,29.6195 88.5416,28.9528 89.5,28.5 Z"/></g>
<g><path style="opacity:0.086" fill="#aaaaac" d="M 3.5,10.5 C 4.5,10.5 5.5,10.5 6.5,10.5C 5.19322,13.1136 3.85989,15.7802 2.5,18.5C 2.62358,19.1067 2.95691,19.44 3.5,19.5C 3.09186,20.6431 2.42519,21.6431 1.5,22.5C 0.544922,41.6375 0.211589,60.6375 0.5,79.5C 0.166667,79.5 -0.166667,79.5 -0.5,79.5C -0.5,59.1667 -0.5,38.8333 -0.5,18.5C 0.285203,15.5962 1.61854,12.9296 3.5,10.5 Z"/></g>
<g><path style="opacity:1" fill="#8b868b" d="M 20.5,5.5 C 21.1667,5.5 21.5,5.83333 21.5,6.5C 21.5,9.16667 21.5,11.8333 21.5,14.5C 14.7649,14.7229 9.59828,17.7229 6,23.5C 5.82581,40.4072 5.32581,57.2405 4.5,74C 8.07411,80.4248 13.4074,84.2581 20.5,85.5C 20.5,88.1667 20.5,90.8333 20.5,93.5C 19.5,93.5 18.5,93.5 17.5,93.5C 12.9568,91.6283 9.29011,88.6283 6.5,84.5C 5.09267,82.6917 3.92601,80.6917 3,78.5C 2.87838,80.437 2.04504,81.7703 0.5,82.5C 0.5,81.5 0.5,80.5 0.5,79.5C 0.211589,60.6375 0.544922,41.6375 1.5,22.5C 2.42519,21.6431 3.09186,20.6431 3.5,19.5C 6.83936,11.8121 12.506,7.14545 20.5,5.5 Z"/></g>
<g><path style="opacity:1" fill="#c2cadc" d="M 25.5,9.5 C 47.7419,9.17286 69.9086,9.5062 92,10.5C 92.6667,14.1667 92.6667,17.8333 92,21.5C 89.0372,23.4606 86.3706,25.794 84,28.5C 83.3333,42.5 83.3333,56.5 84,70.5C 86.6667,73.1667 89.3333,75.8333 92,78.5C 92.7886,82.0915 92.6219,85.5915 91.5,89C 69.2606,89.8267 47.0939,89.66 25,88.5C 24.1747,84.7887 24.3414,81.122 25.5,77.5C 28.1506,75.3501 30.6506,73.0168 33,70.5C 33.6667,56.8333 33.6667,43.1667 33,29.5C 30.5318,26.2795 27.8651,23.2795 25,20.5C 24.2446,16.7446 24.4113,13.0779 25.5,9.5 Z"/></g>
<g><path style="opacity:1" fill="#ababb7" d="M 26.5,11.5 C 47.8333,11.5 69.1667,11.5 90.5,11.5C 90.8204,14.8984 90.487,18.2317 89.5,21.5C 86.8494,23.6499 84.3494,25.9832 82,28.5C 81.3333,42.5 81.3333,56.5 82,70.5C 84.6667,73.1667 87.3333,75.8333 90,78.5C 90.498,81.4816 90.6646,84.4816 90.5,87.5C 69.1667,87.5 47.8333,87.5 26.5,87.5C 26.3354,84.4816 26.502,81.4816 27,78.5C 29.6667,75.8333 32.3333,73.1667 35,70.5C 35.6667,56.5 35.6667,42.5 35,28.5C 32.3333,25.8333 29.6667,23.1667 27,20.5C 26.502,17.5184 26.3354,14.5184 26.5,11.5 Z"/></g>
<g><path style="opacity:1" fill="#9297b9" d="M 60.5,25.5 C 60.5,24.8333 60.8333,24.5 61.5,24.5C 62.8333,32.5 62.8333,40.5 61.5,48.5C 61.5,44.5 61.5,40.5 61.5,36.5C 59.8333,36.5 58.1667,36.5 56.5,36.5C 56.5,35.8333 56.5,35.1667 56.5,34.5C 58.1667,34.5 59.8333,34.5 61.5,34.5C 61.81,31.2869 61.4767,28.2869 60.5,25.5 Z"/></g>
<g><path style="opacity:1" fill="#a0aae5" d="M 56.5,36.5 C 56.5,40.5 56.5,44.5 56.5,48.5C 58.1667,48.5 59.8333,48.5 61.5,48.5C 61.5,49.1667 61.5,49.8333 61.5,50.5C 59.8333,50.5 58.1667,50.5 56.5,50.5C 56.5,54.5 56.5,58.5 56.5,62.5C 58.1667,62.5 59.8333,62.5 61.5,62.5C 61.5,63.1667 61.5,63.8333 61.5,64.5C 59.2188,64.0773 57.5521,64.744 56.5,66.5C 55.1667,56.5 55.1667,46.5 56.5,36.5 Z"/></g>
<g><path style="opacity:1" fill="#677ee0" d="M 56.5,36.5 C 58.1667,36.5 59.8333,36.5 61.5,36.5C 61.5,40.5 61.5,44.5 61.5,48.5C 59.8333,48.5 58.1667,48.5 56.5,48.5C 56.5,44.5 56.5,40.5 56.5,36.5 Z"/></g>
<g><path style="opacity:1" fill="#6980e0" d="M 60.5,25.5 C 61.4767,28.2869 61.81,31.2869 61.5,34.5C 59.8333,34.5 58.1667,34.5 56.5,34.5C 56.0541,30.6397 57.3875,27.6397 60.5,25.5 Z"/></g>
<g><path style="opacity:1" fill="#d1d1dd" d="M 61.5,24.5 C 60.8333,24.5 60.5,24.8333 60.5,25.5C 57.3875,27.6397 56.0541,30.6397 56.5,34.5C 56.5,35.1667 56.5,35.8333 56.5,36.5C 55.1667,46.5 55.1667,56.5 56.5,66.5C 57.0787,69.3311 58.412,71.6644 60.5,73.5C 60.8039,74.1499 61.1373,74.8165 61.5,75.5C 56.544,76.4941 51.544,76.8275 46.5,76.5C 46.5,73.1667 46.5,69.8333 46.5,66.5C 44.1667,66.5 41.8333,66.5 39.5,66.5C 39.5,57.5 39.5,48.5 39.5,39.5C 41.8333,39.5 44.1667,39.5 46.5,39.5C 46.5,33.8333 46.5,28.1667 46.5,22.5C 51.9443,21.8917 56.9443,22.5583 61.5,24.5 Z"/></g>
<g><path style="opacity:1" fill="#b2a285" d="M 30.5,52.5 C 30.5,53.1667 30.5,53.8333 30.5,54.5C -1.5,53.8333 -1.5,53.1667 30.5,52.5 Z"/></g>
<g><path style="opacity:1" fill="#6a80e2" d="M 61.5,50.5 C 61.5,54.5 61.5,58.5 61.5,62.5C 59.8333,62.5 58.1667,62.5 56.5,62.5C 56.5,58.5 56.5,54.5 56.5,50.5C 58.1667,50.5 59.8333,50.5 61.5,50.5 Z"/></g>
<g><path style="opacity:1" fill="#948f94" d="M 86.5,54.5 C 90.8333,54.5 95.1667,54.5 99.5,54.5C 99.5,59.8333 99.5,65.1667 99.5,70.5C 96.1667,70.5 92.8333,70.5 89.5,70.5C 88.5416,70.0472 87.7083,69.3805 87,68.5C 86.5008,63.8452 86.3342,59.1785 86.5,54.5 Z"/></g>
<g><path style="opacity:1" fill="#958f94" d="M 21.5,14.5 C 20.5889,19.3671 21.9222,23.3671 25.5,26.5C 19.1318,26.1703 12.7985,26.5037 6.5,27.5C 13.4684,28.497 20.4684,28.8303 27.5,28.5C 28.4584,28.9528 29.2917,29.6195 30,30.5C 30.4997,37.8258 30.6663,45.1591 30.5,52.5C -1.5,53.1667 -1.5,53.8333 30.5,54.5C 30.6658,59.1785 30.4992,63.8452 30,68.5C 29.2917,69.3805 28.4584,70.0472 27.5,70.5C 20.4684,70.1697 13.4684,70.503 6.5,71.5C 12.7985,72.4963 19.1318,72.8297 25.5,72.5C 24.5423,73.9616 23.3756,75.2949 22,76.5C 21.8272,82.3482 21.3272,88.0149 20.5,93.5C 20.5,90.8333 20.5,88.1667 20.5,85.5C 13.4074,84.2581 8.07411,80.4248 4.5,74C 5.32581,57.2405 5.82581,40.4072 6,23.5C 9.59828,17.7229 14.7649,14.7229 21.5,14.5 Z"/></g>
<g><path style="opacity:1" fill="#697dde" d="M 61.5,64.5 C 61.81,67.7131 61.4767,70.7131 60.5,73.5C 58.412,71.6644 57.0787,69.3311 56.5,66.5C 57.5521,64.744 59.2188,64.0773 61.5,64.5 Z"/></g>
<g><path style="opacity:1" fill="#b9a583" d="M 27.5,70.5 C 27.1667,71.5 26.5,72.1667 25.5,72.5C 19.1318,72.8297 12.7985,72.4963 6.5,71.5C 13.4684,70.503 20.4684,70.1697 27.5,70.5 Z"/></g>
<g><path style="opacity:1" fill="#baa782" d="M 89.5,70.5 C 92.8333,70.5 96.1667,70.5 99.5,70.5C 99.5,71.1667 99.5,71.8333 99.5,72.5C 96.8333,72.5 94.1667,72.5 91.5,72.5C 90.5,72.1667 89.8333,71.5 89.5,70.5 Z"/></g>
<g><path style="opacity:1" fill="#a9afb5" d="M 6.5,84.5 C 5.83333,84.5 5.5,84.8333 5.5,85.5C 4.59603,86.209 4.26269,87.209 4.5,88.5C 2.68403,86.8816 1.3507,84.8816 0.5,82.5C 2.04504,81.7703 2.87838,80.437 3,78.5C 3.92601,80.6917 5.09267,82.6917 6.5,84.5 Z"/></g>
<g><path style="opacity:0.722" fill="#8d9094" d="M 5.5,85.5 C 7.38191,88.6227 9.71524,91.2894 12.5,93.5C 12.1667,93.5 11.8333,93.5 11.5,93.5C 8.84632,92.164 6.51299,90.4974 4.5,88.5C 4.26269,87.209 4.59603,86.209 5.5,85.5 Z"/></g>
<g><path style="opacity:1" fill="#878087" d="M 91.5,72.5 C 94.1667,72.5 96.8333,72.5 99.5,72.5C 99.5,79.5 99.5,86.5 99.5,93.5C 98.1667,93.5 96.8333,93.5 95.5,93.5C 95.6661,87.8236 95.4994,82.1569 95,76.5C 93.6244,75.2949 92.4577,73.9616 91.5,72.5 Z"/></g>
<g><path style="opacity:1" fill="#c5d1de" d="M 6.5,84.5 C 9.29011,88.6283 12.9568,91.6283 17.5,93.5C 18.8333,94.1667 20.1667,94.8333 21.5,95.5C 20.1667,95.5 18.8333,95.5 17.5,95.5C 15.7162,95.1075 14.0495,94.4408 12.5,93.5C 9.71524,91.2894 7.38191,88.6227 5.5,85.5C 5.5,84.8333 5.83333,84.5 6.5,84.5 Z"/></g>
<g><path style="opacity:1" fill="#94939f" d="M 94.5,96.5 C 68.6612,96.8311 42.9946,96.4978 17.5,95.5C 18.8333,95.5 20.1667,95.5 21.5,95.5C 22.404,94.791 22.7373,93.791 22.5,92.5C 46.5,92.5 70.5,92.5 94.5,92.5C 94.5,93.8333 94.5,95.1667 94.5,96.5 Z"/></g>
<g><path style="opacity:1" fill="#5e5d63" d="M 11.5,93.5 C 11.8333,93.5 12.1667,93.5 12.5,93.5C 14.0495,94.4408 15.7162,95.1075 17.5,95.5C 42.9946,96.4978 68.6612,96.8311 94.5,96.5C 96.1667,96.5 97.8333,96.5 99.5,96.5C 99.5,96.8333 99.5,97.1667 99.5,97.5C 73.5,97.5 47.5,97.5 21.5,97.5C 17.433,97.7937 14.0997,96.4603 11.5,93.5 Z"/></g>
<g><path style="opacity:0.867" fill="#c9c9ca" d="M 4.5,88.5 C 6.51299,90.4974 8.84632,92.164 11.5,93.5C 14.0997,96.4603 17.433,97.7937 21.5,97.5C 21.5,98.1667 21.5,98.8333 21.5,99.5C 19.8333,99.5 18.1667,99.5 16.5,99.5C 11.253,97.2555 7.25302,93.5888 4.5,88.5 Z"/></g>
<g><path style="opacity:0.084" fill="#959596" d="M 21.5,97.5 C 47.5,97.5 73.5,97.5 99.5,97.5C 99.5,98.1667 99.5,98.8333 99.5,99.5C 73.5,99.5 47.5,99.5 21.5,99.5C 21.5,98.8333 21.5,98.1667 21.5,97.5 Z"/></g>
</svg>
