<?xml version="1.0" encoding="UTF-8"?>
<!DOCTYPE svg PUBLIC "-//W3C//DTD SVG 1.1//EN" "http://www.w3.org/Graphics/SVG/1.1/DTD/svg11.dtd">
<svg xmlns="http://www.w3.org/2000/svg" version="1.1" width="100px" height="100px" style="shape-rendering:geometricPrecision; text-rendering:geometricPrecision; image-rendering:optimizeQuality; fill-rule:evenodd; clip-rule:evenodd" xmlns:xlink="http://www.w3.org/1999/xlink">
<g><path style="opacity:0.267" fill="#d9e0e6" d="M 27.5,3.5 C 26.9218,5.38019 25.5885,6.38019 23.5,6.5C 21.9704,6.36015 20.9704,5.69348 20.5,4.5C 22.6074,3.53178 24.9407,3.19845 27.5,3.5 Z"/></g>
<g><path style="opacity:0.794" fill="#cbd0d9" d="M 41.5,3.5 C 47.8333,3.5 54.1667,3.5 60.5,3.5C 54.395,4.99648 48.0616,5.66315 41.5,5.5C 41.5,4.83333 41.5,4.16667 41.5,3.5 Z"/></g>
<g><path style="opacity:0.971" fill="#a1acbb" d="M 60.5,3.5 C 65.1667,3.5 69.8333,3.5 74.5,3.5C 76.1175,4.97231 78.1175,5.63897 80.5,5.5C 82.3328,5.41456 83.6661,4.7479 84.5,3.5C 85.5,3.5 86.5,3.5 87.5,3.5C 88.9239,5.71453 91.0906,6.71453 94,6.5C 95.6811,6.39174 96.8478,5.72507 97.5,4.5C 98.1667,4.5 98.8333,4.5 99.5,4.5C 99.5,5.5 99.5,6.5 99.5,7.5C 91.5052,7.06454 83.5052,6.73121 75.5,6.5C 63.0112,6.09627 50.3445,6.09627 37.5,6.5C 38.5676,5.56552 39.901,5.23219 41.5,5.5C 48.0616,5.66315 54.395,4.99648 60.5,3.5 Z"/></g>
<g><path style="opacity:0.82" fill="#cbd2d9" d="M 74.5,3.5 C 77.8333,3.5 81.1667,3.5 84.5,3.5C 83.6661,4.7479 82.3328,5.41456 80.5,5.5C 78.1175,5.63897 76.1175,4.97231 74.5,3.5 Z"/></g>
<g><path style="opacity:0.624" fill="#ccd3dc" d="M 87.5,3.5 C 91.0419,3.18723 94.3752,3.52056 97.5,4.5C 96.8478,5.72507 95.6811,6.39174 94,6.5C 91.0906,6.71453 88.9239,5.71453 87.5,3.5 Z"/></g>
<g><path style="opacity:0.62" fill="#d4d9e1" d="M 12.5,4.5 C 10.8413,6.34274 8.67459,7.34274 6,7.5C 4.62439,7.31577 3.79106,6.64911 3.5,5.5C 6.2869,4.52333 9.2869,4.19 12.5,4.5 Z"/></g>
<g><path style="opacity:0.961" fill="#aab4c1" d="M 27.5,3.5 C 32.1667,3.5 36.8333,3.5 41.5,3.5C 41.5,4.16667 41.5,4.83333 41.5,5.5C 39.901,5.23219 38.5676,5.56552 37.5,6.5C 31.3124,6.75659 25.3124,7.42326 19.5,8.5C 12.8333,8.5 6.16667,8.5 -0.5,8.5C -0.5,7.5 -0.5,6.5 -0.5,5.5C 0.833333,5.5 2.16667,5.5 3.5,5.5C 3.79106,6.64911 4.62439,7.31577 6,7.5C 8.67459,7.34274 10.8413,6.34274 12.5,4.5C 15.1667,4.5 17.8333,4.5 20.5,4.5C 20.9704,5.69348 21.9704,6.36015 23.5,6.5C 25.5885,6.38019 26.9218,5.38019 27.5,3.5 Z"/></g>
<g><path style="opacity:1" fill="#74899e" d="M -0.5,23.5 C -0.5,18.5 -0.5,13.5 -0.5,8.5C 6.16667,8.5 12.8333,8.5 19.5,8.5C 30.5186,7.79193 41.5186,7.79193 52.5,8.5C 50.8007,12.7777 51.4674,16.6111 54.5,20C 36.1685,21.2542 17.8352,22.4209 -0.5,23.5 Z"/></g>
<g><path style="opacity:1" fill="#75899e" d="M 75.5,6.5 C 83.5052,6.73121 91.5052,7.06454 99.5,7.5C 99.5,18.1667 99.5,28.8333 99.5,39.5C 98.2101,40.0577 97.3768,41.0577 97,42.5C 95.0817,48.5951 95.415,54.5951 98,60.5C 98.3826,61.056 98.8826,61.3893 99.5,61.5C 99.5,71.8333 99.5,82.1667 99.5,92.5C 94.0494,93.5075 88.7161,94.5075 83.5,95.5C 83.1667,95.5 82.8333,95.5 82.5,95.5C 62.7702,95.7688 43.1035,95.1021 23.5,93.5C 15.6864,92.3687 7.68642,91.702 -0.5,91.5C -0.5,86.5 -0.5,81.5 -0.5,76.5C 20.8294,77.6331 42.1628,78.6331 63.5,79.5C 63.3334,65.8293 63.5001,52.1626 64,38.5C 64.3599,36.3921 65.0266,34.3921 66,32.5C 66.1747,36.211 66.6747,39.8776 67.5,43.5C 68.086,43.2907 68.586,42.9574 69,42.5C 69.3333,39.8333 69.6667,37.1667 70,34.5C 70.6667,33.8333 71.3333,33.1667 72,32.5C 76.4024,37.4958 77.4024,36.4958 75,29.5C 73,28.1667 71,28.1667 69,29.5C 68.7266,27.8988 68.2266,26.3988 67.5,25C 70.0356,24.8138 72.369,24.3138 74.5,23.5C 75.6857,22.0387 75.6857,20.7054 74.5,19.5C 72.3926,18.5318 70.0593,18.1984 67.5,18.5C 67.2714,16.567 66.4381,14.9003 65,13.5C 64.4389,15.7254 63.4389,17.7254 62,19.5C 61.2825,20.4506 60.4491,20.6172 59.5,20C 60.7014,19.0975 61.5348,17.9308 62,16.5C 62.4983,13.1832 62.665,9.8499 62.5,6.5C 66.8333,6.5 71.1667,6.5 75.5,6.5 Z"/></g>
<g><path style="opacity:1" fill="#98a5b6" d="M 74.5,19.5 C 75.6857,20.7054 75.6857,22.0387 74.5,23.5C 72.1667,23.5 69.8333,23.5 67.5,23.5C 67.5,22.1667 67.5,20.8333 67.5,19.5C 69.8333,19.5 72.1667,19.5 74.5,19.5 Z"/></g>
<g><path style="opacity:1" fill="#7c90a1" d="M 75.5,6.5 C 71.1667,6.5 66.8333,6.5 62.5,6.5C 62.665,9.8499 62.4983,13.1832 62,16.5C 61.5348,17.9308 60.7014,19.0975 59.5,20C 60.4491,20.6172 61.2825,20.4506 62,19.5C 63.4389,17.7254 64.4389,15.7254 65,13.5C 66.4381,14.9003 67.2714,16.567 67.5,18.5C 70.0593,18.1984 72.3926,18.5318 74.5,19.5C 72.1667,19.5 69.8333,19.5 67.5,19.5C 67.5,20.8333 67.5,22.1667 67.5,23.5C 69.8333,23.5 72.1667,23.5 74.5,23.5C 72.369,24.3138 70.0356,24.8138 67.5,25C 68.2266,26.3988 68.7266,27.8988 69,29.5C 71,28.1667 73,28.1667 75,29.5C 77.4024,36.4958 76.4024,37.4958 72,32.5C 71.3333,33.1667 70.6667,33.8333 70,34.5C 69.6667,37.1667 69.3333,39.8333 69,42.5C 68.586,42.9574 68.086,43.2907 67.5,43.5C 66.6747,39.8776 66.1747,36.211 66,32.5C 65.0266,34.3921 64.3599,36.3921 64,38.5C 63.5001,52.1626 63.3334,65.8293 63.5,79.5C 42.1628,78.6331 20.8294,77.6331 -0.5,76.5C -0.5,58.8333 -0.5,41.1667 -0.5,23.5C 17.8352,22.4209 36.1685,21.2542 54.5,20C 51.4674,16.6111 50.8007,12.7777 52.5,8.5C 41.5186,7.79193 30.5186,7.79193 19.5,8.5C 25.3124,7.42326 31.3124,6.75659 37.5,6.5C 50.3445,6.09627 63.0112,6.09627 75.5,6.5 Z"/></g>
<g><path style="opacity:1" fill="#7b90a3" d="M 14.5,63.5 C 14.5,62.1667 14.5,60.8333 14.5,59.5C 15.5,59.5 16.5,59.5 17.5,59.5C 17.5,58.1667 17.5,56.8333 17.5,55.5C 16.5,55.5 15.5,55.5 14.5,55.5C 14.5,52.1667 14.5,48.8333 14.5,45.5C 15.5,45.5 16.5,45.5 17.5,45.5C 17.5,44.1667 17.5,42.8333 17.5,41.5C 16.5,41.5 15.5,41.5 14.5,41.5C 14.5,40.5 14.5,39.5 14.5,38.5C 20.4977,35.0358 25.4977,36.0358 29.5,41.5C 28.3112,42.4287 26.9778,42.762 25.5,42.5C 25.3341,47.5111 25.5007,52.5111 26,57.5C 27.2051,58.0712 28.3717,58.7379 29.5,59.5C 28.3523,61.1487 27.019,62.6487 25.5,64C 21.7789,64.6781 18.1122,64.5114 14.5,63.5 Z"/></g>
<g><path style="opacity:1" fill="#213242" d="M 47.5,45.5 C 47.8333,46.1667 48.1667,46.8333 48.5,47.5C 45.6627,49.4023 42.3293,50.069 38.5,49.5C 38.5,48.1667 38.5,46.8333 38.5,45.5C 41.3623,44.3187 44.3623,44.3187 47.5,45.5 Z"/></g>
<g><path style="opacity:1" fill="#1c2e3c" d="M 71.5,44.5 C 72.782,45.7082 72.782,47.0416 71.5,48.5C 70.6143,47.675 70.281,46.675 70.5,45.5C 70.5,44.8333 70.8333,44.5 71.5,44.5 Z"/></g>
<g><path style="opacity:1" fill="#9ba9b9" d="M 48.5,54.5 C 49.7563,52.059 49.7563,49.7257 48.5,47.5C 48.1667,46.8333 47.8333,46.1667 47.5,45.5C 46.3857,43.6469 47.0524,43.1469 49.5,44C 53.4504,48.1747 53.4504,52.3414 49.5,56.5C 48.7025,56.0431 48.3691,55.3764 48.5,54.5 Z"/></g>
<g><path style="opacity:1" fill="#334454" d="M 74.5,43.5 C 74.8333,43.5 75.1667,43.5 75.5,43.5C 77.153,43.6596 78.4863,44.3263 79.5,45.5C 78.6909,47.2922 78.1909,49.2922 78,51.5C 76.9887,50.6634 75.8221,50.33 74.5,50.5C 74.5,48.1667 74.5,45.8333 74.5,43.5 Z"/></g>
<g><path style="opacity:1" fill="#7b90a3" d="M 99.5,44.5 C 99.5,48.8333 99.5,53.1667 99.5,57.5C 98.8826,57.3893 98.3826,57.056 98,56.5C 97.8333,54.5 97.6667,52.5 97.5,50.5C 97.5391,48.0478 98.2057,46.0478 99.5,44.5 Z"/></g>
<g><path style="opacity:1" fill="#3e4e5d" d="M 71.5,44.5 C 71.8417,43.6618 72.5084,43.3284 73.5,43.5C 73.5,47.5 73.5,51.5 73.5,55.5C 74.8333,55.5 76.1667,55.5 77.5,55.5C 76.5514,56.1524 75.3847,56.4857 74,56.5C 72.3189,56.3917 71.1522,55.7251 70.5,54.5C 72.1765,53.8166 72.8432,52.4832 72.5,50.5C 71.5,50.5 70.5,50.5 69.5,50.5C 69.7373,49.209 69.404,48.209 68.5,47.5C 68.8333,46.5 69.5,45.8333 70.5,45.5C 70.281,46.675 70.6143,47.675 71.5,48.5C 72.782,47.0416 72.782,45.7082 71.5,44.5 Z"/></g>
<g><path style="opacity:1" fill="#283948" d="M 73.5,43.5 C 73.8333,43.5 74.1667,43.5 74.5,43.5C 74.5,45.8333 74.5,48.1667 74.5,50.5C 75.8221,50.33 76.9887,50.6634 78,51.5C 78.1909,49.2922 78.6909,47.2922 79.5,45.5C 81.6395,47.8814 81.9729,50.5481 80.5,53.5C 79.2905,53.9321 78.2905,54.5987 77.5,55.5C 76.1667,55.5 74.8333,55.5 73.5,55.5C 73.5,51.5 73.5,47.5 73.5,43.5 Z"/></g>
<g><path style="opacity:1" fill="#99a6b6" d="M 80.5,53.5 C 81.9729,50.5481 81.6395,47.8814 79.5,45.5C 78.4863,44.3263 77.153,43.6596 75.5,43.5C 75.62,42.4138 76.2867,41.7472 77.5,41.5C 84.0444,43.0315 86.2111,47.0315 84,53.5C 83.3878,56.0317 81.8878,56.8651 79.5,56C 80.2524,55.3292 80.5858,54.4959 80.5,53.5 Z"/></g>
<g><path style="opacity:1" fill="#364655" d="M 38.5,45.5 C 38.5,46.8333 38.5,48.1667 38.5,49.5C 42.3293,50.069 45.6627,49.4023 48.5,47.5C 49.7563,49.7257 49.7563,52.059 48.5,54.5C 48.1667,54.5 47.8333,54.5 47.5,54.5C 45.0122,52.6122 42.0122,51.9455 38.5,52.5C 38.5,53.5 38.5,54.5 38.5,55.5C 37.8826,55.3893 37.3826,55.056 37,54.5C 36.3333,51.8333 36.3333,49.1667 37,46.5C 37.3826,45.944 37.8826,45.6107 38.5,45.5 Z"/></g>
<g><path style="opacity:1" fill="#293848" d="M 68.5,47.5 C 69.404,48.209 69.7373,49.209 69.5,50.5C 70.5,50.5 71.5,50.5 72.5,50.5C 72.8432,52.4832 72.1765,53.8166 70.5,54.5C 69.8826,54.3893 69.3826,54.056 69,53.5C 68.5045,51.5273 68.3379,49.5273 68.5,47.5 Z"/></g>
<g><path style="opacity:1" fill="#223243" d="M 47.5,54.5 C 46.8333,55.1667 46.1667,55.8333 45.5,56.5C 43.0504,56.702 40.717,56.3686 38.5,55.5C 38.5,54.5 38.5,53.5 38.5,52.5C 42.0122,51.9455 45.0122,52.6122 47.5,54.5 Z"/></g>
<g><path style="opacity:1" fill="#657a8e" d="M 99.5,39.5 C 99.5,41.1667 99.5,42.8333 99.5,44.5C 98.2057,46.0478 97.5391,48.0478 97.5,50.5C 97.6667,52.5 97.8333,54.5 98,56.5C 98.3826,57.056 98.8826,57.3893 99.5,57.5C 99.5,58.8333 99.5,60.1667 99.5,61.5C 98.8826,61.3893 98.3826,61.056 98,60.5C 95.415,54.5951 95.0817,48.5951 97,42.5C 97.3768,41.0577 98.2101,40.0577 99.5,39.5 Z"/></g>
<g><path style="opacity:1" fill="#5e7488" d="M 13.5,37.5 C 14.1667,37.5 14.5,37.8333 14.5,38.5C 14.5,39.5 14.5,40.5 14.5,41.5C 15.5,41.5 16.5,41.5 17.5,41.5C 17.5,42.8333 17.5,44.1667 17.5,45.5C 16.5,45.5 15.5,45.5 14.5,45.5C 14.5,48.8333 14.5,52.1667 14.5,55.5C 15.5,55.5 16.5,55.5 17.5,55.5C 17.5,56.8333 17.5,58.1667 17.5,59.5C 16.5,59.5 15.5,59.5 14.5,59.5C 14.5,60.8333 14.5,62.1667 14.5,63.5C 14.1667,63.5 13.8333,63.5 13.5,63.5C 13.5,54.8333 13.5,46.1667 13.5,37.5 Z"/></g>
<g><path style="opacity:1" fill="#586675" d="M 38.5,55.5 C 40.717,56.3686 43.0504,56.702 45.5,56.5C 44.5514,57.1524 43.3847,57.4857 42,57.5C 40.3189,57.3917 39.1522,56.7251 38.5,55.5 Z"/></g>
<g><path style="opacity:1" fill="#708497" d="M 13.5,63.5 C 13.8333,63.5 14.1667,63.5 14.5,63.5C 18.1122,64.5114 21.7789,64.6781 25.5,64C 27.019,62.6487 28.3523,61.1487 29.5,59.5C 28.3717,58.7379 27.2051,58.0712 26,57.5C 25.5007,52.5111 25.3341,47.5111 25.5,42.5C 26.9778,42.762 28.3112,42.4287 29.5,41.5C 25.4977,36.0358 20.4977,35.0358 14.5,38.5C 14.5,37.8333 14.1667,37.5 13.5,37.5C 20.7789,32.4218 26.6122,33.7551 31,41.5C 34.0691,50.5862 32.5691,58.7529 26.5,66C 22.9106,67.5372 19.244,67.5372 15.5,66C 14.6195,65.2917 13.9528,64.4584 13.5,63.5 Z"/></g>
<g><path style="opacity:1" fill="#97a5b6" d="M 67.5,75.5 C 69.8568,75.3367 72.1902,75.5034 74.5,76C 75.8333,77.3333 75.8333,78.6667 74.5,80C 72.1902,80.4966 69.8568,80.6633 67.5,80.5C 67.5,78.8333 67.5,77.1667 67.5,75.5 Z"/></g>
<g><path style="opacity:0.9" fill="#8d9cac" d="M -0.5,92.5 C -0.5,92.1667 -0.5,91.8333 -0.5,91.5C 7.68642,91.702 15.6864,92.3687 23.5,93.5C 15.4827,93.4988 7.48272,93.1655 -0.5,92.5 Z"/></g>
<g><path style="opacity:0.031" fill="#d4dae2" d="M -0.5,93.5 C 1.85684,93.3367 4.19018,93.5034 6.5,94C 7.25244,94.6708 7.58577,95.5041 7.5,96.5C 4.83333,96.5 2.16667,96.5 -0.5,96.5C -0.5,95.5 -0.5,94.5 -0.5,93.5 Z"/></g>
<g><path style="opacity:0.05" fill="#aeb8c4" d="M -0.5,93.5 C -0.5,93.1667 -0.5,92.8333 -0.5,92.5C 7.48272,93.1655 15.4827,93.4988 23.5,93.5C 43.1035,95.1021 62.7702,95.7688 82.5,95.5C 81.8333,96.5 81.1667,97.5 80.5,98.5C 78.1667,98.5 75.8333,98.5 73.5,98.5C 73.3893,97.8826 73.056,97.3826 72.5,97C 70.3333,96.8333 68.1667,96.6667 66,96.5C 63.3897,96.5332 61.223,97.1999 59.5,98.5C 54.1667,98.5 48.8333,98.5 43.5,98.5C 42.1016,96.4672 40.1016,95.4672 37.5,95.5C 35.9704,95.6399 34.9704,96.3065 34.5,97.5C 31.1667,97.5 27.8333,97.5 24.5,97.5C 24.5,96.5 24.5,95.5 24.5,94.5C 20.6707,93.931 17.3373,94.5977 14.5,96.5C 12.1667,96.5 9.83333,96.5 7.5,96.5C 7.58577,95.5041 7.25244,94.6708 6.5,94C 4.19018,93.5034 1.85684,93.3367 -0.5,93.5 Z"/></g>
<g><path style="opacity:0.102" fill="#dde2e9" d="M 99.5,94.5 C 99.5,95.5 99.5,96.5 99.5,97.5C 98.1667,97.5 96.8333,97.5 95.5,97.5C 95.5,96.5 95.5,95.5 95.5,94.5C 96.8333,94.5 98.1667,94.5 99.5,94.5 Z"/></g>
<g><path style="opacity:0.006" fill="#dde2e9" d="M 24.5,97.5 C 20.9581,97.8128 17.6248,97.4794 14.5,96.5C 17.3373,94.5977 20.6707,93.931 24.5,94.5C 24.5,95.5 24.5,96.5 24.5,97.5 Z"/></g>
<g><path style="opacity:0.224" fill="#dcdfe7" d="M 43.5,98.5 C 40.2869,98.81 37.2869,98.4767 34.5,97.5C 34.9704,96.3065 35.9704,95.6399 37.5,95.5C 40.1016,95.4672 42.1016,96.4672 43.5,98.5 Z"/></g>
<g><path style="opacity:0.839" fill="#d8dee5" d="M 73.5,98.5 C 73.5,98.8333 73.5,99.1667 73.5,99.5C 68.8333,99.5 64.1667,99.5 59.5,99.5C 59.5,99.1667 59.5,98.8333 59.5,98.5C 61.223,97.1999 63.3897,96.5332 66,96.5C 68.1667,96.6667 70.3333,96.8333 72.5,97C 73.056,97.3826 73.3893,97.8826 73.5,98.5 Z"/></g>
<g><path style="opacity:0.016" fill="#a8b4c0" d="M 99.5,92.5 C 99.5,93.1667 99.5,93.8333 99.5,94.5C 98.1667,94.5 96.8333,94.5 95.5,94.5C 95.5,95.5 95.5,96.5 95.5,97.5C 93.5,97.5 91.5,97.5 89.5,97.5C 88.0821,95.6921 86.0821,95.0254 83.5,95.5C 88.7161,94.5075 94.0494,93.5075 99.5,92.5 Z"/></g>
<g><path style="opacity:0.024" fill="#d7dbe3" d="M 82.5,95.5 C 82.8333,95.5 83.1667,95.5 83.5,95.5C 86.0821,95.0254 88.0821,95.6921 89.5,97.5C 86.7131,98.4767 83.7131,98.81 80.5,98.5C 81.1667,97.5 81.8333,96.5 82.5,95.5 Z"/></g>
</svg>
