<?xml version="1.0" encoding="UTF-8"?>
<!DOCTYPE svg PUBLIC "-//W3C//DTD SVG 1.1//EN" "http://www.w3.org/Graphics/SVG/1.1/DTD/svg11.dtd">
<svg xmlns="http://www.w3.org/2000/svg" version="1.1" width="100px" height="100px" style="shape-rendering:geometricPrecision; text-rendering:geometricPrecision; image-rendering:optimizeQuality; fill-rule:evenodd; clip-rule:evenodd" xmlns:xlink="http://www.w3.org/1999/xlink">
<g><path style="opacity:0.145" fill="#b0bbc6" d="M -0.5,2.5 C 0.5,2.5 1.5,2.5 2.5,2.5C 2.69408,4.91176 4.02741,5.91176 6.5,5.5C 5.43236,6.43448 4.09903,6.76781 2.5,6.5C 1.5,6.5 0.5,6.5 -0.5,6.5C -0.5,5.16667 -0.5,3.83333 -0.5,2.5 Z"/></g>
<g><path style="opacity:0.102" fill="#dae0e7" d="M 2.5,2.5 C 4.09903,2.23219 5.43236,2.56552 6.5,3.5C 6.5,4.16667 6.5,4.83333 6.5,5.5C 4.02741,5.91176 2.69408,4.91176 2.5,2.5 Z"/></g>
<g><path style="opacity:0.098" fill="#b4bdc7" d="M 6.5,3.5 C 7.5,3.5 8.5,3.5 9.5,3.5C 9.43255,4.95875 9.76589,6.29208 10.5,7.5C 9.83333,7.5 9.16667,7.5 8.5,7.5C 8.5,6.16667 7.83333,5.5 6.5,5.5C 6.5,4.83333 6.5,4.16667 6.5,3.5 Z"/></g>
<g><path style="opacity:0.098" fill="#d2d8e0" d="M 9.5,3.5 C 11.099,3.23219 12.4324,3.56552 13.5,4.5C 13.5,5.5 13.5,6.5 13.5,7.5C 12.5,7.5 11.5,7.5 10.5,7.5C 9.76589,6.29208 9.43255,4.95875 9.5,3.5 Z"/></g>
<g><path style="opacity:0.933" fill="#9ba6b4" d="M 6.5,5.5 C 7.83333,5.5 8.5,6.16667 8.5,7.5C 6.26465,7.79472 4.26465,7.46138 2.5,6.5C 4.09903,6.76781 5.43236,6.43448 6.5,5.5 Z"/></g>
<g><path style="opacity:0.106" fill="#d7dde3" d="M 16.5,4.5 C 17.609,4.55688 18.609,4.89022 19.5,5.5C 19.7148,7.17876 19.0481,8.17876 17.5,8.5C 17.1667,8.5 16.8333,8.5 16.5,8.5C 16.5,7.16667 16.5,5.83333 16.5,4.5 Z"/></g>
<g><path style="opacity:0.09" fill="#c4cdd7" d="M 20.5,5.5 C 21.1667,5.5 21.8333,5.5 22.5,5.5C 22.5,6.83333 22.5,8.16667 22.5,9.5C 21.8333,9.5 21.1667,9.5 20.5,9.5C 20.5,8.16667 20.5,6.83333 20.5,5.5 Z"/></g>
<g><path style="opacity:0.09" fill="#dce2e8" d="M 22.5,5.5 C 23.8333,5.5 24.5,6.16667 24.5,7.5C 24.5,8.83333 23.8333,9.5 22.5,9.5C 22.5,8.16667 22.5,6.83333 22.5,5.5 Z"/></g>
<g><path style="opacity:0.882" fill="#b8bfcc" d="M 13.5,4.5 C 14.5,4.5 15.5,4.5 16.5,4.5C 16.5,5.83333 16.5,7.16667 16.5,8.5C 15.209,8.73731 14.209,8.40397 13.5,7.5C 13.5,6.5 13.5,5.5 13.5,4.5 Z"/></g>
<g><path style="opacity:0.057" fill="#dadfe5" d="M 27.5,7.5 C 28.4916,7.32842 29.1583,7.66175 29.5,8.5C 29.6309,9.37644 29.2975,10.0431 28.5,10.5C 27.6143,9.67504 27.281,8.67504 27.5,7.5 Z"/></g>
<g><path style="opacity:1" fill="#75899e" d="M -0.5,6.5 C 0.5,6.5 1.5,6.5 2.5,6.5C 4.26465,7.46138 6.26465,7.79472 8.5,7.5C 9.16667,7.5 9.83333,7.5 10.5,7.5C 11.5,7.5 12.5,7.5 13.5,7.5C 14.209,8.40397 15.209,8.73731 16.5,8.5C 16.8333,8.5 17.1667,8.5 17.5,8.5C 18.209,9.40397 19.209,9.73731 20.5,9.5C 27.992,11.7198 35.6587,13.7198 43.5,15.5C 45.3024,16.4582 47.3024,17.1249 49.5,17.5C 51.9296,19.3815 54.5962,20.7148 57.5,21.5C 54.2374,20.8619 51.0707,20.8619 48,21.5C 49.1611,24.8349 50.6611,28.1683 52.5,31.5C 51.5318,33.6074 51.1984,35.9407 51.5,38.5C 48.2869,38.19 45.2869,38.5233 42.5,39.5C 42.5,40.1667 42.5,40.8333 42.5,41.5C 45.2869,42.4767 48.2869,42.81 51.5,42.5C 51.5,45.8333 51.5,49.1667 51.5,52.5C 48.2869,52.19 45.2869,52.5233 42.5,53.5C 42.5,54.1667 42.5,54.8333 42.5,55.5C 42.5,55.8333 42.5,56.1667 42.5,56.5C 41.8333,56.8333 41.1667,57.1667 40.5,57.5C 40.621,49.8343 40.621,42.1677 40.5,34.5C 39.3192,32.9328 37.6526,32.0995 35.5,32C 27.7004,30.2888 23.367,33.4555 22.5,41.5C 21.5269,43.9479 21.1936,46.6146 21.5,49.5C 20.0075,47.0977 19.0075,44.431 18.5,41.5C 18.5,40.8333 18.5,40.1667 18.5,39.5C 17.791,38.596 16.791,38.2627 15.5,38.5C 15.6641,35.8127 15.4974,33.146 15,30.5C 12.921,26.0074 10.5877,21.674 8,17.5C 5.41252,15.8042 2.57918,14.8042 -0.5,14.5C -0.5,11.8333 -0.5,9.16667 -0.5,6.5 Z"/></g>
<g><path style="opacity:0.847" fill="#a5b1bd" d="M 19.5,5.5 C 19.8333,5.5 20.1667,5.5 20.5,5.5C 20.5,6.83333 20.5,8.16667 20.5,9.5C 19.209,9.73731 18.209,9.40397 17.5,8.5C 19.0481,8.17876 19.7148,7.17876 19.5,5.5 Z"/></g>
<g><path style="opacity:0.518" fill="#b0bbc6" d="M 24.5,7.5 C 25.5,7.5 26.5,7.5 27.5,7.5C 27.281,8.67504 27.6143,9.67504 28.5,10.5C 29.2975,10.0431 29.6309,9.37644 29.5,8.5C 30.5,8.5 31.5,8.5 32.5,8.5C 32.281,9.67504 32.6143,10.675 33.5,11.5C 34.1067,11.3764 34.44,11.0431 34.5,10.5C 35.1667,10.5 35.8333,10.5 36.5,10.5C 36.8041,12.7957 37.8041,13.129 39.5,11.5C 39.8333,11.5 40.1667,11.5 40.5,11.5C 40.2852,13.1788 40.9519,14.1788 42.5,14.5C 43.1667,14.5 43.5,14.8333 43.5,15.5C 35.6587,13.7198 27.992,11.7198 20.5,9.5C 21.1667,9.5 21.8333,9.5 22.5,9.5C 23.8333,9.5 24.5,8.83333 24.5,7.5 Z"/></g>
<g><path style="opacity:0.259" fill="#dbe4ea" d="M 32.5,8.5 C 33.8333,8.5 34.5,9.16667 34.5,10.5C 34.44,11.0431 34.1067,11.3764 33.5,11.5C 32.6143,10.675 32.281,9.67504 32.5,8.5 Z"/></g>
<g><path style="opacity:0.267" fill="#dde3e9" d="M 36.5,10.5 C 37.791,10.2627 38.791,10.596 39.5,11.5C 37.8041,13.129 36.8041,12.7957 36.5,10.5 Z"/></g>
<g><path style="opacity:0.204" fill="#d7dde4" d="M 40.5,11.5 C 41.791,11.2627 42.791,11.596 43.5,12.5C 43.1667,13.1667 42.8333,13.8333 42.5,14.5C 40.9519,14.1788 40.2852,13.1788 40.5,11.5 Z"/></g>
<g><path style="opacity:0.037" fill="#c0c9d2" d="M 43.5,12.5 C 45.5,12.8333 47.5,13.1667 49.5,13.5C 49.1307,15.9935 49.7973,16.6602 51.5,15.5C 53.2915,15.366 54.9582,15.6993 56.5,16.5C 56.7107,18.4241 57.3774,18.7574 58.5,17.5C 61.221,17.9628 63.8877,18.6295 66.5,19.5C 66.5271,21.1993 67.1938,22.5326 68.5,23.5C 65.5,22.8333 62.5,22.1667 59.5,21.5C 56.7382,19.2345 53.4049,17.9011 49.5,17.5C 47.3024,17.1249 45.3024,16.4582 43.5,15.5C 43.5,14.8333 43.1667,14.5 42.5,14.5C 42.8333,13.8333 43.1667,13.1667 43.5,12.5 Z"/></g>
<g><path style="opacity:0.031" fill="#e2e9f1" d="M 49.5,13.5 C 50.5,13.8333 51.1667,14.5 51.5,15.5C 49.7973,16.6602 49.1307,15.9935 49.5,13.5 Z"/></g>
<g><path style="opacity:0.184" fill="#dce4e9" d="M 56.5,16.5 C 57.4916,16.3284 58.1583,16.6618 58.5,17.5C 57.3774,18.7574 56.7107,18.4241 56.5,16.5 Z"/></g>
<g><path style="opacity:0.984" fill="#95a2b2" d="M 49.5,17.5 C 53.4049,17.9011 56.7382,19.2345 59.5,21.5C 58.8333,21.5 58.1667,21.5 57.5,21.5C 54.5962,20.7148 51.9296,19.3815 49.5,17.5 Z"/></g>
<g><path style="opacity:1" fill="#758a9e" d="M 57.5,21.5 C 58.1667,21.5 58.8333,21.5 59.5,21.5C 62.5,22.1667 65.5,22.8333 68.5,23.5C 68.5,24.1667 68.5,24.8333 68.5,25.5C 65.6424,25.5954 63.3091,26.7621 61.5,29C 62.2529,30.487 63.0862,30.6537 64,29.5C 64.6743,31.5165 65.8409,33.1832 67.5,34.5C 67.2907,35.086 66.9574,35.586 66.5,36C 68.3333,37.1667 69.8333,38.6667 71,40.5C 71.3333,39.8333 71.6667,39.1667 72,38.5C 74.0183,45.5339 76.8516,52.2006 80.5,58.5C 81.6888,59.4287 83.0222,59.762 84.5,59.5C 84.2627,60.791 84.596,61.791 85.5,62.5C 85.5,62.8333 85.5,63.1667 85.5,63.5C 83.4471,63.4021 81.7804,64.0687 80.5,65.5C 78.6316,66.2632 76.9649,67.2632 75.5,68.5C 72.0836,68.5275 69.0836,69.5275 66.5,71.5C 63.2609,72.4617 60.2609,73.7951 57.5,75.5C 55.7085,75.366 54.0418,75.6993 52.5,76.5C 50.5,76.8333 48.5,77.1667 46.5,77.5C 45.9569,77.44 45.6236,77.1067 45.5,76.5C 48.0594,72.7145 50.0594,68.7145 51.5,64.5C 52.4946,53.6794 52.8279,42.6794 52.5,31.5C 50.6611,28.1683 49.1611,24.8349 48,21.5C 51.0707,20.8619 54.2374,20.8619 57.5,21.5 Z"/></g>
<g><path style="opacity:0.106" fill="#dce1e6" d="M 66.5,19.5 C 68.674,19.7497 70.3406,20.7497 71.5,22.5C 70.609,23.1098 69.609,23.4431 68.5,23.5C 67.1938,22.5326 66.5271,21.1993 66.5,19.5 Z"/></g>
<g><path style="opacity:0.027" fill="#d5dce3" d="M 72.5,22.5 C 74.153,22.6596 75.4863,23.3263 76.5,24.5C 76.1583,25.3382 75.4916,25.6716 74.5,25.5C 73.4489,24.7777 72.7822,23.7777 72.5,22.5 Z"/></g>
<g><path style="opacity:0.855" fill="#b0b9c5" d="M 71.5,22.5 C 71.8333,22.5 72.1667,22.5 72.5,22.5C 72.7822,23.7777 73.4489,24.7777 74.5,25.5C 72.8333,25.5 71.1667,25.5 69.5,25.5C 69.1667,25.5 68.8333,25.5 68.5,25.5C 68.5,24.8333 68.5,24.1667 68.5,23.5C 69.609,23.4431 70.609,23.1098 71.5,22.5 Z"/></g>
<g><path style="opacity:0.69" fill="#9ba7b5" d="M 69.5,25.5 C 71.1667,25.5 72.8333,25.5 74.5,25.5C 75.5511,26.2223 76.2178,27.2223 76.5,28.5C 74.1761,27.3443 71.8428,26.3443 69.5,25.5 Z"/></g>
<g><path style="opacity:1" fill="#74889d" d="M 68.5,25.5 C 68.8333,25.5 69.1667,25.5 69.5,25.5C 71.8428,26.3443 74.1761,27.3443 76.5,28.5C 77.791,28.2627 78.791,28.596 79.5,29.5C 80.8333,30.5 82.1667,31.5 83.5,32.5C 83.2338,36.5705 83.5672,40.5705 84.5,44.5C 83.9984,45.521 83.3317,45.6877 82.5,45C 81.782,43.0126 80.782,41.1792 79.5,39.5C 78.2801,39.8869 77.6135,40.7202 77.5,42C 78.4081,45.2249 79.7414,48.2249 81.5,51C 84.2175,52.033 86.0508,51.1997 87,48.5C 87.5813,44.8105 87.4147,41.1438 86.5,37.5C 86.6399,35.9704 87.3065,34.9704 88.5,34.5C 91.1932,35.8466 93.8599,37.1799 96.5,38.5C 96.9731,39.9063 97.9731,40.573 99.5,40.5C 99.5,45.1667 99.5,49.8333 99.5,54.5C 98.8333,54.5 98.1667,54.5 97.5,54.5C 96.5041,54.5858 95.6708,54.2524 95,53.5C 93.8904,55.0368 92.3904,55.7035 90.5,55.5C 90.4208,54.0695 90.7542,52.7362 91.5,51.5C 92.2739,50.2888 93.1072,50.2888 94,51.5C 94.5022,48.4869 95.0022,45.4869 95.5,42.5C 93.5,42.5 91.5,42.5 89.5,42.5C 89.6621,44.5273 89.4955,46.5273 89,48.5C 85.9709,52.8413 84.8042,57.508 85.5,62.5C 84.596,61.791 84.2627,60.791 84.5,59.5C 83.0222,59.762 81.6888,59.4287 80.5,58.5C 76.8516,52.2006 74.0183,45.5339 72,38.5C 71.6667,39.1667 71.3333,39.8333 71,40.5C 69.8333,38.6667 68.3333,37.1667 66.5,36C 66.9574,35.586 67.2907,35.086 67.5,34.5C 65.8409,33.1832 64.6743,31.5165 64,29.5C 63.0862,30.6537 62.2529,30.487 61.5,29C 63.3091,26.7621 65.6424,25.5954 68.5,25.5 Z"/></g>
<g><path style="opacity:0.498" fill="#cad1d9" d="M 76.5,24.5 C 82.9883,26.6874 88.9883,29.6874 94.5,33.5C 94.2648,34.0967 93.7648,34.4301 93,34.5C 91.1997,33.6805 89.3664,33.0138 87.5,32.5C 85.1098,30.9802 82.4432,29.9802 79.5,29.5C 78.791,28.596 77.791,28.2627 76.5,28.5C 76.2178,27.2223 75.5511,26.2223 74.5,25.5C 75.4916,25.6716 76.1583,25.3382 76.5,24.5 Z"/></g>
<g><path style="opacity:1" fill="#64798d" d="M 67.5,28.5 C 68.9311,28.8807 69.7645,29.8807 70,31.5C 70.3076,30.6919 70.8076,30.0253 71.5,29.5C 72.2811,30.7287 72.7811,32.062 73,33.5C 74.2465,31.1192 74.5798,31.4525 74,34.5C 69.5933,35.2702 67.4266,33.2702 67.5,28.5 Z"/></g>
<g><path style="opacity:0.965" fill="#9ea9b7" d="M 79.5,29.5 C 82.4432,29.9802 85.1098,30.9802 87.5,32.5C 87.5,32.8333 87.5,33.1667 87.5,33.5C 86.1667,33.1667 84.8333,32.8333 83.5,32.5C 82.1667,31.5 80.8333,30.5 79.5,29.5 Z"/></g>
<g><path style="opacity:1" fill="#667b8f" d="M 40.5,34.5 C 39.8333,34.5 39.5,34.8333 39.5,35.5C 31.6285,31.1917 26.2952,33.1917 23.5,41.5C 23.1667,41.5 22.8333,41.5 22.5,41.5C 23.367,33.4555 27.7004,30.2888 35.5,32C 37.6526,32.0995 39.3192,32.9328 40.5,34.5 Z"/></g>
<g><path style="opacity:1" fill="#798ea1" d="M 39.5,35.5 C 39.5,36.5 39.5,37.5 39.5,38.5C 38.5,38.5 37.5,38.5 36.5,38.5C 36.5,39.8333 36.5,41.1667 36.5,42.5C 37.5,42.5 38.5,42.5 39.5,42.5C 39.5,45.8333 39.5,49.1667 39.5,52.5C 38.5,52.5 37.5,52.5 36.5,52.5C 36.5,53.8333 36.5,55.1667 36.5,56.5C 37.5,56.5 38.5,56.5 39.5,56.5C 39.5,57.5 39.5,58.5 39.5,59.5C 35.6489,61.1692 31.6489,61.6692 27.5,61C 25.5056,58.8425 24.1723,56.3425 23.5,53.5C 24.5,53.5 25.5,53.5 26.5,53.5C 26.5,49.5 26.5,45.5 26.5,41.5C 25.5,41.5 24.5,41.5 23.5,41.5C 26.2952,33.1917 31.6285,31.1917 39.5,35.5 Z"/></g>
<g><path style="opacity:0.096" fill="#d7dfe7" d="M 95.5,33.5 C 96.8333,34.5 98.1667,35.5 99.5,36.5C 99.5,37.5 99.5,38.5 99.5,39.5C 98.609,38.8902 97.609,38.5569 96.5,38.5C 95.6993,36.9582 95.366,35.2915 95.5,33.5 Z"/></g>
<g><path style="opacity:1" fill="#7a8fa3" d="M -0.5,33.5 C 1.85398,33.838 4.18732,34.338 6.5,35C 7.33663,36.0113 7.66997,37.1779 7.5,38.5C 6.16667,38.5 4.83333,38.5 3.5,38.5C 3.5,39.8333 3.5,41.1667 3.5,42.5C 4.83333,42.5 6.16667,42.5 7.5,42.5C 7.5,45.8333 7.5,49.1667 7.5,52.5C 6.16667,52.5 4.83333,52.5 3.5,52.5C 3.5,53.8333 3.5,55.1667 3.5,56.5C 4.83333,56.5 6.16667,56.5 7.5,56.5C 7.66997,57.8221 7.33663,58.9887 6.5,60C 4.18732,60.662 1.85398,61.162 -0.5,61.5C -0.5,52.1667 -0.5,42.8333 -0.5,33.5 Z"/></g>
<g><path style="opacity:0.741" fill="#b8c1cb" d="M 87.5,33.5 C 87.5,33.1667 87.5,32.8333 87.5,32.5C 89.3664,33.0138 91.1997,33.6805 93,34.5C 93.7648,34.4301 94.2648,34.0967 94.5,33.5C 94.8333,33.5 95.1667,33.5 95.5,33.5C 95.366,35.2915 95.6993,36.9582 96.5,38.5C 93.8599,37.1799 91.1932,35.8466 88.5,34.5C 88.5,33.8333 88.1667,33.5 87.5,33.5 Z"/></g>
<g><path style="opacity:1" fill="#7a8fa2" d="M 83.5,32.5 C 84.8333,32.8333 86.1667,33.1667 87.5,33.5C 88.1667,33.5 88.5,33.8333 88.5,34.5C 87.3065,34.9704 86.6399,35.9704 86.5,37.5C 87.4147,41.1438 87.5813,44.8105 87,48.5C 86.0508,51.1997 84.2175,52.033 81.5,51C 79.7414,48.2249 78.4081,45.2249 77.5,42C 77.6135,40.7202 78.2801,39.8869 79.5,39.5C 80.782,41.1792 81.782,43.0126 82.5,45C 83.3317,45.6877 83.9984,45.521 84.5,44.5C 83.5672,40.5705 83.2338,36.5705 83.5,32.5 Z"/></g>
<g><path style="opacity:0.686" fill="#acb6c0" d="M 96.5,38.5 C 97.609,38.5569 98.609,38.8902 99.5,39.5C 99.5,39.8333 99.5,40.1667 99.5,40.5C 97.9731,40.573 96.9731,39.9063 96.5,38.5 Z"/></g>
<g><path style="opacity:1" fill="#8d9fb1" d="M 18.5,39.5 C 18.5,40.1667 18.5,40.8333 18.5,41.5C 7.83333,40.8333 7.83333,40.1667 18.5,39.5 Z"/></g>
<g><path style="opacity:1" fill="#8d9fb0" d="M 42.5,39.5 C 53.1667,40.1667 53.1667,40.8333 42.5,41.5C 42.5,40.8333 42.5,40.1667 42.5,39.5 Z"/></g>
<g><path style="opacity:1" fill="#7b90a3" d="M 22.5,41.5 C 22.8333,41.5 23.1667,41.5 23.5,41.5C 24.5,41.5 25.5,41.5 26.5,41.5C 26.5,45.5 26.5,49.5 26.5,53.5C 25.5,53.5 24.5,53.5 23.5,53.5C 22.5166,49.7016 22.1832,45.7016 22.5,41.5 Z"/></g>
<g><path style="opacity:1" fill="#758a9e" d="M -0.5,14.5 C 2.57918,14.8042 5.41252,15.8042 8,17.5C 10.5877,21.674 12.921,26.0074 15,30.5C 15.4974,33.146 15.6641,35.8127 15.5,38.5C 16.791,38.2627 17.791,38.596 18.5,39.5C 7.83333,40.1667 7.83333,40.8333 18.5,41.5C 19.0075,44.431 20.0075,47.0977 21.5,49.5C 21.6187,56.76 24.952,61.76 31.5,64.5C 33.5,64 35.5,63.5 37.5,63C 38.9423,62.6232 39.9423,61.7899 40.5,60.5C 40.5,59.5 40.5,58.5 40.5,57.5C 41.1667,57.1667 41.8333,56.8333 42.5,56.5C 45.5,56.5 48.5,56.5 51.5,56.5C 51.5,59.1667 51.5,61.8333 51.5,64.5C 50.0594,68.7145 48.0594,72.7145 45.5,76.5C 45.6236,77.1067 45.9569,77.44 46.5,77.5C 46.5,77.8333 46.5,78.1667 46.5,78.5C 41.6444,79.5437 36.9777,80.877 32.5,82.5C 29.4467,82.1107 26.78,82.7773 24.5,84.5C 24.1667,84.5 23.8333,84.5 23.5,84.5C 16.6764,85.6335 10.0097,86.9668 3.5,88.5C 2.16667,88.5 0.833333,88.5 -0.5,88.5C -0.5,80.5 -0.5,72.5 -0.5,64.5C 2.17938,63.7739 4.84605,62.9406 7.5,62C 8.28921,59.733 8.95588,57.3997 9.5,55C 8.1923,50.1536 8.1923,45.3203 9.5,40.5C 8.78681,38.2241 8.28681,35.8907 8,33.5C 5.31349,32.287 2.48016,31.6203 -0.5,31.5C -0.5,25.8333 -0.5,20.1667 -0.5,14.5 Z"/></g>
<g><path style="opacity:1" fill="#7b8fa2" d="M 97.5,54.5 C 96.8333,55.5 96.1667,56.5 95.5,57.5C 94.5084,57.3284 93.8417,57.6618 93.5,58.5C 91.0337,59.2977 89.0337,60.631 87.5,62.5C 86.8333,62.5 86.1667,62.5 85.5,62.5C 84.8042,57.508 85.9709,52.8413 89,48.5C 89.4955,46.5273 89.6621,44.5273 89.5,42.5C 91.5,42.5 93.5,42.5 95.5,42.5C 95.0022,45.4869 94.5022,48.4869 94,51.5C 93.1072,50.2888 92.2739,50.2888 91.5,51.5C 90.7542,52.7362 90.4208,54.0695 90.5,55.5C 92.3904,55.7035 93.8904,55.0368 95,53.5C 95.6708,54.2524 96.5041,54.5858 97.5,54.5 Z"/></g>
<g><path style="opacity:1" fill="#7c90a3" d="M 52.5,31.5 C 52.8279,42.6794 52.4946,53.6794 51.5,64.5C 51.5,61.8333 51.5,59.1667 51.5,56.5C 48.5,56.5 45.5,56.5 42.5,56.5C 42.5,56.1667 42.5,55.8333 42.5,55.5C 53.1667,54.8333 53.1667,54.1667 42.5,53.5C 45.2869,52.5233 48.2869,52.19 51.5,52.5C 51.5,49.1667 51.5,45.8333 51.5,42.5C 48.2869,42.81 45.2869,42.4767 42.5,41.5C 53.1667,40.8333 53.1667,40.1667 42.5,39.5C 45.2869,38.5233 48.2869,38.19 51.5,38.5C 51.1984,35.9407 51.5318,33.6074 52.5,31.5 Z"/></g>
<g><path style="opacity:1" fill="#61778b" d="M -0.5,31.5 C 2.48016,31.6203 5.31349,32.287 8,33.5C 8.28681,35.8907 8.78681,38.2241 9.5,40.5C 8.1923,45.3203 8.1923,50.1536 9.5,55C 8.95588,57.3997 8.28921,59.733 7.5,62C 4.84605,62.9406 2.17938,63.7739 -0.5,64.5C -0.5,63.5 -0.5,62.5 -0.5,61.5C 1.85398,61.162 4.18732,60.662 6.5,60C 7.33663,58.9887 7.66997,57.8221 7.5,56.5C 6.16667,56.5 4.83333,56.5 3.5,56.5C 3.5,55.1667 3.5,53.8333 3.5,52.5C 4.83333,52.5 6.16667,52.5 7.5,52.5C 7.5,49.1667 7.5,45.8333 7.5,42.5C 6.16667,42.5 4.83333,42.5 3.5,42.5C 3.5,41.1667 3.5,39.8333 3.5,38.5C 4.83333,38.5 6.16667,38.5 7.5,38.5C 7.66997,37.1779 7.33663,36.0113 6.5,35C 4.18732,34.338 1.85398,33.838 -0.5,33.5C -0.5,32.8333 -0.5,32.1667 -0.5,31.5 Z"/></g>
<g><path style="opacity:1" fill="#8899ab" d="M 10.5,53.5 C 13.1667,53.5 15.8333,53.5 18.5,53.5C 18.5,54.5 18.5,55.5 18.5,56.5C 15.8333,56.5 13.1667,56.5 10.5,56.5C 10.5,55.5 10.5,54.5 10.5,53.5 Z"/></g>
<g><path style="opacity:1" fill="#5d7388" d="M 40.5,34.5 C 40.621,42.1677 40.621,49.8343 40.5,57.5C 40.5,58.5 40.5,59.5 40.5,60.5C 39.8333,60.5 39.5,60.1667 39.5,59.5C 39.5,58.5 39.5,57.5 39.5,56.5C 38.5,56.5 37.5,56.5 36.5,56.5C 36.5,55.1667 36.5,53.8333 36.5,52.5C 37.5,52.5 38.5,52.5 39.5,52.5C 39.5,49.1667 39.5,45.8333 39.5,42.5C 38.5,42.5 37.5,42.5 36.5,42.5C 36.5,41.1667 36.5,39.8333 36.5,38.5C 37.5,38.5 38.5,38.5 39.5,38.5C 39.5,37.5 39.5,36.5 39.5,35.5C 39.5,34.8333 39.8333,34.5 40.5,34.5 Z"/></g>
<g><path style="opacity:1" fill="#8a9bad" d="M 42.5,53.5 C 53.1667,54.1667 53.1667,54.8333 42.5,55.5C 42.5,54.8333 42.5,54.1667 42.5,53.5 Z"/></g>
<g><path style="opacity:0.463" fill="#b4bbc6" d="M 97.5,54.5 C 98.1667,54.5 98.8333,54.5 99.5,54.5C 99.5,55.1667 99.5,55.8333 99.5,56.5C 98.1667,56.8333 96.8333,57.1667 95.5,57.5C 96.1667,56.5 96.8333,55.5 97.5,54.5 Z"/></g>
<g><path style="opacity:1" fill="#65798e" d="M 69.5,60.5 C 71.1667,60.5 72.8333,60.5 74.5,60.5C 74.5193,65.016 72.186,67.016 67.5,66.5C 67.2525,64.1417 67.9192,62.1417 69.5,60.5 Z"/></g>
<g><path style="opacity:0.553" fill="#a9b3c0" d="M 93.5,58.5 C 92.267,60.7964 90.267,62.1298 87.5,62.5C 89.0337,60.631 91.0337,59.2977 93.5,58.5 Z"/></g>
<g><path style="opacity:1" fill="#667b8f" d="M 22.5,41.5 C 22.1832,45.7016 22.5166,49.7016 23.5,53.5C 24.1723,56.3425 25.5056,58.8425 27.5,61C 31.6489,61.6692 35.6489,61.1692 39.5,59.5C 39.5,60.1667 39.8333,60.5 40.5,60.5C 39.9423,61.7899 38.9423,62.6232 37.5,63C 35.5,63.5 33.5,64 31.5,64.5C 24.952,61.76 21.6187,56.76 21.5,49.5C 21.1936,46.6146 21.5269,43.9479 22.5,41.5 Z"/></g>
<g><path style="opacity:0.073" fill="#cdd3db" d="M 99.5,56.5 C 99.5,57.1667 99.5,57.8333 99.5,58.5C 94.1394,61.512 88.8061,64.512 83.5,67.5C 83.5271,65.8007 84.1938,64.4674 85.5,63.5C 85.5,63.1667 85.5,62.8333 85.5,62.5C 86.1667,62.5 86.8333,62.5 87.5,62.5C 90.267,62.1298 92.267,60.7964 93.5,58.5C 93.8417,57.6618 94.5084,57.3284 95.5,57.5C 96.8333,57.1667 98.1667,56.8333 99.5,56.5 Z"/></g>
<g><path style="opacity:0.263" fill="#b0b9c6" d="M 85.5,63.5 C 84.1938,64.4674 83.5271,65.8007 83.5,67.5C 83.1667,67.5 82.8333,67.5 82.5,67.5C 82.5,66.1667 81.8333,65.5 80.5,65.5C 81.7804,64.0687 83.4471,63.4021 85.5,63.5 Z"/></g>
<g><path style="opacity:0.784" fill="#a6b1bd" d="M 75.5,68.5 C 73.7857,69.7384 71.7857,70.405 69.5,70.5C 69.6495,71.552 69.4828,72.552 69,73.5C 68.5831,72.244 67.7498,71.5774 66.5,71.5C 69.0836,69.5275 72.0836,68.5275 75.5,68.5 Z"/></g>
<g><path style="opacity:0.008" fill="#ced5dc" d="M 80.5,65.5 C 81.8333,65.5 82.5,66.1667 82.5,67.5C 77.5086,70.7275 72.1753,73.3942 66.5,75.5C 66.5,74.1667 66.5,72.8333 66.5,71.5C 67.7498,71.5774 68.5831,72.244 69,73.5C 69.4828,72.552 69.6495,71.552 69.5,70.5C 71.7857,70.405 73.7857,69.7384 75.5,68.5C 76.9649,67.2632 78.6316,66.2632 80.5,65.5 Z"/></g>
<g><path style="opacity:0.51" fill="#b1bac6" d="M 66.5,71.5 C 66.5,72.8333 66.5,74.1667 66.5,75.5C 66.1667,75.5 65.8333,75.5 65.5,75.5C 65.6309,74.6236 65.2975,73.9569 64.5,73.5C 63.6143,74.325 63.281,75.325 63.5,76.5C 63.1667,76.5 62.8333,76.5 62.5,76.5C 62.6309,75.6236 62.2975,74.9569 61.5,74.5C 60.6143,75.325 60.281,76.325 60.5,77.5C 60.1667,77.5 59.8333,77.5 59.5,77.5C 59.1667,76.5 58.5,75.8333 57.5,75.5C 60.2609,73.7951 63.2609,72.4617 66.5,71.5 Z"/></g>
<g><path style="opacity:0.129" fill="#d1d7de" d="M 65.5,75.5 C 65.1583,76.3382 64.4916,76.6716 63.5,76.5C 63.281,75.325 63.6143,74.325 64.5,73.5C 65.2975,73.9569 65.6309,74.6236 65.5,75.5 Z"/></g>
<g><path style="opacity:0.184" fill="#d5d9e2" d="M 62.5,76.5 C 62.1583,77.3382 61.4916,77.6716 60.5,77.5C 60.281,76.325 60.6143,75.325 61.5,74.5C 62.2975,74.9569 62.6309,75.6236 62.5,76.5 Z"/></g>
<g><path style="opacity:0.365" fill="#b7c0cb" d="M 57.5,75.5 C 57.5,76.8333 57.5,78.1667 57.5,79.5C 56.8333,79.5 56.1667,79.5 55.5,79.5C 54.7325,75.861 54.0658,76.1943 53.5,80.5C 53.1667,80.5 52.8333,80.5 52.5,80.5C 52.5,79.1667 51.8333,78.5 50.5,78.5C 51.1667,77.8333 51.8333,77.1667 52.5,76.5C 54.0418,75.6993 55.7085,75.366 57.5,75.5 Z"/></g>
<g><path style="opacity:0.014" fill="#d9e1e6" d="M 57.5,75.5 C 58.5,75.8333 59.1667,76.5 59.5,77.5C 59.1667,78.5 58.5,79.1667 57.5,79.5C 57.5,78.1667 57.5,76.8333 57.5,75.5 Z"/></g>
<g><path style="opacity:0.42" fill="#a4b0be" d="M 52.5,76.5 C 51.8333,77.1667 51.1667,77.8333 50.5,78.5C 49.596,79.209 49.2627,80.209 49.5,81.5C 49.1667,81.5 48.8333,81.5 48.5,81.5C 48.0679,80.2905 47.4013,79.2905 46.5,78.5C 46.5,78.1667 46.5,77.8333 46.5,77.5C 48.5,77.1667 50.5,76.8333 52.5,76.5 Z"/></g>
<g><path style="opacity:0.059" fill="#d6dce4" d="M 55.5,79.5 C 55.1583,80.3382 54.4916,80.6716 53.5,80.5C 54.0658,76.1943 54.7325,75.861 55.5,79.5 Z"/></g>
<g><path style="opacity:0.094" fill="#d4dae3" d="M 50.5,78.5 C 51.8333,78.5 52.5,79.1667 52.5,80.5C 51.609,81.1098 50.609,81.4431 49.5,81.5C 49.2627,80.209 49.596,79.209 50.5,78.5 Z"/></g>
<g><path style="opacity:0.973" fill="#a2acba" d="M 46.5,78.5 C 44.4679,79.9067 42.3013,81.2401 40,82.5C 37.6457,82.1084 35.1457,82.1084 32.5,82.5C 36.9777,80.877 41.6444,79.5437 46.5,78.5 Z"/></g>
<g><path style="opacity:0.243" fill="#c8ced7" d="M 46.5,78.5 C 47.4013,79.2905 48.0679,80.2905 48.5,81.5C 44.7607,83.1016 40.7607,84.1016 36.5,84.5C 34.4017,83.0857 33.4017,83.7524 33.5,86.5C 33.1667,86.5 32.8333,86.5 32.5,86.5C 32.5,85.5 32.5,84.5 32.5,83.5C 32.5,83.1667 32.5,82.8333 32.5,82.5C 35.1457,82.1084 37.6457,82.1084 40,82.5C 42.3013,81.2401 44.4679,79.9067 46.5,78.5 Z"/></g>
<g><path style="opacity:0.894" fill="#8f9eae" d="M 32.5,82.5 C 32.5,82.8333 32.5,83.1667 32.5,83.5C 29.7938,83.5751 27.1272,83.9084 24.5,84.5C 26.78,82.7773 29.4467,82.1107 32.5,82.5 Z"/></g>
<g><path style="opacity:0.298" fill="#afbac6" d="M 32.5,83.5 C 32.5,84.5 32.5,85.5 32.5,86.5C 32.1667,86.5 31.8333,86.5 31.5,86.5C 31.1788,84.9519 30.1788,84.2852 28.5,84.5C 28.5,85.5 28.5,86.5 28.5,87.5C 27.8333,87.5 27.1667,87.5 26.5,87.5C 26.1788,85.9519 25.1788,85.2852 23.5,85.5C 23.5,85.1667 23.5,84.8333 23.5,84.5C 23.8333,84.5 24.1667,84.5 24.5,84.5C 27.1272,83.9084 29.7938,83.5751 32.5,83.5 Z"/></g>
<g><path style="opacity:0.014" fill="#dce4ea" d="M 36.5,84.5 C 36.0269,85.9063 35.0269,86.573 33.5,86.5C 33.4017,83.7524 34.4017,83.0857 36.5,84.5 Z"/></g>
<g><path style="opacity:0.082" fill="#d6dbe3" d="M 31.5,86.5 C 30.609,87.1098 29.609,87.4431 28.5,87.5C 28.5,86.5 28.5,85.5 28.5,84.5C 30.1788,84.2852 31.1788,84.9519 31.5,86.5 Z"/></g>
<g><path style="opacity:0.757" fill="#99a6b5" d="M 23.5,84.5 C 23.5,84.8333 23.5,85.1667 23.5,85.5C 21.9582,86.3007 20.2915,86.634 18.5,86.5C 13.586,87.7074 8.58602,88.3741 3.5,88.5C 10.0097,86.9668 16.6764,85.6335 23.5,84.5 Z"/></g>
<g><path style="opacity:0.255" fill="#cfd7df" d="M 23.5,85.5 C 25.1788,85.2852 26.1788,85.9519 26.5,87.5C 23.7273,88.6572 20.7273,89.3239 17.5,89.5C 17.5569,88.391 17.8902,87.391 18.5,86.5C 20.2915,86.634 21.9582,86.3007 23.5,85.5 Z"/></g>
<g><path style="opacity:0.027" fill="#dee2e8" d="M 15.5,89.5 C 14.791,90.404 13.791,90.7373 12.5,90.5C 13.0527,88.4482 14.0527,88.1148 15.5,89.5 Z"/></g>
<g><path style="opacity:0.051" fill="#b2bcc9" d="M 18.5,86.5 C 17.8902,87.391 17.5569,88.391 17.5,89.5C 16.8333,89.5 16.1667,89.5 15.5,89.5C 14.0527,88.1148 13.0527,88.4482 12.5,90.5C 11.1667,90.5 9.83333,90.5 8.5,90.5C 8.08305,89.8761 7.41638,89.5427 6.5,89.5C 5.28665,89.7472 4.61998,90.4138 4.5,91.5C 3.83333,91.5 3.16667,91.5 2.5,91.5C 1.60895,90.8902 0.608953,90.5569 -0.5,90.5C -0.5,89.8333 -0.5,89.1667 -0.5,88.5C 0.833333,88.5 2.16667,88.5 3.5,88.5C 8.58602,88.3741 13.586,87.7074 18.5,86.5 Z"/></g>
<g><path style="opacity:0.051" fill="#d4d8e2" d="M 8.5,90.5 C 7.43236,91.4345 6.09903,91.7678 4.5,91.5C 4.61998,90.4138 5.28665,89.7472 6.5,89.5C 7.41638,89.5427 8.08305,89.8761 8.5,90.5 Z"/></g>
<g><path style="opacity:0.031" fill="#e3e8ee" d="M -0.5,90.5 C 0.608953,90.5569 1.60895,90.8902 2.5,91.5C 2.02694,92.9063 1.02694,93.573 -0.5,93.5C -0.5,92.5 -0.5,91.5 -0.5,90.5 Z"/></g>
<g><path style="opacity:0.008" fill="#a9b6c2" d="M 76.5,91.5 C 80.31,92.2458 80.31,93.2458 76.5,94.5C 76.5,93.5 76.5,92.5 76.5,91.5 Z"/></g>
<g><path style="opacity:0.028" fill="#e4e8ed" d="M 76.5,91.5 C 76.5,92.5 76.5,93.5 76.5,94.5C 75.791,95.404 74.791,95.7373 73.5,95.5C 73.4208,94.0695 73.7542,92.7362 74.5,91.5C 75.2565,90.2267 75.9232,90.2267 76.5,91.5 Z"/></g>
</svg>
