<?xml version="1.0" encoding="UTF-8"?>
<!DOCTYPE svg PUBLIC "-//W3C//DTD SVG 1.1//EN" "http://www.w3.org/Graphics/SVG/1.1/DTD/svg11.dtd">
<svg xmlns="http://www.w3.org/2000/svg" version="1.1" width="100px" height="100px" style="shape-rendering:geometricPrecision; text-rendering:geometricPrecision; image-rendering:optimizeQuality; fill-rule:evenodd; clip-rule:evenodd" xmlns:xlink="http://www.w3.org/1999/xlink">
<g><path style="opacity:0.196" fill="#bdc7d0" d="M 11.5,-0.5 C 13.5,-0.5 15.5,-0.5 17.5,-0.5C 17.4431,0.608953 17.1098,1.60895 16.5,2.5C 14.2188,2.92271 12.5521,2.25605 11.5,0.5C 11.5,0.166667 11.5,-0.166667 11.5,-0.5 Z"/></g>
<g><path style="opacity:0.196" fill="#92a0ae" d="M 17.5,-0.5 C 18.8333,-0.5 20.1667,-0.5 21.5,-0.5C 20.9517,2.08382 19.285,3.08382 16.5,2.5C 17.1098,1.60895 17.4431,0.608953 17.5,-0.5 Z"/></g>
<g><path style="opacity:0.184" fill="#bdc8ce" d="M 27.5,-0.5 C 27.8333,-0.5 28.1667,-0.5 28.5,-0.5C 29.5,0.166667 30.5,0.833333 31.5,1.5C 29.5168,1.84316 28.1834,1.17649 27.5,-0.5 Z"/></g>
<g><path style="opacity:0.439" fill="#91a0ad" d="M 26.5,-0.5 C 26.8333,-0.5 27.1667,-0.5 27.5,-0.5C 28.1834,1.17649 29.5168,1.84316 31.5,1.5C 31.8333,1.5 32.1667,1.5 32.5,1.5C 33.5511,2.22235 34.2178,3.22235 34.5,4.5C 31.8333,3.83333 29.1667,3.16667 26.5,2.5C 26.5,1.5 26.5,0.5 26.5,-0.5 Z"/></g>
<g><path style="opacity:0.261" fill="#d6dcde" d="M 87.5,1.5 C 89.2646,0.538616 91.2646,0.205283 93.5,0.5C 91.9007,2.72883 89.9007,3.06216 87.5,1.5 Z"/></g>
<g><path style="opacity:0.949" fill="#a1abb5" d="M -0.5,0.5 C 2.16667,0.5 4.83333,0.5 7.5,0.5C 5.6086,3.17173 2.94194,4.17173 -0.5,3.5C -0.5,2.5 -0.5,1.5 -0.5,0.5 Z"/></g>
<g><path style="opacity:1" fill="#5e7286" d="M 21.5,-0.5 C 23.1667,-0.5 24.8333,-0.5 26.5,-0.5C 26.5,0.5 26.5,1.5 26.5,2.5C 29.1667,3.16667 31.8333,3.83333 34.5,4.5C 34.8333,4.5 35.1667,4.5 35.5,4.5C 31.1667,5.16667 26.8333,5.83333 22.5,6.5C 14.8363,6.88862 7.16965,7.22195 -0.5,7.5C -0.5,6.16667 -0.5,4.83333 -0.5,3.5C 2.94194,4.17173 5.6086,3.17173 7.5,0.5C 8.83333,0.5 10.1667,0.5 11.5,0.5C 12.5521,2.25605 14.2188,2.92271 16.5,2.5C 19.285,3.08382 20.9517,2.08382 21.5,-0.5 Z"/></g>
<g><path style="opacity:0.871" fill="#b9c2cb" d="M 93.5,0.5 C 94.8333,0.5 96.1667,0.5 97.5,0.5C 97.0472,1.45837 96.3805,2.2917 95.5,3C 92.854,3.49742 90.1873,3.66409 87.5,3.5C 87.5,2.83333 87.5,2.16667 87.5,1.5C 89.9007,3.06216 91.9007,2.72883 93.5,0.5 Z"/></g>
<g><path style="opacity:0.208" fill="#a9b4c0" d="M 32.5,1.5 C 37.0327,2.98355 41.6993,3.65022 46.5,3.5C 46.5,4.16667 46.5,4.83333 46.5,5.5C 44.901,5.23219 43.5676,5.56552 42.5,6.5C 41.1667,6.5 39.8333,6.5 38.5,6.5C 38.5,5.83333 38.1667,5.5 37.5,5.5C 36.8333,5.16667 36.1667,4.83333 35.5,4.5C 35.1667,4.5 34.8333,4.5 34.5,4.5C 34.2178,3.22235 33.5511,2.22235 32.5,1.5 Z"/></g>
<g><path style="opacity:0.71" fill="#c9cfd7" d="M 67.5,1.5 C 66.8515,3.58639 65.3515,4.58639 63,4.5C 61.3009,4.61345 60.1342,3.94678 59.5,2.5C 62.0545,1.61197 64.7212,1.27863 67.5,1.5 Z"/></g>
<g><path style="opacity:0.945" fill="#c3cbd2" d="M 54.5,2.5 C 54.4431,3.60895 54.1098,4.60895 53.5,5.5C 51.1667,5.5 48.8333,5.5 46.5,5.5C 46.5,4.83333 46.5,4.16667 46.5,3.5C 48.9479,2.52693 51.6146,2.1936 54.5,2.5 Z"/></g>
<g><path style="opacity:0.977" fill="#9ea9b8" d="M 67.5,1.5 C 69.5,1.5 71.5,1.5 73.5,1.5C 76.0898,4.05946 78.7565,4.05946 81.5,1.5C 83.5,1.5 85.5,1.5 87.5,1.5C 87.5,2.16667 87.5,2.83333 87.5,3.5C 76.2628,5.25676 64.9294,5.92342 53.5,5.5C 54.1098,4.60895 54.4431,3.60895 54.5,2.5C 56.1667,2.5 57.8333,2.5 59.5,2.5C 60.1342,3.94678 61.3009,4.61345 63,4.5C 65.3515,4.58639 66.8515,3.58639 67.5,1.5 Z"/></g>
<g><path style="opacity:0.059" fill="#c8cfd7" d="M 73.5,1.5 C 76.1667,1.5 78.8333,1.5 81.5,1.5C 78.7565,4.05946 76.0898,4.05946 73.5,1.5 Z"/></g>
<g><path style="opacity:1" fill="#7f8e9e" d="M 35.5,4.5 C 36.1667,4.83333 36.8333,5.16667 37.5,5.5C 32.6946,6.48717 27.6946,6.82051 22.5,6.5C 26.8333,5.83333 31.1667,5.16667 35.5,4.5 Z"/></g>
<g><path style="opacity:1" fill="#8b9aac" d="M 37.5,5.5 C 38.1667,5.5 38.5,5.83333 38.5,6.5C 36.369,7.31382 34.0356,7.81382 31.5,8C 20.8385,8.49984 10.1719,8.6665 -0.5,8.5C -0.5,8.16667 -0.5,7.83333 -0.5,7.5C 7.16965,7.22195 14.8363,6.88862 22.5,6.5C 27.6946,6.82051 32.6946,6.48717 37.5,5.5 Z"/></g>
<g><path style="opacity:1" fill="#8899aa" d="M 97.5,0.5 C 98.1667,0.5 98.8333,0.5 99.5,0.5C 99.5,2.83333 99.5,5.16667 99.5,7.5C 94.4662,7.66384 89.4662,7.33051 84.5,6.5C 82.3848,7.07874 80.3848,7.91208 78.5,9C 68.7853,9.45845 59.1186,10.2918 49.5,11.5C 46.2356,10.6758 42.9023,10.3424 39.5,10.5C 49.1262,9.92105 58.7928,8.75439 68.5,7C 59.8397,6.50025 51.1731,6.33358 42.5,6.5C 43.5676,5.56552 44.901,5.23219 46.5,5.5C 48.8333,5.5 51.1667,5.5 53.5,5.5C 64.9294,5.92342 76.2628,5.25676 87.5,3.5C 90.1873,3.66409 92.854,3.49742 95.5,3C 96.3805,2.2917 97.0472,1.45837 97.5,0.5 Z"/></g>
<g><path style="opacity:1" fill="#798da1" d="M 38.5,6.5 C 39.8333,6.5 41.1667,6.5 42.5,6.5C 51.1731,6.33358 59.8397,6.50025 68.5,7C 58.7928,8.75439 49.1262,9.92105 39.5,10.5C 26.1461,11.5124 12.8127,12.5124 -0.5,13.5C -0.5,11.8333 -0.5,10.1667 -0.5,8.5C 10.1719,8.6665 20.8385,8.49984 31.5,8C 34.0356,7.81382 36.369,7.31382 38.5,6.5 Z"/></g>
<g><path style="opacity:1" fill="#a4b1bd" d="M 99.5,7.5 C 99.5,7.83333 99.5,8.16667 99.5,8.5C 83.52,10.0539 67.52,11.3872 51.5,12.5C 50.5084,12.6716 49.8417,12.3382 49.5,11.5C 59.1186,10.2918 68.7853,9.45845 78.5,9C 80.3848,7.91208 82.3848,7.07874 84.5,6.5C 89.4662,7.33051 94.4662,7.66384 99.5,7.5 Z"/></g>
<g><path style="opacity:1" fill="#8f9eae" d="M 39.5,10.5 C 42.9023,10.3424 46.2356,10.6758 49.5,11.5C 49.8417,12.3382 50.5084,12.6716 51.5,12.5C 50.0813,13.4511 48.4147,13.7845 46.5,13.5C 41.3068,12.4889 35.9735,12.6555 30.5,14C 31.448,14.4828 32.448,14.6495 33.5,14.5C 31.3926,15.4682 29.0593,15.8016 26.5,15.5C 25.036,14.8401 23.3693,14.5068 21.5,14.5C 14.1807,15.3874 6.84741,16.0541 -0.5,16.5C -0.5,15.5 -0.5,14.5 -0.5,13.5C 12.8127,12.5124 26.1461,11.5124 39.5,10.5 Z"/></g>
<g><path style="opacity:1" fill="#adb7c2" d="M 46.5,13.5 C 46.1667,13.5 45.8333,13.5 45.5,13.5C 41.5191,14.0209 37.5191,14.3542 33.5,14.5C 32.448,14.6495 31.448,14.4828 30.5,14C 35.9735,12.6555 41.3068,12.4889 46.5,13.5 Z"/></g>
<g><path style="opacity:1" fill="#acb7c2" d="M 26.5,15.5 C 23.9407,15.1984 21.6074,15.5318 19.5,16.5C 12.8333,16.8333 6.16667,17.1667 -0.5,17.5C -0.5,17.1667 -0.5,16.8333 -0.5,16.5C 6.84741,16.0541 14.1807,15.3874 21.5,14.5C 23.3693,14.5068 25.036,14.8401 26.5,15.5 Z"/></g>
<g><path style="opacity:1" fill="#7b8fa2" d="M 45.5,13.5 C 45.4142,14.4959 45.7476,15.3292 46.5,16C 44.548,17.4119 43.2147,19.2453 42.5,21.5C 40.5168,21.1568 39.1834,21.8235 38.5,23.5C 36.1103,23.8551 33.777,24.5217 31.5,25.5C 30.2739,25.4805 29.2739,25.1471 28.5,24.5C 26.4158,22.7253 25.2491,20.3919 25,17.5C 22.6883,20.1017 20.8549,19.7684 19.5,16.5C 21.6074,15.5318 23.9407,15.1984 26.5,15.5C 29.0593,15.8016 31.3926,15.4682 33.5,14.5C 37.5191,14.3542 41.5191,14.0209 45.5,13.5 Z"/></g>
<g><path style="opacity:1" fill="#768b9f" d="M 99.5,8.5 C 99.5,14.5 99.5,20.5 99.5,26.5C 66.0469,28.8459 32.7136,31.8459 -0.5,35.5C -0.5,32.8333 -0.5,30.1667 -0.5,27.5C 2.16667,26.8333 2.16667,26.1667 -0.5,25.5C -0.5,22.8333 -0.5,20.1667 -0.5,17.5C 6.16667,17.1667 12.8333,16.8333 19.5,16.5C 20.8549,19.7684 22.6883,20.1017 25,17.5C 25.2491,20.3919 26.4158,22.7253 28.5,24.5C 29.2739,25.1471 30.2739,25.4805 31.5,25.5C 33.777,24.5217 36.1103,23.8551 38.5,23.5C 40.288,23.7852 41.9547,23.4519 43.5,22.5C 43.3764,21.8933 43.0431,21.56 42.5,21.5C 43.2147,19.2453 44.548,17.4119 46.5,16C 45.7476,15.3292 45.4142,14.4959 45.5,13.5C 45.8333,13.5 46.1667,13.5 46.5,13.5C 48.4147,13.7845 50.0813,13.4511 51.5,12.5C 67.52,11.3872 83.52,10.0539 99.5,8.5 Z"/></g>
<g><path style="opacity:1" fill="#a6b6c0" d="M 90.5,16.5 C 92.288,16.2148 93.9547,16.5481 95.5,17.5C 94.6667,17.8333 93.8333,18.1667 93,18.5C 91.6244,18.3158 90.7911,17.6491 90.5,16.5 Z"/></g>
<g><path style="opacity:1" fill="#a8b5c2" d="M 80.5,17.5 C 81.9778,17.238 83.3112,17.5713 84.5,18.5C 83.8333,18.8333 83.1667,19.1667 82.5,19.5C 81.2867,19.2528 80.62,18.5862 80.5,17.5 Z"/></g>
<g><path style="opacity:1" fill="#abb8c5" d="M 70.5,18.5 C 71.9778,18.238 73.3112,18.5713 74.5,19.5C 72.9255,20.6309 71.2588,20.7975 69.5,20C 70.056,19.6174 70.3893,19.1174 70.5,18.5 Z"/></g>
<g><path style="opacity:1" fill="#adb8c2" d="M 49.5,20.5 C 50.9778,20.238 52.3112,20.5713 53.5,21.5C 52.8333,21.8333 52.1667,22.1667 51.5,22.5C 50.2867,22.2528 49.62,21.5862 49.5,20.5 Z"/></g>
<g><path style="opacity:1" fill="#a8b4c0" d="M 59.5,19.5 C 61.288,19.2148 62.9547,19.5481 64.5,20.5C 63.6667,20.8333 62.8333,21.1667 62,21.5C 60.6244,21.3158 59.7911,20.6491 59.5,19.5 Z"/></g>
<g><path style="opacity:1" fill="#9facb8" d="M 42.5,21.5 C 43.0431,21.56 43.3764,21.8933 43.5,22.5C 41.9547,23.4519 40.288,23.7852 38.5,23.5C 39.1834,21.8235 40.5168,21.1568 42.5,21.5 Z"/></g>
<g><path style="opacity:1" fill="#afbcc6" d="M 28.5,24.5 C 28.62,23.4138 29.2867,22.7472 30.5,22.5C 31.1667,22.8333 31.8333,23.1667 32.5,23.5C 31.3112,24.4287 29.9778,24.762 28.5,24.5 Z"/></g>
<g><path style="opacity:1" fill="#a9b5c2" d="M 7.5,24.5 C 8.97782,24.238 10.3112,24.5713 11.5,25.5C 10.8333,25.8333 10.1667,26.1667 9.5,26.5C 8.28665,26.2528 7.61998,25.5862 7.5,24.5 Z"/></g>
<g><path style="opacity:1" fill="#acb9c4" d="M 18.5,23.5 C 19.9778,23.238 21.3112,23.5713 22.5,24.5C 20.9255,25.6309 19.2588,25.7975 17.5,25C 18.056,24.6174 18.3893,24.1174 18.5,23.5 Z"/></g>
<g><path style="opacity:1" fill="#adb7bf" d="M -0.5,25.5 C 2.16667,26.1667 2.16667,26.8333 -0.5,27.5C -0.5,26.8333 -0.5,26.1667 -0.5,25.5 Z"/></g>
<g><path style="opacity:1" fill="#a3afbc" d="M 99.5,26.5 C 99.5,27.1667 99.5,27.8333 99.5,28.5C 86.7682,29.0444 74.1015,30.2111 61.5,32C 62.4158,32.2784 63.0825,32.7784 63.5,33.5C 63.1667,33.5 62.8333,33.5 62.5,33.5C 58.8569,33.0253 55.1902,32.692 51.5,32.5C 34.1482,34.0654 16.8149,35.732 -0.5,37.5C -0.5,36.8333 -0.5,36.1667 -0.5,35.5C 32.7136,31.8459 66.0469,28.8459 99.5,26.5 Z"/></g>
<g><path style="opacity:1" fill="#899aac" d="M 99.5,28.5 C 99.5,29.1667 99.5,29.8333 99.5,30.5C 87.4622,31.1039 75.4622,32.1039 63.5,33.5C 63.0825,32.7784 62.4158,32.2784 61.5,32C 74.1015,30.2111 86.7682,29.0444 99.5,28.5 Z"/></g>
<g><path style="opacity:1" fill="#8899aa" d="M 62.5,33.5 C 62.631,34.2389 62.4643,34.9056 62,35.5C 59.9255,34.8656 57.7588,34.5323 55.5,34.5C 36.8225,36.1684 18.1559,37.8351 -0.5,39.5C -0.5,38.8333 -0.5,38.1667 -0.5,37.5C 16.8149,35.732 34.1482,34.0654 51.5,32.5C 55.1902,32.692 58.8569,33.0253 62.5,33.5 Z"/></g>
<g><path style="opacity:1" fill="#758a9e" d="M 99.5,30.5 C 99.5,48.5 99.5,66.5 99.5,84.5C 79.8333,84.5 60.1667,84.5 40.5,84.5C 44.6956,79.4112 44.3622,74.5779 39.5,70C 34.8333,69.6667 30.1667,69.3333 25.5,69C 23.2807,65.9553 20.2807,64.7886 16.5,65.5C 16.5,67.5 16.5,69.5 16.5,71.5C 23.6681,70.1413 29.6681,72.1413 34.5,77.5C 29.8005,82.9837 23.8005,84.9837 16.5,83.5C 16.5,85.1667 16.5,86.8333 16.5,88.5C 18.5,88.5 20.5,88.5 22.5,88.5C 20.3926,89.4682 18.0593,89.8016 15.5,89.5C 15.8319,79.4778 15.4985,69.4778 14.5,59.5C 13.5344,61.396 13.2011,63.396 13.5,65.5C 9.83068,64.6971 7.16401,65.8638 5.5,69C 3.5273,69.4955 1.5273,69.6621 -0.5,69.5C -0.5,59.5 -0.5,49.5 -0.5,39.5C 18.1559,37.8351 36.8225,36.1684 55.5,34.5C 57.7588,34.5323 59.9255,34.8656 62,35.5C 62.4643,34.9056 62.631,34.2389 62.5,33.5C 62.8333,33.5 63.1667,33.5 63.5,33.5C 75.4622,32.1039 87.4622,31.1039 99.5,30.5 Z"/></g>
<g><path style="opacity:1" fill="#5a7084" d="M 13.5,65.5 C 13.5,67.5 13.5,69.5 13.5,71.5C 8.83333,71.5 4.16667,71.5 -0.5,71.5C -0.5,70.8333 -0.5,70.1667 -0.5,69.5C 1.5273,69.6621 3.5273,69.4955 5.5,69C 7.16401,65.8638 9.83068,64.6971 13.5,65.5 Z"/></g>
<g><path style="opacity:1" fill="#586e83" d="M 40.5,84.5 C 39.8333,84.8333 39.1667,85.1667 38.5,85.5C 33.6367,85.1805 28.97,85.5139 24.5,86.5C 24.1667,87.5 23.5,88.1667 22.5,88.5C 20.5,88.5 18.5,88.5 16.5,88.5C 16.5,86.8333 16.5,85.1667 16.5,83.5C 23.8005,84.9837 29.8005,82.9837 34.5,77.5C 29.6681,72.1413 23.6681,70.1413 16.5,71.5C 16.5,69.5 16.5,67.5 16.5,65.5C 20.2807,64.7886 23.2807,65.9553 25.5,69C 30.1667,69.3333 34.8333,69.6667 39.5,70C 44.3622,74.5779 44.6956,79.4112 40.5,84.5 Z"/></g>
<g><path style="opacity:1" fill="#768a9f" d="M -0.5,71.5 C 4.16667,71.5 8.83333,71.5 13.5,71.5C 13.5,75.5 13.5,79.5 13.5,83.5C 8.83333,83.5 4.16667,83.5 -0.5,83.5C -0.5,82.8333 -0.5,82.1667 -0.5,81.5C 0.993095,80.6879 1.65976,79.3545 1.5,77.5C 1.36015,75.9704 0.693482,74.9704 -0.5,74.5C -0.5,73.5 -0.5,72.5 -0.5,71.5 Z"/></g>
<g><path style="opacity:1" fill="#91a4b3" d="M 15.5,89.5 C 13.1667,89.5 10.8333,89.5 8.5,89.5C 7.83333,89.5 7.5,89.1667 7.5,88.5C 9.5,88.5 11.5,88.5 13.5,88.5C 13.5,86.8333 13.5,85.1667 13.5,83.5C 13.5,79.5 13.5,75.5 13.5,71.5C 13.5,69.5 13.5,67.5 13.5,65.5C 13.2011,63.396 13.5344,61.396 14.5,59.5C 15.4985,69.4778 15.8319,79.4778 15.5,89.5 Z"/></g>
<g><path style="opacity:1" fill="#a0b3c1" d="M -0.5,74.5 C 0.693482,74.9704 1.36015,75.9704 1.5,77.5C 1.65976,79.3545 0.993095,80.6879 -0.5,81.5C -0.5,79.1667 -0.5,76.8333 -0.5,74.5 Z"/></g>
<g><path style="opacity:1" fill="#5c7185" d="M -0.5,83.5 C 4.16667,83.5 8.83333,83.5 13.5,83.5C 13.5,85.1667 13.5,86.8333 13.5,88.5C 11.5,88.5 9.5,88.5 7.5,88.5C 5.6086,85.8283 2.94194,84.8283 -0.5,85.5C -0.5,84.8333 -0.5,84.1667 -0.5,83.5 Z"/></g>
<g><path style="opacity:0.817" fill="#a8b2c2" d="M 40.5,84.5 C 60.1667,84.5 79.8333,84.5 99.5,84.5C 99.5,85.1667 99.5,85.8333 99.5,86.5C 79.1856,86.2117 58.8523,86.545 38.5,87.5C 38.5,86.8333 38.5,86.1667 38.5,85.5C 39.1667,85.1667 39.8333,84.8333 40.5,84.5 Z"/></g>
<g><path style="opacity:0.757" fill="#85929e" d="M 24.5,86.5 C 28.97,85.5139 33.6367,85.1805 38.5,85.5C 38.5,86.1667 38.5,86.8333 38.5,87.5C 36.1667,87.5 33.8333,87.5 31.5,87.5C 30.791,86.596 29.791,86.2627 28.5,86.5C 27.1667,86.5 25.8333,86.5 24.5,86.5 Z"/></g>
<g><path style="opacity:1" fill="#eaedee" d="M -0.5,85.5 C 2.94194,84.8283 5.6086,85.8283 7.5,88.5C 7.5,89.1667 7.83333,89.5 8.5,89.5C 10.2646,90.4614 12.2646,90.7947 14.5,90.5C 14.5,92.1667 14.5,93.8333 14.5,95.5C 10.3028,94.4043 6.30284,92.7376 2.5,90.5C 1.70245,90.9569 1.36912,91.6236 1.5,92.5C 0.833333,92.5 0.166667,92.5 -0.5,92.5C -0.5,90.1667 -0.5,87.8333 -0.5,85.5 Z"/></g>
<g><path style="opacity:1" fill="#d2d9dd" d="M 24.5,86.5 C 25.8333,86.5 27.1667,86.5 28.5,86.5C 26.5398,88.1563 24.5398,89.823 22.5,91.5C 20.3926,90.5318 18.0593,90.1984 15.5,90.5C 15.1568,92.4832 15.8235,93.8166 17.5,94.5C 16.791,95.404 15.791,95.7373 14.5,95.5C 14.5,93.8333 14.5,92.1667 14.5,90.5C 12.2646,90.7947 10.2646,90.4614 8.5,89.5C 10.8333,89.5 13.1667,89.5 15.5,89.5C 18.0593,89.8016 20.3926,89.4682 22.5,88.5C 23.5,88.1667 24.1667,87.5 24.5,86.5 Z"/></g>
<g><path style="opacity:0.396" fill="#b4bdc5" d="M 28.5,86.5 C 29.791,86.2627 30.791,86.596 31.5,87.5C 26.3704,91.9043 20.7037,95.571 14.5,98.5C 9.97346,96.8818 5.64013,94.8818 1.5,92.5C 1.36912,91.6236 1.70245,90.9569 2.5,90.5C 6.30284,92.7376 10.3028,94.4043 14.5,95.5C 15.791,95.7373 16.791,95.404 17.5,94.5C 19.0009,93.2485 20.6675,92.2485 22.5,91.5C 24.5398,89.823 26.5398,88.1563 28.5,86.5 Z"/></g>
<g><path style="opacity:1" fill="#f3f5f4" d="M 22.5,91.5 C 20.6675,92.2485 19.0009,93.2485 17.5,94.5C 15.8235,93.8166 15.1568,92.4832 15.5,90.5C 18.0593,90.1984 20.3926,90.5318 22.5,91.5 Z"/></g>
</svg>
