<?xml version="1.0" encoding="UTF-8"?>
<!DOCTYPE svg PUBLIC "-//W3C//DTD SVG 1.1//EN" "http://www.w3.org/Graphics/SVG/1.1/DTD/svg11.dtd">
<svg xmlns="http://www.w3.org/2000/svg" version="1.1" width="100px" height="100px" style="shape-rendering:geometricPrecision; text-rendering:geometricPrecision; image-rendering:optimizeQuality; fill-rule:evenodd; clip-rule:evenodd" xmlns:xlink="http://www.w3.org/1999/xlink">
<g><path style="opacity:0.196" fill="#c9ced5" d="M 0.5,-0.5 C 2.83333,-0.5 5.16667,-0.5 7.5,-0.5C 6.85153,1.58639 5.35153,2.58639 3,2.5C 1.62439,2.31577 0.791056,1.64911 0.5,0.5C 0.5,0.166667 0.5,-0.166667 0.5,-0.5 Z"/></g>
<g><path style="opacity:0.945" fill="#9ca9b8" d="M 7.5,-0.5 C 9.5,-0.5 11.5,-0.5 13.5,-0.5C 17.8109,5.32611 21.9776,11.3261 26,17.5C 27.1096,19.0368 28.6096,19.7035 30.5,19.5C 29.375,20.6522 29.375,21.6522 30.5,22.5C 30.8333,23.1667 31.1667,23.8333 31.5,24.5C 31.5299,25.4972 31.0299,26.1639 30,26.5C 24.6872,25.9021 19.5206,25.2354 14.5,24.5C 18.9801,24.7319 23.3135,24.0652 27.5,22.5C 26.2334,18.8577 23.9,16.5243 20.5,15.5C 20.3441,12.1589 19.0108,9.32554 16.5,7C 10.8141,7.02013 5.14747,7.52013 -0.5,8.5C -0.5,5.83333 -0.5,3.16667 -0.5,0.5C -0.166667,0.5 0.166667,0.5 0.5,0.5C 0.791056,1.64911 1.62439,2.31577 3,2.5C 5.35153,2.58639 6.85153,1.58639 7.5,-0.5 Z"/></g>
<g><path style="opacity:1" fill="#768b9f" d="M 14.5,24.5 C 11.2869,24.19 8.2869,24.5233 5.5,25.5C 3.5,25.5 1.5,25.5 -0.5,25.5C -0.5,22.8333 -0.5,20.1667 -0.5,17.5C 4.83333,16.8333 4.83333,16.1667 -0.5,15.5C -0.5,13.1667 -0.5,10.8333 -0.5,8.5C 5.14747,7.52013 10.8141,7.02013 16.5,7C 19.0108,9.32554 20.3441,12.1589 20.5,15.5C 23.9,16.5243 26.2334,18.8577 27.5,22.5C 23.3135,24.0652 18.9801,24.7319 14.5,24.5 Z"/></g>
<g><path style="opacity:0.424" fill="#c5cbd4" d="M 13.5,-0.5 C 14.1667,-0.5 14.8333,-0.5 15.5,-0.5C 21.231,5.57171 26.231,12.2384 30.5,19.5C 28.6096,19.7035 27.1096,19.0368 26,17.5C 21.9776,11.3261 17.8109,5.32611 13.5,-0.5 Z"/></g>
<g><path style="opacity:0.112" fill="#d4d4d4" d="M 64.5,13.5 C 67.3091,13.9577 67.9758,15.2911 66.5,17.5C 64.8958,16.713 64.2291,15.3797 64.5,13.5 Z"/></g>
<g><path style="opacity:1" fill="#adb7c3" d="M 9.5,14.5 C 11.288,14.2148 12.9547,14.5481 14.5,15.5C 13.6667,15.8333 12.8333,16.1667 12,16.5C 10.6244,16.3158 9.79106,15.6491 9.5,14.5 Z"/></g>
<g><path style="opacity:1" fill="#a5b2be" d="M -0.5,15.5 C 4.83333,16.1667 4.83333,16.8333 -0.5,17.5C -0.5,16.8333 -0.5,16.1667 -0.5,15.5 Z"/></g>
<g><path style="opacity:0.459" fill="#d2d3d2" d="M 62.5,15.5 C 63.8852,16.9473 63.5518,17.9473 61.5,18.5C 61.2627,17.209 61.596,16.209 62.5,15.5 Z"/></g>
<g><path style="opacity:0.095" fill="#cccdcd" d="M 90.5,21.5 C 89.448,21.6495 88.448,21.4828 87.5,21C 89.0368,19.8904 89.7035,18.3904 89.5,16.5C 91.0229,15.2541 92.0229,15.7541 92.5,18C 92.0217,19.3026 91.355,20.4693 90.5,21.5 Z"/></g>
<g><path style="opacity:0.753" fill="#9ea2a6" d="M 89.5,16.5 C 89.7035,18.3904 89.0368,19.8904 87.5,21C 88.448,21.4828 89.448,21.6495 90.5,21.5C 90.8333,21.5 91.1667,21.5 91.5,21.5C 91.7329,23.0618 92.3995,24.3951 93.5,25.5C 90.6484,23.9091 87.6484,22.5758 84.5,21.5C 84.1667,20.8333 83.8333,20.1667 83.5,19.5C 85.5168,18.4706 87.5168,17.4706 89.5,16.5 Z"/></g>
<g><path style="opacity:0.137" fill="#b3b9be" d="M 61.5,19.5 C 62.3382,19.8417 62.6716,20.5084 62.5,21.5C 59.1667,21.5 55.8333,21.5 52.5,21.5C 49.3705,20.4889 46.3705,19.8223 43.5,19.5C 44.5123,17.1103 46.1789,15.4437 48.5,14.5C 51.3288,14.8239 51.9955,16.1572 50.5,18.5C 54.1073,19.4892 57.774,19.8226 61.5,19.5 Z"/></g>
<g><path style="opacity:0.829" fill="#939596" d="M 64.5,13.5 C 64.2291,15.3797 64.8958,16.713 66.5,17.5C 66.5,18.1667 66.5,18.8333 66.5,19.5C 65.6618,19.8417 65.3284,20.5084 65.5,21.5C 64.5,21.5 63.5,21.5 62.5,21.5C 62.6716,20.5084 62.3382,19.8417 61.5,19.5C 61.5,19.1667 61.5,18.8333 61.5,18.5C 63.5518,17.9473 63.8852,16.9473 62.5,15.5C 62.8333,14.5 63.5,13.8333 64.5,13.5 Z"/></g>
<g><path style="opacity:0.125" fill="#ccd1d7" d="M 66.5,19.5 C 67.5,19.5 68.5,19.5 69.5,19.5C 68.8333,20.1667 68.1667,20.8333 67.5,21.5C 66.8333,21.5 66.1667,21.5 65.5,21.5C 65.3284,20.5084 65.6618,19.8417 66.5,19.5 Z"/></g>
<g><path style="opacity:0.627" fill="#7d8c98" d="M 30.5,19.5 C 34.8333,19.5 39.1667,19.5 43.5,19.5C 46.3705,19.8223 49.3705,20.4889 52.5,21.5C 44.9809,21.175 37.6476,21.5084 30.5,22.5C 29.375,21.6522 29.375,20.6522 30.5,19.5 Z"/></g>
<g><path style="opacity:0.267" fill="#7a8b9a" d="M 69.5,19.5 C 74.1667,19.5 78.8333,19.5 83.5,19.5C 83.8333,20.1667 84.1667,20.8333 84.5,21.5C 82.5446,22.4474 82.2113,23.7807 83.5,25.5C 81.9547,26.4519 80.288,26.7852 78.5,26.5C 78.33,25.1779 78.6634,24.0113 79.5,23C 75.6049,21.7338 71.6049,21.2338 67.5,21.5C 68.1667,20.8333 68.8333,20.1667 69.5,19.5 Z"/></g>
<g><path style="opacity:1" fill="#596e82" d="M 52.5,21.5 C 55.8333,21.5 59.1667,21.5 62.5,21.5C 63.5,21.5 64.5,21.5 65.5,21.5C 66.1667,21.5 66.8333,21.5 67.5,21.5C 71.6049,21.2338 75.6049,21.7338 79.5,23C 78.6634,24.0113 78.33,25.1779 78.5,26.5C 80.288,26.7852 81.9547,26.4519 83.5,25.5C 82.2113,23.7807 82.5446,22.4474 84.5,21.5C 87.6484,22.5758 90.6484,23.9091 93.5,25.5C 93.8333,26.5 94.5,27.1667 95.5,27.5C 86.0144,28.4938 76.3478,28.8271 66.5,28.5C 56.1613,28.6665 45.828,28.4998 35.5,28C 33.6498,27.3103 32.3164,26.1436 31.5,24.5C 31.1667,23.8333 30.8333,23.1667 30.5,22.5C 37.6476,21.5084 44.9809,21.175 52.5,21.5 Z"/></g>
<g><path style="opacity:1" fill="#98a4b3" d="M 41.5,22.5 C 43.9893,22.5394 45.4893,23.5394 46,25.5C 42.8501,27.1612 41.3501,26.1612 41.5,22.5 Z"/></g>
<g><path style="opacity:1" fill="#97a4b2" d="M 60.5,23.5 C 62.288,23.2148 63.9547,23.5481 65.5,24.5C 63.2029,27.2896 61.5362,26.9563 60.5,23.5 Z"/></g>
<g><path style="opacity:1" fill="#adb8c3" d="M -0.5,25.5 C 1.5,25.5 3.5,25.5 5.5,25.5C 8.1873,25.3359 10.854,25.5026 13.5,26C 8.88199,26.994 4.21532,27.494 -0.5,27.5C -0.5,26.8333 -0.5,26.1667 -0.5,25.5 Z"/></g>
<g><path style="opacity:0.996" fill="#768a9e" d="M 99.5,30.5 C 99.5,43.1667 99.5,55.8333 99.5,68.5C 89.5,68.5 79.5,68.5 69.5,68.5C 56.4907,68.7004 43.4907,69.2004 30.5,70C 28.8333,71 27.1667,72 25.5,73C 23.0176,76.8065 20.1843,80.3065 17,83.5C 11.2151,84.4344 5.38178,84.7677 -0.5,84.5C -0.5,66.1667 -0.5,47.8333 -0.5,29.5C 10.1332,28.1515 20.7999,27.6515 31.5,28C 32.8333,28.6667 34.1667,29.3333 35.5,30C 56.8307,30.5 78.1641,30.6666 99.5,30.5 Z"/></g>
<g><path style="opacity:1" fill="#8898aa" d="M 5.5,25.5 C 8.2869,24.5233 11.2869,24.19 14.5,24.5C 19.5206,25.2354 24.6872,25.9021 30,26.5C 31.0299,26.1639 31.5299,25.4972 31.5,24.5C 32.3164,26.1436 33.6498,27.3103 35.5,28C 45.828,28.4998 56.1613,28.6665 66.5,28.5C 76.6532,29.4942 86.9865,29.8276 97.5,29.5C 98.1667,29.5 98.8333,29.5 99.5,29.5C 99.5,29.8333 99.5,30.1667 99.5,30.5C 78.1641,30.6666 56.8307,30.5 35.5,30C 34.1667,29.3333 32.8333,28.6667 31.5,28C 20.7999,27.6515 10.1332,28.1515 -0.5,29.5C -0.5,28.8333 -0.5,28.1667 -0.5,27.5C 4.21532,27.494 8.88199,26.994 13.5,26C 10.854,25.5026 8.1873,25.3359 5.5,25.5 Z"/></g>
<g><path style="opacity:1" fill="#6c7c8d" d="M 95.5,27.5 C 96.5,27.8333 97.1667,28.5 97.5,29.5C 86.9865,29.8276 76.6532,29.4942 66.5,28.5C 76.3478,28.8271 86.0144,28.4938 95.5,27.5 Z"/></g>
<g><path style="opacity:0.251" fill="#bac4ce" d="M 91.5,21.5 C 94.1667,23.1667 96.8333,24.8333 99.5,26.5C 99.5,27.5 99.5,28.5 99.5,29.5C 98.8333,29.5 98.1667,29.5 97.5,29.5C 97.1667,28.5 96.5,27.8333 95.5,27.5C 94.5,27.1667 93.8333,26.5 93.5,25.5C 92.3995,24.3951 91.7329,23.0618 91.5,21.5 Z"/></g>
<g><path style="opacity:0.929" fill="#9fabba" d="M 69.5,68.5 C 79.5,68.5 89.5,68.5 99.5,68.5C 99.5,69.1667 99.5,69.8333 99.5,70.5C 98.5,70.5 97.5,70.5 96.5,70.5C 94.866,69.8389 93.0326,69.5056 91,69.5C 88.7047,69.5465 86.8714,70.2132 85.5,71.5C 83.8333,71.5 82.1667,71.5 80.5,71.5C 80.1583,70.6618 79.4916,70.3284 78.5,70.5C 75.5,69.8333 72.5,69.1667 69.5,68.5 Z"/></g>
<g><path style="opacity:0.024" fill="#d2d9e0" d="M 96.5,70.5 C 93.0381,71.4816 89.3714,71.815 85.5,71.5C 86.8714,70.2132 88.7047,69.5465 91,69.5C 93.0326,69.5056 94.866,69.8389 96.5,70.5 Z"/></g>
<g><path style="opacity:1" fill="#5a6f82" d="M 76.5,73.5 C 74.8065,76.1897 72.4732,78.1897 69.5,79.5C 65.1161,79.1744 60.7828,79.5078 56.5,80.5C 56.6236,81.1067 56.9569,81.44 57.5,81.5C 57.1667,82.1667 56.8333,82.8333 56.5,83.5C 55.2921,82.7659 53.9587,82.4326 52.5,82.5C 48.03,81.5139 43.3633,81.1805 38.5,81.5C 35.9899,81.0535 33.9899,81.7202 32.5,83.5C 30.8333,83.5 29.1667,83.5 27.5,83.5C 27.5,82.8333 27.1667,82.5 26.5,82.5C 25.2825,81.8386 23.9492,81.1719 22.5,80.5C 24.3745,76.9149 27.0412,74.0815 30.5,72C 46.1587,70.9724 61.8254,70.6391 77.5,71C 76.7476,71.6708 76.4142,72.5041 76.5,73.5 Z"/></g>
<g><path style="opacity:1" fill="#97a3b0" d="M 63.5,74.5 C 65.288,74.2148 66.9547,74.5481 68.5,75.5C 66.2029,78.2896 64.5362,77.9563 63.5,74.5 Z"/></g>
<g><path style="opacity:1" fill="#9daab8" d="M 33.5,75.5 C 38.1366,75.6077 38.47,76.6077 34.5,78.5C 33.6143,77.675 33.281,76.675 33.5,75.5 Z"/></g>
<g><path style="opacity:1" fill="#9ba7b4" d="M 48.5,74.5 C 49.8333,74.5 51.1667,74.5 52.5,74.5C 52.8333,77.5 51.5,78.8333 48.5,78.5C 48.5,77.1667 48.5,75.8333 48.5,74.5 Z"/></g>
<g><path style="opacity:1" fill="#8e9cad" d="M 69.5,68.5 C 72.5,69.1667 75.5,69.8333 78.5,70.5C 78.573,72.0269 77.9063,73.0269 76.5,73.5C 76.4142,72.5041 76.7476,71.6708 77.5,71C 61.8254,70.6391 46.1587,70.9724 30.5,72C 27.0412,74.0815 24.3745,76.9149 22.5,80.5C 23.9492,81.1719 25.2825,81.8386 26.5,82.5C 19.6235,84.7415 12.6235,86.0749 5.5,86.5C 3.5,86.5 1.5,86.5 -0.5,86.5C -0.5,85.8333 -0.5,85.1667 -0.5,84.5C 5.38178,84.7677 11.2151,84.4344 17,83.5C 20.1843,80.3065 23.0176,76.8065 25.5,73C 27.1667,72 28.8333,71 30.5,70C 43.4907,69.2004 56.4907,68.7004 69.5,68.5 Z"/></g>
<g><path style="opacity:0.918" fill="#798a98" d="M 69.5,79.5 C 69.5,80.1667 69.5,80.8333 69.5,81.5C 67.8333,81.5 66.1667,81.5 64.5,81.5C 62.1667,80.1667 59.8333,80.1667 57.5,81.5C 56.9569,81.44 56.6236,81.1067 56.5,80.5C 60.7828,79.5078 65.1161,79.1744 69.5,79.5 Z"/></g>
<g><path style="opacity:0.745" fill="#b4b8ba" d="M 78.5,70.5 C 79.4916,70.3284 80.1583,70.6618 80.5,71.5C 79.3104,73.3545 77.9771,75.1879 76.5,77C 79.2146,77.8747 80.5479,79.7081 80.5,82.5C 76.8212,82.2756 73.1545,81.9422 69.5,81.5C 69.5,80.8333 69.5,80.1667 69.5,79.5C 72.4732,78.1897 74.8065,76.1897 76.5,73.5C 77.9063,73.0269 78.573,72.0269 78.5,70.5 Z"/></g>
<g><path style="opacity:0.467" fill="#d1d6dc" d="M 57.5,81.5 C 59.8333,80.1667 62.1667,80.1667 64.5,81.5C 63.0736,82.3412 61.7403,83.3412 60.5,84.5C 60.5,83.5 60.5,82.5 60.5,81.5C 59.5,81.5 58.5,81.5 57.5,81.5 Z"/></g>
<g><path style="opacity:0.576" fill="#9fa2a6" d="M 38.5,81.5 C 43.3633,81.1805 48.03,81.5139 52.5,82.5C 49.4816,82.3354 46.4816,82.502 43.5,83C 44.2524,83.6708 44.5858,84.5041 44.5,85.5C 41.4779,85.6581 39.4779,84.3248 38.5,81.5 Z"/></g>
<g><path style="opacity:0.573" fill="#9f9fa0" d="M 57.5,81.5 C 58.5,81.5 59.5,81.5 60.5,81.5C 60.5,82.5 60.5,83.5 60.5,84.5C 58.901,84.7678 57.5676,84.4345 56.5,83.5C 56.8333,82.8333 57.1667,82.1667 57.5,81.5 Z"/></g>
<g><path style="opacity:0.224" fill="#d1d7dc" d="M 26.5,82.5 C 27.1667,82.5 27.5,82.8333 27.5,83.5C 23.7802,84.2422 20.1135,85.4089 16.5,87C 12.6425,87.8099 8.97579,87.6433 5.5,86.5C 12.6235,86.0749 19.6235,84.7415 26.5,82.5 Z"/></g>
<g><path style="opacity:0.053" fill="#bbbcbe" d="M 38.5,81.5 C 39.4779,84.3248 41.4779,85.6581 44.5,85.5C 41.878,87.0085 39.5447,86.5085 37.5,84C 35.8659,83.5065 34.1992,83.3398 32.5,83.5C 33.9899,81.7202 35.9899,81.0535 38.5,81.5 Z"/></g>
</svg>
